<svg xmlns="http://www.w3.org/2000/svg" version="1.1" width="600px" height="600px" viewBox="0 0 200 200" style="overflow:hidden!important;"><g id="svga-group-wrapper"><g id="svga-group-backs-single"><path id="SvgjsPath6876" d="M0 0h200v200H0V0z" fill="#c5e0dc" stroke-width="none" opacity="1" stroke="none"></path><path id="SvgjsPath6877" d="M0 70.8 39.2 200l39.2-86.3L0 9.9v60.9zM200 0h-47.6l23 37.5L200 0zm-28.9 104.9 16.5-40.7-70.5-26.8 54 67.5zM51.3 200h101.1v-33.1l-73.9 19.5L51.3 200zm27.2-86.3 73.9 53.2L78.5 0v113.7z" fill="#a3d1ca" stroke-width="none" opacity="1" stroke="none"></path><path id="SvgjsPath6878" d="m134.4 0 2 130.8L176.2 0h-41.8zm18 166.9 47.6-14.5v-21.5L171.1 105l-18.7 61.9zm22.9-129.4 12.3 26.8 12.4 6.9V0l-24.7 37.5zm-58.2 0L96.7 26.6 117.1 0 81 18.3 46.7 0h-28l56.2 21.4L0 59.3v93.1L94.8 29l22.3 8.5zM0 200h94.2l42.2-69.2L0 189.1V200z" fill="#83c1b8" stroke-width="none" opacity="1" stroke="none"></path><path id="SvgjsPath6879" d="M104.4 70.8 91.1 13.5 166.2 0 90 8.6 88 0H68.2l3.5 10.6L0 18.7v11.1l73.7-13.2 19.5 59-65.3 28L0 70.8v5.4l24 29.2-24 10.2 24.5-9.6 57.4 69.8L51.3 200h27.2l11.1-14.9 12.3 14.9h7.9l-16.7-19.6 24.1-32.4 17.2 52.1-29.2-125.6 94.8-37v-7.6l-95.6 40.9zm12.7 77.1-30.9 24.4-57.7-67.9 65.7-25.7 22.9 69.2zm70.5 52.1H200l-47.6-95.1 35.2 95.1z" fill="#ffffff" stroke-width="none" opacity="1"></path></g><g id="svga-group-humanwrap-move" transform="matrix(1,0,0,1,0,0)"><g id="svga-group-humanwrap"><g id="svga-group-hair-back-move" transform="matrix(1,0,0,1,0,0)"><g id="svga-group-hair-back"><path id="SvgjsPath6701" d="M51.7 79.9s-5 26.3-5.9 29c-.8 2.8 4.8 13.1 4.8 13.1s-1.7 8.1-2 10.1 4.8 7.3 4.8 7.3-4.2 8.7-4.2 9.8 3.1 8.7 3.1 8.7l-5.9 7.5 7 10.3s8.4-1.7 9.2-2.2 11.7-10.3 11.4-13.4 8.4-5.9 8.4-5.9 12-10.6 14.5-10.9c2.5-.3 24.3-3.6 26-4.2 1.7-.6 18.4-12.3 18.4-12.3s10.1-31 10.1-32.1c0-1.1-3.1-28.8-3.4-29.9-.3-1.1-84.9-5.3-84.9-5.3L51.7 79.9z" fill="#e8e6e4" stroke-width="none" opacity="1" stroke="none"></path><path id="SvgjsPath6702" d="m152.3 93.4-.2-2.3c-.6-6.2-1.3-12.3-2-18.5l-.5-4.6-.3-2.3c0-.2 0-.4-.1-.6l-.1-.3v-.1c-.1-.2-.3-.5-.4-.6-.1 0-.1-.1-.2-.1-.1-.1-.1-.1-.2-.1h-.1c-.5-.1-.9-.2-1.3-.2-3.1-.4-6.2-.6-9.3-.8-12.4-.9-24.8-1.5-37.2-2.1L81.8 60l-18.6-1h-.3l-.1.3-11.2 20.6-4.6 21.4-1.2 5.3-.3 1.3c-.1.4-.2.8-.3 1.4-.1 1.1.2 2 .4 2.9 1 3.5 2.6 6.7 4.2 9.9l-1.8 9.1-.1.6v.8c.1.5.3.9.5 1.3.4.8.8 1.5 1.3 2.1.8 1.2 1.8 2.2 2.7 3.3-.6 1.3-1.3 2.7-1.9 4-.7 1.5-1.4 3-2 4.7-.1.2-.2.4-.2.8s0 .7.1.9c.1.5.2.9.4 1.3.3.8.5 1.6.8 2.4.5 1.4 1.1 2.8 1.7 4.2l-5.5 7.2-.4.5.3.5 5.4 7.8c.3-.4.7-.8 1.1-1.2-1.6-2.4-3.1-4.7-4.7-7.1l5.5-7 .3-.4-.2-.5c-.6-1.5-1.2-3.1-1.8-4.6l-.8-2.3c-.1-.4-.2-.8-.3-1.1 0-.2-.1-.3 0-.3 0 0 .1-.2.1-.4.5-1.5 1.2-3 1.9-4.5l2.1-4.5.2-.5-.4-.4c-1.1-1.1-2.1-2.3-3-3.6-.5-.6-.9-1.3-1.2-1.9-.2-.3-.3-.6-.3-.9V132.1l.1-.6 1.8-9.3v-.3l-.1-.2c-1.7-3.2-3.3-6.4-4.5-9.8-.2-.8-.5-1.7-.4-2.4 0-.3.2-.8.3-1.3l.3-1.3 1.1-5.4c.7-3.6 1.3-7.2 2-10.8.6-3.6 1.3-7.2 1.9-10.8L63.4 60l36.8 2.3 18.6 1.2 18.6 1.2c3.1.2 6.2.5 9.2.8.2 0 .4.1.5.1v.2l.3 2.3.6 4.6c.7 6.2 1.4 12.3 2.1 18.5l.2 2.3.1 1.1c0 .1-.1.2-.1.3l-.1.5c-.4 1.5-.9 2.9-1.3 4.4l-2.7 8.9-5.5 17.5c-4.5 3.2-8.9 6.3-13.4 9.4-1.2.8-2.3 1.6-3.5 2.3-.6.4-1.1.6-1.7.8l-2 .4c-2.7.5-5.5 1-8.2 1.4s-5.5.9-8.2 1.3l-4.1.6-2.1.3-.5.1-.6.2c-.3.1-.7.3-1 .5-2.4 1.4-4.6 3.2-6.8 5-2.2 1.7-4.3 3.5-6.4 5.3-.4.1-.8.3-1.2.4 0 .3 0 .5-.1.8l1.5-.6h.1l.1-.1 6.3-5.4c2.2-1.7 4.3-3.5 6.7-4.9.3-.1.6-.3.9-.4l.4-.1.5-.1 2.1-.3 4.1-.6 8.2-1.2c2.8-.4 5.5-.8 8.2-1.3l2.1-.4c.2 0 .3-.1.5-.1s.4-.1.6-.2c.4-.2.6-.4 1-.5 1.2-.7 2.4-1.5 3.6-2.2 4.7-3 9.3-6.1 13.9-9.3l.2-.1.1-.2 5.8-17.7 2.8-8.9c.5-1.5.9-3 1.4-4.5l.2-.6c.1-.3.1-.6.1-.8v-1.1z" fill="#c9b49e" stroke-width="none" opacity="1" stroke="none"></path></g></g><g id="svga-group-humanbody-back"><path id="SvgjsPath6536" d="M77.8 105.9s4.8 37.7 10 55.8c0 0-6.4 8.8-14.5 11.9-28.7 11.2-35 11.2-39.6 15.2-2.4 2.1.2 11.1 1.8 17.2 1.3 5 1.7 13.2 1.7 13.2h132.2s1.6-33-.6-39.8-7.1-2.9-21.9-4.5c-14.8-1.6-28.7-10.3-31-13.2l.3-60-38.4 4.2z" fill="#d79468" stroke-width="none" opacity="1" stroke="none"></path></g><g id="svga-group-chinshadow-single"><path id="SvgjsPath6532" d="M85.6 152.8c6.6 3.5 10.7 3.5 10.7 3.5s8 0 19.6-9.5l.2-45.2-38.4 4.2c.1.1 3.6 27.7 7.9 47z" fill="#b86934" stroke-width="none" opacity="1" stroke="none"></path></g><g id="svga-group-humanbody-front"><path id="SvgjsPath6537" d="M72.1 183.1s14.6-.2 20.4 2.6c5.8 2.9 12.7 2.4 16.1-1s21.6-7 21.6-7-19.7 1.9-25 4.6c-5.3 2.7-22.3-2.8-33.1.8z" fill="#b86934" stroke-width="none" opacity="1" stroke="none"></path><path id="SvgjsPath6538" d="M74.2 173.2c6.7-1.3 14.7-6.4 14.7-6.4l6.2 5.5c-4.3-7.9-12.7-41.1-12.7-41.1l-.7.7c1.7 10.5 3.9 21.9 6.1 29.7 0 0-6 8.2-13.6 11.6z" fill="#b86934" stroke-width="none" opacity="1" stroke="none"></path><path id="SvgjsPath6539" d="M170.7 188.5c-.1-2.1-.2-4.1-.4-6.2-.1-1-.3-2.1-.6-3.2-.2-.5-.4-1-.6-1.6-.2-.5-.6-1-1-1.5s-.9-.9-1.5-1.1c-.6-.3-1.1-.4-1.7-.6-1.1-.2-2.2-.2-3.2-.2-2.1 0-4.1.1-6.1.1s-4-.1-6-.2-4-.4-6-.7c-1-.2-2-.4-2.9-.6l-1.5-.4c-.5-.1-1-.3-1.4-.4-3.8-1.1-7.6-2.6-11.2-4.4l-1.3-.7-1.3-.7c-.4-.2-.9-.5-1.3-.8s-.9-.5-1.3-.8-.8-.5-1.3-.8l-1.2-.9-.6-.5-.3-.2-.3-.2c-.2-.2-.4-.3-.5-.5l-.2-.3v-44.6l-.1-15v-.6l-.6.1c-6.4.8-12.9 1.5-19.3 2.3l-19.1 2.3v.5l.1.4.1.9.2 1.8c.1 1.2.3 2.3.4 3.5l.9 7c.6 4.7 1.3 9.4 2.1 14 .8 4.7 1.5 9.3 2.5 14 .9 4.5 1.8 9 3 13.5-1.1 1.4-2.3 2.7-3.6 4-1.3 1.3-2.8 2.6-4.3 3.8-1.5 1.1-3.1 2.2-4.8 3l-1.3.6c-.4.2-.9.3-1.3.5l-2.7 1c-7.2 2.7-14.5 5.3-21.8 7.7l-5.5 1.8c-1.8.6-3.7 1.3-5.5 2.2-.4.2-.9.5-1.3.7-.4.3-.9.5-1.3.9l-.6.5c-.2.2-.5.5-.6.8-.3.5-.4 1.1-.5 1.6-.2 1.1-.1 2.1 0 3.1s.3 2 .4 2.9c.4 1.9.8 3.8 1.3 5.7l.8 2.8c.3.9.5 1.8.7 2.8.4 1.9.7 3.8.9 5.7s.4 3.8.5 5.7v.8h133.4v-.8c.2-4.1.4-8.2.5-12.3s.2-8.2.2-12.3c0-1.8-.1-3.8-.1-5.9zm-67.4 30.3H70.2l-16.5-.1-16-.1c-.1-1.8-.2-3.5-.4-5.3-.2-1.9-.4-3.9-.8-5.8-.2-1-.4-1.9-.7-2.9l-.7-2.8c-.5-1.9-.9-3.7-1.2-5.6-.2-.9-.3-1.9-.4-2.8-.1-.9-.1-1.9 0-2.7.1-.4.2-.8.4-1.1.1-.2.2-.3.3-.4l.5-.4c.3-.3.7-.5 1.1-.8.4-.2.8-.5 1.2-.7 1.7-.8 3.5-1.4 5.3-2l5.5-1.8c7.3-2.4 14.6-5 21.8-7.8l2.7-1c.5-.2.9-.3 1.4-.5l1.4-.6c1.8-.9 3.4-2 5-3.2s3-2.5 4.4-3.9 2.7-2.9 3.8-4.5l.2-.3-.1-.3c-1.3-4.5-2.3-9.1-3.3-13.7s-1.9-9.3-2.7-13.9c-.8-4.6-1.6-9.3-2.4-14l-2.2-13.9 19.3-1.8c6.2-.6 12.3-1.2 18.5-1.8l-.2 14.4-.2 15-.3 30v.4l.2.2.6.7.6.6.3.3.3.2.6.5c.4.3.9.6 1.3.9.4.3.9.6 1.3.9.4.3.9.5 1.3.8s.9.5 1.3.8l1.4.8 1.4.7c.5.2.9.5 1.4.7l1.4.7c1 .4 1.9.8 2.9 1.2s1.9.8 2.9 1.1l1.5.5c.5.2 1 .3 1.5.4.5.1 1 .3 1.5.4l1.5.4c1 .3 2 .4 3 .6 2 .4 4.1.6 6.2.8 2.1.2 4.1.2 6.2.2 2.1 0 4.1-.1 6.1-.1s4 .1 5 1.3c.5.6.9 1.4 1.2 2.3.3.9.4 1.9.6 2.8.3 2 .4 4 .5 6s.1 4.1.2 6.1c.1 7.9-.1 15.8-.4 23.7-10.8.1-21.5.1-32.3.2h-33.1z" fill="#a9561f" stroke-width="none" opacity="1" stroke="none"></path><path id="SvgjsPath6540" d="M150.7 219.2 147 198l-.4 21.2z" fill="#b86934" stroke-width="none" opacity="1" stroke="none"></path><path id="SvgjsPath6541" d="M47.3 203.5s2.2 11.5 2.9 15.7h3.5l-6.4-15.7z" fill="#b86934" stroke-width="none" opacity="1" stroke="none"></path></g><g id="svga-group-clothes-single"><path id="SvgjsPath9541" d="M83.3 143.2c-.5.1-14.9 3.7-17.3 4.9-2.5 1.2-1.2 6.9-2.2 7.8-.9.9-12 12.7-11.3 14s6.1 4 5.8 5.5c-.3 1.5-.9 2-.9 2s-22.5 5.4-24.7 7.5c-2.1 2.1-3.5 6.9-2.1 9.8 0 0-.8 4.8.1 10s1.8 9.4 1.8 9.4l.2 5.8h140.9s-.6-15-.4-17.9 1.8-13.7.7-16.2-1.6-5.1-1.6-5.1-1.6-7.5-5.5-8.9c-4-1.3-20.1.7-23 0s-.2-.9-.2-.9 2.2-1.6 2-3.1-4.9-4.4-6-7.3 0-6.4-2.4-7.5-5.1-3.1-8-6c-2.9-2.9-12.2-4-12.2-4s0 12.2-.2 14.2.2 8-.2 11.1c-.4 3.1-14.6 15.7-15.7 16.8S88 173.6 86 170.9c-2-2.7 1.3-6 1.3-9.1S84 148.8 84 147s-.7-3.8-.7-3.8z" fill="#09aac5" stroke-width="none" opacity="1"></path><path id="SvgjsPath9542" d="M57.6 175.2zm116.6 25.7c.4-3.1.8-6.3.9-9.5.1-1.6.2-3.2-.1-5 0-.4-.3-1.1-.4-1.3-.1-.3-.3-.7-.4-1.1-.2-.7-.5-1.4-.6-2.2-.1-.4-.2-.7-.2-1.1l-.3-1.2c-.2-.8-.5-1.6-.8-2.4-.6-1.5-1.3-3.1-2.5-4.4-.6-.7-1.3-1.3-2.2-1.7-.4-.2-.9-.3-1.3-.4-.4-.1-.8-.1-1.3-.2-1.6-.1-3.3-.1-4.9-.1-3.2.1-6.4.2-9.5.4-1.6.1-3.2.1-4.7.1h-.6a5 5 0 0 0 1.1-1.6c.2-.6.4-1.4.1-2.2-.3-.7-.7-1-1-1.4-1.4-1.4-2.8-2.6-3.9-3.9-.3-.3-.5-.7-.7-1-.2-.3-.3-.7-.4-1.1-.2-.8-.3-1.6-.4-2.6-.1-.9-.1-1.9-.5-3-.2-.5-.6-1.1-1.1-1.6-.2-.2-.5-.4-.8-.5l-.6-.3c-1.6-.8-3-1.9-4.4-3-.7-.6-1.4-1.2-2-1.8-.6-.6-1.5-1.4-2.4-1.9-1.8-1-3.6-1.5-5.5-2-1.8-.5-3.7-.8-5.6-1.1l-1.1-.1v1.1c0 4.1 0 8.1-.1 12.2 0 .5 0 1-.1 1.5l-.1.8V161.2c0 2 .1 4.1-.1 6 0 .2-.1.5-.1.7l-.1.2-.1.3c-.2.4-.4.8-.7 1.2-.6.8-1.2 1.6-1.9 2.3-1.3 1.5-2.7 3-4.2 4.4s-2.9 2.9-4.4 4.2l-2.2 2.1-1.1 1.1-.6.5c-.3-.1-.7-.4-1.1-.7l-1.2-.9c-.8-.6-1.5-1.3-2.2-2-1.5-1.4-2.9-2.8-4.3-4.3s-2.8-2.9-4.1-4.5c-.7-.8-1.4-1.5-1.6-2.3-.2-.8-.1-1.8.3-2.7.3-.9.7-1.9 1.1-2.9.3-1 .5-2.1.3-3.2-.3-2.1-.9-4-1.4-6-.5-1.7-.9-3.3-1.4-5-.1-.3-.2-.6-.2-.9l-.3-1.5c-.1-.5-.1-1-.2-1.5l-.3-1.5-.2-.7-.1-.4-.1-.2v-.2s0-.1-.1-.1c-.4.1-.6.1-.9.2l-.8.2-1.7.4-3.3.8c-2.2.6-4.4 1.1-6.7 1.7-1.1.3-2.2.6-3.3 1-.3.1-.6.2-.8.3-.3.2-.6.4-.8.6-.4.5-.7 1.1-.8 1.7-.3 1.2-.3 2.4-.4 3.5 0 .6-.1 1.1-.2 1.6 0 .1-.1.2-.1.3v.1s-.1.1-.2.1l-.6.6c-3.2 3.3-6.3 6.7-9.2 10.3-.4.5-.7.9-1 1.4-.2.2-.3.5-.5.8-.1.1-.2.3-.2.5v.5c0 .1.1.3.1.3l.1.1c.5.7 1 .9 1.4 1.3l1.4 1c.9.7 1.9 1.4 2.5 2.1.2.2.2.4.3.4v.1c0 .1-.1.2-.1.4-.1.2-.2.5-.3.7 0 .1-.1.2-.2.3v.1c-5.8 1.4-11.7 2.9-17.5 4.6-1.5.4-2.9.9-4.4 1.4l-1.1.4-1.1.5c-.4.2-.9.5-1.1.9-.3.3-.5.6-.8 1-.9 1.4-1.5 2.9-1.8 4.5-.2 1.5-.3 3.2.4 4.7-.2 1.6-.3 3.2-.3 4.8 0 1.7.2 3.3.4 5l1.9 9.5.2 5.7v.8h.8l35.2-.3c11.7-.1 23.5-.2 35.2-.2 11.7 0 23.5 0 35.2.1l35.2.3h.7v-.7l-.2-9.5-.1-4.7v-2.4c.4-.1.4-.8.5-1.6zm-68.7-19.1c1.5-1.4 3-2.8 4.4-4.2 1.5-1.4 2.9-2.9 4.3-4.4.7-.8 1.4-1.6 2-2.4.3-.4.6-.9.9-1.4l.2-.4c0-.1.1-.2.1-.3.3-.3.6-.5.9-.8.8-.7 1.7-1.3 2.6-2 1.7-1.4 3.4-3.2 4.3-5.5.4-1.1.6-2.5.3-3.7-.3-1.2-.8-2.3-1.6-3.2-1.4-1.8-3.3-3.2-5.3-4.1 1.6 1.6 3 3.2 4 5 .5.9.9 1.8 1 2.7.1.9 0 1.8-.3 2.7-.7 1.8-2 3.4-3.5 5-.7.8-1.5 1.6-2.2 2.5l-.1.1c.2-2 .1-3.9.1-5.9v-3.7l.1-.8c0-.5.1-1.1.1-1.6.1-3.7.2-7.4.2-11.1 1.4.2 2.8.5 4.2.8 1.8.4 3.5 1 5 1.8.8.4 1.2.9 1.9 1.6.7.7 1.4 1.3 2.1 1.9.2.2.5.4.7.6.4 1.1.8 2.2 1.1 3.3.4 1.6.7 3.2.6 4.7 0 .4-.1.7-.2 1.1-.1.3-.3.5-.6.9-.5.6-1.1 1.2-1.6 1.9-1.1 1.2-2.1 2.5-3.1 3.9 1.3-1.1 2.5-2.2 3.6-3.3.6-.6 1.2-1.2 1.7-1.8.3-.2.6-.7.8-1.1.2-.4.2-.9.3-1.3.1-1.8-.3-3.4-.9-5-.3-.9-.7-1.8-1.2-2.6 1.1.8 2.2 1.6 3.5 2.2.2.1.4.2.7.3.1.1.3.1.4.2.2.2.4.4.5.7.2.6.3 1.5.4 2.5.1.9.2 1.9.5 2.9.1.5.4 1 .6 1.5 0 .1.1.1.1.1v.3c0 1.2-.2 2.4-.7 3.4-.5 1-1.3 1.9-2.2 2.5-1.9 1.4-4.1 2.6-6.3 3.8l-6.5 3.6c-4.3 2.4-8.7 4.8-12.9 7.5-1.1.7-2.1 1.4-3.1 2.1l-1.5 1.2-.4.4c-.1.1-.2.3-.3.4l-.5.8c-1.2 1.9-2.3 3.9-3.4 5.8-1.4-1.1-2.8-2.2-4.3-3.1.4-.4.8-.8 1.1-1.2.7-.7 1.3-1.4 1.9-2.1.5-.6 1.1-1.3 1.6-2l.4-.3 1.1-1 2.4-2.4zm-2.4 14.5c0 .1 0 .1 0 0zm-2.7-11.7zm-36.2-28.4c.1-.1.1-.2.2-.3.1-.2.1-.4.2-.5.1-.6.1-1.2.2-1.8 0-1.1.1-2.3.3-3.3.1-.5.3-1 .6-1.4.1-.2.3-.3.5-.5.2-.1.5-.2.8-.3 1.1-.4 2.1-.8 3.2-1.1 2.2-.7 4.4-1.3 6.6-1.9l3.3-.9 1.7-.5.8-.2c.2-.1.6-.1.7-.2v.1l.1.2.1.4.2.7c.1.5.2 1 .2 1.5.1.5 0 1 .1 1.5l.3 1.5c.1.3.2.6.2.9-1.8.7-3.6 1.4-5.2 2.3-.9.5-1.8 1.1-2.5 1.9-.7.8-1.4 1.7-1.7 2.7-.3 1-.3 2.2-.1 3.2.1 1 .3 2.1.6 3.1.5 2 1.1 4 1.8 5.9l1.1 2.9c.2.5.3.9.5 1.4.2.6.6 1.1 1 1.4 1.6 1.4 3.4 2.4 5.2 3.4 1.8 1 3.7 1.9 5.5 2.7 1.8.9 3.8 1.6 5.5 2.6-3.4-2.2-7.2-3.9-10.7-6-1.7-1.1-3.5-2.1-5-3.4-.3-.3-.6-.7-.7-1.1-.2-.5-.3-1-.5-1.5l-1.1-2.9c-.7-1.9-1.4-3.8-1.8-5.8l-.6-3c-.2-1-.2-1.9 0-2.9.4-1.9 2-3.3 3.7-4.4 1.6-1 3.3-1.8 5-2.7.4 1.6.8 3.3 1.2 4.9.5 2 1 4 1.2 5.9.3 1.9-.8 3.7-1.5 5.7-.2.6-.4 1.2-.4 1.9l-.6-1.2c-.6-1.1-1.1-2.3-1.5-3.4-.4-1.1-.6-2.2-.6-3.4 0-1.2.1-2.5.2-3.8-.9 1-1.5 2.3-1.8 3.7-.3 1.4-.2 2.9.3 4.3.5 1.3 1.3 2.5 2.1 3.5.6.8 1.3 1.5 2.1 2.1.2.5.4.9.7 1.2.3.4.7.8 1 1.2 1.3 1.6 2.7 3.1 4.1 4.6 1.4 1.5 2.8 3 4.3 4.4.7.7 1.5 1.4 2.3 2.1.4.3.8.7 1.2 1 .4.3.8.6 1.5.9-.2.3-.5.6-.8.9-.6.7-1.2 1.5-1.7 2.3-.3.5-.6.9-.9 1.4l-1.5-.9c-1.1-.6-2.2-1.2-3.5-1.6-1.2-.4-2.3-.7-3.5-1.1-2.3-.7-4.7-1.4-7-2.2-2.3-.8-4.6-1.6-6.6-2.8-.5-.3-1-.6-1.3-.9-.2-.1-.3-.3-.4-.4v-.2l-.1-.5c-.4-1.3-.8-2.4-1.3-3.6-1-2.3-2-4.5-3.1-6.7-.6-1.1-1.1-2.2-1.8-3.3-.3-.6-.6-1-.8-1.6-.2-.5-.4-1.1-.5-1.7-.5-2.2-.7-4.5-1.3-6.7-.1.4 0 .4 0 .3zm-8.6 15.3-1.4-1c-.4-.3-.9-.7-1.1-.9 0-.1 0-.1.1-.2.1-.2.2-.4.4-.7.3-.5.6-.9 1-1.4 2.7-3.6 5.8-7 8.9-10.4l.3-.4c.2 2.2.2 4.4.6 6.6.1.6.2 1.2.4 1.9.2.6.5 1.3.7 1.8l1.5 3.3c1 2.2 1.9 4.5 2.8 6.8.4 1.1.8 2.3 1.1 3.4l.1.4.1.3c0 .1.1.3.2.4.2.4.5.8.8 1 .6.5 1.1.9 1.7 1.2 2.3 1.3 4.6 2.1 7 2.9 2.4.8 4.7 1.4 7.1 2.1l3.6.9c1.1.3 2.2.8 3.2 1.3 2 1 3.9 2.2 5.8 3.5-.2-.1-.5-.1-.7-.2-2.4-.6-4.8-1.1-7.2-1.5-4.8-.8-9.7-1.5-14.6-2.1-2.4-.3-4.9-.5-7.3-.8-.3 0-.6-.1-.8-.1H69.6c-.1 0-.1-.1-.2-.1-.3-.3-.7-.8-1-1.2-.6-1-1.2-2.1-1.7-3.1-.5-1.1-1.1-2.2-1.7-3.3-.7-1.2-1.5-2.1-2.3-3-1.1-1.3-2.3-2.5-3.6-3.7v-.3c-.2-.5-.4-.8-.6-1-1-1.1-1.9-1.7-2.9-2.4zm47.6 48c-11.7-.1-23.5-.1-35.2-.2l-34.5-.3-.1-5v-.2l-1.8-9.6c-.2-1.6-.4-3.1-.4-4.7s.1-3.2.3-4.7v-.3l-.1-.2c-.5-1.1-.6-2.6-.3-3.9.2-1.4.7-2.7 1.5-3.9.2-.3.4-.6.6-.8l.3-.3c.1-.1.2-.1.3-.2l1-.5 1-.4c1.4-.5 2.8-1 4.3-1.4 5.8-1.8 11.7-3.3 17.5-4.8h.2l.1-.1c.3-.2.3-.3.5-.5.1-.1.2-.3.3-.5.2-.3.3-.6.3-.9v-.2c1 1.2 1.9 2.4 2.8 3.6.3.5.7 1 1 1.5l.5.8c.1.2.3.5.4.8l1.5 3.3c.5 1.1 1 2.3 1.7 3.4.3.6.7 1.1 1.3 1.7.2.1.3.3.5.4.1.1.2.1.4.1l.3.1c.4.1.7.1 1 .2 2.5.4 4.9.5 7.4.7 4.9.3 9.8.4 14.6 1 2.4.3 4.8.8 7.2 1.4 1.2.4 2.3.8 3.3 1.4.1.1.2.1.4.2h.1l.2.1c.6.3.6-.9.5-.7 0-.1-.1-.1-.1-.1l-.1-.1-.2-.2-.7-.6c-.4-.4-.9-.8-1.3-1.1 1.4-1.8 2.8-3.5 4.1-5.3l.6-.8.2-.3.3-.3c.5-.4 1-.7 1.5-1 1-.6 2.1-1.3 3.2-1.9l13.1-7.1c2.2-1.2 4.3-2.4 6.5-3.7 2.1-1.3 4.3-2.6 6.3-4.2 1-.8 1.9-1.9 2.4-3.2.4-.9.5-1.9.5-2.8 1.2 1.4 2.6 2.6 3.7 3.8.3.3.6.6.6.8 0 0 0 .3-.1.5-.2.4-.6.9-1.1 1.3-.2.1-.4.1-.6.2-.1 0-.2.1-.4.1-.1 0-.1 0-.2.1-.1 0-.2.1-.3.1-1.2.4-2.1 1-3 1.6-3.7 2.4-7 5.2-10.5 7.6-.9.6-1.7 1.2-2.6 1.7-.4.2-.9.5-1.3.6-.5.2-1.1.3-1.6.5-2.1.8-4.1 1.6-6 2.6-2 1-3.9 2-5.7 3.2-.9.6-1.8 1.2-2.7 1.9-.8.7-1.7 1.5-2.1 2.5.6-.9 1.6-1.5 2.5-2 .9-.6 1.9-1.1 2.8-1.5 1.9-1 3.9-1.8 5.9-2.7 2-.8 4-1.6 6-2.3l1.5-.5c.6-.2 1.2-.5 1.7-.7 1-.6 1.9-1.2 2.8-1.8 3.6-2.6 6.8-5.4 10.2-7.9.6-.4 1.2-.9 1.9-1.2.1.1.1.2.2.3.1.1.2.1.2.1l.1.1c.2.1.3.1.4.2.2.1.5.1.7.2.4.1.9.2 1.4.2h1.2c1.6 0 3.2-.1 4.8-.2 3.2-.2 6.3-.4 9.5-.5 1.6 0 3.1 0 4.6.1 1.6.1 2.6.5 3.6 1.6.9 1 1.6 2.4 2.2 3.8.3.7.5 1.4.7 2.2.1.4.2.7.3 1.1l.3 1.2c.2.8.4 1.6.7 2.4.1.4.3.8.5 1.2.1.2.2.4.2.5 0 .1.1.2.1.4.2 1.4.2 3 .1 4.5-.1 3.1-.5 6.3-.8 9.4-.1.8-.1 1.6-.1 2.4v2.4l.1 4.8.4 8.8-19.9.1c.2-1.6.5-3.1.8-4.7.3-1.7.6-3.4.8-5.1.3-1.7.5-3.4.7-5.1.1-.9.2-1.7.3-2.6l.1-1.3c0-.4.1-.9.1-1.2.2-1.4 1.1-2.9 2-4.2.9-1.4 2-2.7 3.1-4 2.2-2.6 4.6-5.1 7-7.6-2.9 1.9-5.6 4.1-8.1 6.6-1.2 1.2-2.4 2.6-3.5 4-1 1.5-2.1 3-2.4 5.1l-.8 10.4c-.1 1.7-.2 3.5-.3 5.2 0 1.6-.1 3.2.1 4.8l-14.5.1c-12 .1-23.8.1-35.5.1zM47 202.6c-.3-.6-.7-1.4-1.2-2-.2-.3-.5-.6-.8-.9l-.8-.8c-1.1-.9-2.3-1.8-3.6-2.4-1.2-.7-2.6-1.2-3.9-1.7-1.3-.5-2.7-.9-4.1-1 2.5 1.2 4.9 2.6 7.2 4.1 1.1.8 2.2 1.6 3.1 2.5.2.2.5.4.7.7.2.2.4.5.6.7.2.2.3.5.5.8.2.2.3.6.4.9 1.1 2.5 1.9 5.1 2.9 7.7 1 2.6 1.9 5.2 3 7.8-.3-2.8-.9-5.5-1.5-8.2-.6-2.9-1.4-5.6-2.5-8.2z" fill="#008fa6" stroke-width="none" opacity="1"></path><path id="SvgjsPath9543" d="M110.3 203.4c0-.6-.1-1.3-.3-1.9-.3-1.2-.8-2.4-1.4-3.4-.6-1.1-1.3-2.1-2-3-.8-.9-1.6-1.8-2.5-2.6-.5-.4-.9-.8-1.5-1.1l-.6-.3c.1-.4-.1-.9-.5-1.1-.5-.3-1.1-.1-1.3.4 0 .1-.1.1-.1.2H99c-.7.1-1.3.2-2 .4-1.3.3-2.6.8-3.7 1.5-1.2.7-2.3 1.5-3.2 2.7-.9 1.1-1.4 2.7-1.4 4.1 0 2.3-.9 4.8-2.1 7.1l-.9 1.7c-.3.6-.6 1.2-.7 1.9-.1.4-.1.8.1 1.2.2.4.5.7.8.9.7.3 1.2.5 1.8.8.6.3 1.2.5 1.9.7.7.2 1.4.4 2.2.3.4-.1.9-.2 1.3-.6.4-.3.6-.8.8-1.2.3-.8.3-1.6.3-2.3-.1-2.7-.6-5.2-.8-7.7-.2-1.2-.2-2.4 0-3.5.1-.5.3-1 .6-1.5s.7-.9 1.1-1.4c.8-.9 1.8-1.7 2.8-2.5.5-.4.9-.7 1.4-1.1-.8 1.6-1.5 3.1-2.1 4.8-.4 1.1-.8 2.3-1.1 3.5-.1.6-.2 1.2-.3 1.9-.1.6 0 1.3 0 1.9.1 2.3 0 4.6-.5 6.9-.4 2.3-1.2 4.5-2.3 6.6 1.5-1.9 2.5-4.1 3.2-6.4.7-2.3 1.1-4.7 1.1-7.2 0-.6 0-1.1.1-1.7.1-.5.2-1.1.3-1.6.3-1.1.7-2.2 1.1-3.2.1-.2.2-.4.2-.6v.7c0 2.4.4 4.8.8 7 .4 2.3.9 4.5 1 6.8 0 1.1-.3 2.2-.4 3.3l-.7 3.4 1.2-3.3c.3-1.1.8-2.2.9-3.4.2-2.4-.2-4.7-.4-7s-.6-4.6-.4-6.8c.1-1.8.3-3.6.7-5.4l.9 1.5c.3.5.5 1 .6 1.5.1.5.1 1.1.1 1.6.1 2.3 0 4.6 0 7 0 2.3 0 4.6-.1 7 0 .6 0 1.2.1 1.9.1.6.1 1.3.5 2.1.2.4.8.8 1.2.9.5.1.8 0 1.1-.1.6-.1 1.1-.2 1.6-.2.3 0 .8 0 1.2-.2s.6-.6.7-.9c.2-.7.2-1.3.2-1.9v-3.6c0-1.2.1-2.3.3-3.5.1-.6.2-1.3.2-2zm-11.2-11.9-1.8.9c-1.2.6-2.3 1.3-3.3 2.2-.5.4-1 .9-1.5 1.5s-.8 1.3-1 2c-.4 1.4-.4 2.8-.3 4.2.2 2.7.8 5.2 1.1 7.7.1.6.1 1.1-.1 1.6-.1.4-.3.6-.7.7-.4.1-1 .1-1.6 0-.6-.1-1.2-.3-1.8-.4-.6-.2-1.3-.4-1.8-.6-.5-.2-.7-.6-.7-1.2.2-1.2.9-2.3 1.5-3.4 1.3-2.2 2.9-4.5 3.2-7.3.1-.6.2-1.1.3-1.6.2-.5.5-1 .8-1.5.7-.9 1.6-1.7 2.6-2.4s2.1-1.3 3.3-1.8c.6-.2 1.2-.5 1.8-.7.2-.1.5-.1.7-.2 0 .1-.1.1-.1.1l-.6.2zm10.1 20.8c-.1.6-.2 1.1-.4 1.6-.1.2-.2.4-.4.4-.1.1-.2 0-.5 0-.7-.1-1.3-.1-1.9 0h-.7c-.1-.1-.1 0-.1-.2-.1-.3-.2-.8-.2-1.4 0-.5 0-1.1.1-1.7.2-2.3.4-4.7.3-7.1-.1-2.4-.2-4.7-.6-7.1-.1-.6-.2-1.2-.4-1.8-.1-.3-.2-.5-.3-.7.4.6.8 1.1 1.2 1.8 1.2 1.9 2.3 3.9 3.1 6 .4 1.1.7 2 .6 3.2 0 1.2.1 2.4.2 3.6 0 1.1.1 2.3 0 3.4z" fill="#008197" stroke-width="none" opacity="1"></path><path id="SvgjsPath9544" d="M131.3 152.1c-1.2-3.3-3-2.5-4.6-4.1s-2.9-1.1-5.3-1.9c0 0 2.9 2.1 3.8 2.5s2.8 6.9 2.5 9.5c-.3 2.6-5.6 8.1-7.3 10.6-1.7 2.5-9.1 9.4-12.4 11.8-3.3 2.4-7 8.3-7 8.3s10.8-9.9 13.9-11.2c3-1.3 12.2-10.2 12.6-12.3.4-2.1 4-4.5 5.3-6.3s-.3-3.6-1.5-6.9zm34.9 29.5c1.1 1.7 3-.5 2.2-.9s-1.1-5.8-2.6-6.7-17.8.7-21.8.7-5.6 3.3-11.2 6.2c0 0 5.8-1.3 10-3s10.8-.9 15.3-.7c4.5.2 7 2.7 8.1 4.4zm4.5 19c.4-5.8.8-14.1.8-14.1s-1.4-.4-3.4.4-3.8 2.9-7.7 7.8c0 0 5-2.2 6.9-1.6 1.9.7 1.1 11 1.2 15.7.1 4.8 1.9 8.3 2.6 9.1.8.8-.8-11.5-.4-17.3zm-94.9-23.9c-1.1-1.3-7.1-16.1-7.5-19s.4-8.2.1-8.3c-3.8-1.9-4.6 7.8-.9 13.9 3.7 6.1 5.3 15.1 6.7 16.4 1.4 1.3 21.8 8.6 19.8 7.4-2-1.3-17.2-9.1-18.2-10.4zm-4.6 8.9c-.9-1.4-6.6-11.1-9-12.7-2.4-1.6-5.7-3.4-5.7-3.4 2.4 1.1 9.1 9.9 11.1 13.2s1.2 5.1 2.9 5.4c1.7.3 11.8 2.1 11.8 2.1s-10.2-3.2-11.1-4.6z" fill="#1fbad4" stroke-width="none" opacity="1"></path></g><g id="svga-group-head" transform="matrix(1,0,0,1,0,0)"><g id="svga-group-ears-left-move" transform="matrix(1,0,0,1,0,0)"><g id="svga-group-ears-left"><path id="SvgjsPath6480" d="M65.8 98.48s-4.2-8.27-8.66-11.42c-4.46-3.15-9.84-3.15-9.84-3.15s-3.02 2.1-1.97 12.6c0 0 4.46 10.76 12.47 14.7 0 0 5.77 1.31 8.66.66-.01-.01 2.09-6.18-.66-13.39z" fill="#d79468" stroke-width="none" opacity="1" stroke="none"></path><path id="SvgjsPath6481" d="M64.88 101.76s-3.67-7.87-6.04-9.84c-2.36-1.97-7.87-5.12-9.32-3.28-1.44 1.84-1.57 7.61-1.57 7.61s1.57 4.59 6.3 7.09c4.72 2.49 10.37 2.76 10.37 2.76l.26-4.34z" fill="#c87d4d" stroke-width="none" opacity="1" stroke="none"></path><path id="SvgjsPath6482" d="M44.99 93.25c.02 1.09.09 2.19.17 3.28v.02l.01.03a39.54 39.54 0 0 0 2.2 4.42c.82 1.43 1.75 2.79 2.75 4.11 1.02 1.3 2.15 2.51 3.38 3.64 1.25 1.1 2.62 2.07 4.12 2.83l.04.02.05.01c1.45.31 2.89.55 4.36.7.73.07 1.47.13 2.22.13.74-.01 1.5-.05 2.25-.23l.19-.05.05-.17c.33-1.14.5-2.27.58-3.42.08-1.15.08-2.3-.01-3.44a23.99 23.99 0 0 0-.52-3.38c-.23-1.12-.59-2.2-.99-3.27-.94-1.86-2.02-3.63-3.13-5.4-1.14-1.74-2.35-3.46-3.85-4.95-.75-.74-1.6-1.4-2.5-1.96-.91-.56-1.88-.98-2.87-1.35-1.99-.73-4.08-1.08-6.19-1.12h-.08l-.04.04c-.89.85-1.22 1.93-1.54 2.98-.29 1.06-.45 2.16-.54 3.25-.09 1.09-.13 2.18-.11 3.28zm.33-3.27c.11-1.08.28-2.15.59-3.19.15-.52.35-1.02.59-1.49.23-.44.53-.89.86-1.18 2.01.12 4.01.6 5.9 1.29 1.9.73 3.7 1.74 5.19 3.13 1.5 1.39 2.82 2.99 4.04 4.67 1.22 1.67 2.29 3.46 3.28 5.28.37 1.07.71 2.15.91 3.27.24 1.11.32 2.24.36 3.37.04 1.13-.04 2.26-.19 3.37-.14 1.04-.35 2.09-.65 3.07-.62.1-1.26.12-1.91.1-.71-.01-1.43-.06-2.14-.14-1.41-.15-2.83-.4-4.21-.7-1.39-.74-2.72-1.62-3.93-2.66-1.2-1.07-2.33-2.24-3.35-3.49a42.391 42.391 0 0 1-2.82-3.96c-.86-1.37-1.66-2.79-2.33-4.25l-.16-1.59c-.05-.54-.06-1.09-.09-1.63-.04-1.1-.03-2.18.06-3.27z" fill="#c87d4d" stroke-width="none" opacity="1" stroke="none"></path><path id="SvgjsPath6483" d="M49.2 91.53c.18-.69.39-1.36.67-2.03.07-.16.16-.33.26-.48.11-.15.23-.33.48-.37.45.02.72.22 1.06.37a18.3 18.3 0 0 1 3.48 2.44c.53.48 1.03 1.01 1.42 1.66.18.33.36.69.38 1.14.01.25-.01.36-.01.54l.01.51c.16 2.77.58 5.56.83 8.36l-.07.01c-.34-1.37-.61-2.75-.86-4.13-.26-1.39-.44-2.78-.55-4.2l-.03-.54v-.51c0-.26-.13-.56-.28-.84-.31-.57-.74-1.11-1.21-1.61-.94-1-2.01-1.94-3.22-2.61-.29-.16-.65-.33-.91-.33-.23.06-.41.43-.53.73-.26.63-.39 1.33-.52 2.01-.23 1.37-.39 2.77-.48 4.15-.02.34-.04.7-.02 1.01-.01.17.21.46.41.71.42.52.91 1.02 1.4 1.5.81.79 1.65 1.57 2.5 2.33.09-.91.18-1.82.24-2.74.04-.59.07-1.17.08-1.75.01-.53.01-1.07-.06-1.58-.15-.02-.33-.03-.5-.02a4.1 4.1 0 0 0-.69.1c-.46.1-.91.25-1.35.43l-.03-.07c.41-.25.85-.46 1.32-.62.23-.08.47-.15.72-.19.26-.04.49-.07.79-.01l.11.02.03.13c.15.61.18 1.21.22 1.81.02.6.02 1.19.01 1.79-.03 1.19-.08 2.37-.19 3.56l-.07.75-.58-.49c-1.08-.92-2.11-1.87-3.11-2.88-.49-.51-.98-1.03-1.43-1.61-.11-.15-.22-.3-.32-.47-.05-.09-.1-.18-.14-.29-.05-.11-.07-.28-.07-.37-.01-.39.03-.74.06-1.1.14-1.45.39-2.84.75-4.22z" fill="#a9561f" stroke-width="none" opacity="1" stroke="none"></path></g></g><g id="svga-group-ears-right-move" transform="matrix(1,0,0,1,0,0)"><g id="svga-group-ears-right"><path id="SvgjsPath6484" d="M134.2 98.48s4.2-8.27 8.66-11.42c4.46-3.15 9.84-3.15 9.84-3.15s3.02 2.1 1.97 12.6c0 0-4.46 10.76-12.47 14.7 0 0-5.77 1.31-8.66.66.01-.01-2.09-6.18.66-13.39z" fill="#d79468" stroke-width="none" opacity="1" stroke="none"></path><path id="SvgjsPath6485" d="M135.12 101.76s3.67-7.87 6.04-9.84c2.36-1.97 7.87-5.12 9.32-3.28 1.44 1.84 1.57 7.61 1.57 7.61s-1.57 4.59-6.3 7.09c-4.72 2.49-10.37 2.76-10.37 2.76l-.26-4.34z" fill="#c87d4d" stroke-width="none" opacity="1" stroke="none"></path><path id="SvgjsPath6486" d="M154.91 89.96c-.09-1.09-.25-2.18-.54-3.25-.32-1.05-.65-2.13-1.54-2.98l-.04-.04h-.08c-2.11.04-4.21.39-6.19 1.12-.99.37-1.96.79-2.87 1.35-.9.56-1.75 1.22-2.5 1.96-1.5 1.49-2.71 3.21-3.85 4.95-1.11 1.77-2.18 3.54-3.13 5.4-.39 1.07-.76 2.15-.99 3.27a23.99 23.99 0 0 0-.52 3.38c-.1 1.14-.09 2.29-.01 3.44s.25 2.28.58 3.42l.05.17.19.05c.75.18 1.51.22 2.25.23.75 0 1.48-.05 2.22-.13 1.47-.15 2.91-.39 4.36-.7l.05-.01.04-.02c1.5-.76 2.87-1.73 4.12-2.83 1.23-1.12 2.36-2.34 3.38-3.64 1-1.31 1.93-2.68 2.75-4.11.82-1.43 1.57-2.89 2.2-4.42l.01-.03v-.02c.07-1.09.14-2.18.17-3.28.01-1.09-.03-2.18-.11-3.28zm-.16 3.28c-.03.54-.04 1.09-.09 1.63l-.16 1.59c-.67 1.47-1.47 2.89-2.33 4.25-.87 1.37-1.8 2.7-2.82 3.96a29.855 29.855 0 0 1-3.35 3.49 21.554 21.554 0 0 1-3.93 2.66c-1.38.3-2.8.54-4.21.7-.71.08-1.43.13-2.14.14-.64.01-1.29 0-1.91-.1-.3-.98-.51-2.03-.65-3.07-.15-1.11-.22-2.24-.19-3.37.04-1.13.12-2.26.36-3.37.2-1.12.54-2.2.91-3.27.98-1.82 2.05-3.61 3.28-5.28 1.21-1.67 2.54-3.28 4.04-4.67 1.49-1.39 3.28-2.4 5.19-3.13 1.88-.69 3.89-1.17 5.9-1.29.34.29.63.74.86 1.18.25.47.44.97.59 1.49.3 1.03.48 2.11.59 3.19.08 1.1.09 2.18.06 3.27z" fill="#c87d4d" stroke-width="none" opacity="1" stroke="none"></path><path id="SvgjsPath6487" d="M150.8 91.53c-.18-.69-.39-1.36-.67-2.03-.07-.16-.16-.33-.26-.48-.11-.15-.23-.33-.48-.37-.45.02-.72.22-1.06.37a18.3 18.3 0 0 0-3.48 2.44c-.53.48-1.03 1.01-1.42 1.66-.18.33-.36.69-.38 1.14-.01.25.01.36.01.54l-.01.51c-.16 2.77-.58 5.56-.83 8.36l.07.01c.34-1.37.61-2.75.86-4.13.26-1.39.44-2.78.55-4.2l.03-.54v-.51c0-.26.13-.56.28-.84.31-.57.74-1.11 1.21-1.61.94-1 2.01-1.94 3.22-2.61.29-.16.65-.33.91-.33.23.06.41.43.53.73.26.63.39 1.33.52 2.01.23 1.37.39 2.77.48 4.15.02.34.04.7.02 1.01.01.17-.21.46-.41.71-.42.52-.91 1.02-1.4 1.5-.81.79-1.65 1.57-2.5 2.33-.09-.91-.18-1.82-.24-2.74-.04-.59-.07-1.17-.08-1.75-.01-.53-.01-1.07.06-1.58.15-.02.33-.03.5-.02.23.01.46.05.69.1.46.1.91.25 1.35.43l.03-.07c-.41-.25-.85-.46-1.32-.62a4.23 4.23 0 0 0-.72-.19c-.26-.04-.49-.07-.79-.01l-.11.02-.03.13c-.15.61-.18 1.21-.22 1.81-.02.6-.02 1.19-.01 1.79.03 1.19.08 2.37.19 3.56l.07.75.58-.49c1.08-.92 2.11-1.87 3.11-2.88.49-.51.98-1.03 1.43-1.61.11-.15.22-.3.32-.47.05-.09.1-.18.14-.29.05-.11.07-.28.07-.37.01-.39-.03-.74-.06-1.1a26.8 26.8 0 0 0-.75-4.22z" fill="#a9561f" stroke-width="none" opacity="1" stroke="none"></path></g></g><g id="svga-group-faceshape-wrap"><g id="svga-group-faceshape-single"><path id="SvgjsPath6518" d="M135.9 49.8c-6.7-7.4-11.3-13.2-28.8-17.3-1.8-.4-12.3-.4-14.1 0-17.5 4.1-22.1 9.9-28.8 17.3-7.1 7.8-9.5 29-9.5 29 0 9.6 1.3 32.3 13.3 47.2 17.8 22.2 32.1 22.3 32.1 22.3s14.2 0 32.1-22.3c12-14.9 13.3-37.6 13.3-47.2-.1 0-2.5-21.2-9.6-29z" fill="#d79468" stroke-width="none" opacity="1" stroke="none"></path><path id="SvgjsPath6519" d="M107.1 32.5c-1.8-.4-12.3-.4-14.1 0-17.5 4.1-22.1 9.9-28.8 17.3-7.1 7.8-9.5 29-9.5 29 0 9.6 1.3 32.3 13.3 47.2 17.8 22.2 32.1 22.3 32.1 22.3s14.2 0 32.1-22.3c12-14.9 13.3-37.6 13.3-47.2 0 0-2.4-21.2-9.5-29-6.9-7.4-11.5-13.2-28.9-17.3zM142 63.8c.7 2.5 1.1 5 1.6 7.5.4 2.5.7 5 1 7.5-.2 7.4-1.3 14.8-3 22-.9 3.6-1.9 7.1-3.3 10.5-.7 1.7-1.4 3.4-2.2 5s-1.7 3.2-2.7 4.7l-1.5 2.2c-.3.4-3.4 4.2-3.4 4.2l-3.7 4.1-6.1 5.7c-2.8 2.3-5.8 4.5-9 6.2l-1.2.6-1.2.6c-.8.4-1.6.7-2.5 1l-1.3.4c-.4.1-.8.2-1.3.3-.4.1-1.71.43-2.9.4 0 0-1.4-.2-1.9-.3-.4-.1-.9-.2-1.3-.3l-1.3-.4c-.8-.3-1.7-.6-2.5-1l-1.2-.5-1.2-.6c-3.2-1.6-6.3-3.7-9.1-6l-4.1-3.6-3.9-3.9-1-1-.9-1-1.8-2.1c-1.2-1.4-2.3-2.8-3.3-4.4-1-1.5-2-3.1-2.8-4.8-.8-1.6-1.6-3.3-2.3-5.1-.7-1.7-1.3-3.5-1.8-5.3s-1-3.6-1.4-5.4-.8-3.6-1-5.5c-.3-1.8-.5-3.7-.7-5.5-.4-3.7-.5-7.4-.5-11.1.3-2.3.8-4.6 1.2-6.9.5-2.3 1.1-4.6 1.7-6.8.7-2.2 1.4-4.5 2.3-6.6.4-1.1.9-2.1 1.4-3.1s2.59-4.47 6.3-8.1c1.6-1.7 3.3-3.3 5-4.7 3.5-2.8 7.7-4.9 12-6.5l1.6-.6c6.69-2.31 10.6-2.2 11.8-2.3 2.3-.1 4.71-.26 7-.1 3.16.22 6.8 1.4 6.8 1.4 2.3.6 4.5 1.3 6.7 2.3.3.1 1.6.7 1.6.7.5.3 2.6 1.3 3.1 1.7.5.3 5.3 3.7 6.9 5.4 1.7 1.7 3.3 3.4 4.9 5.2 1.7 1.9 2.9 4.2 3.9 6.6 1.1 2.4 1.9 4.8 2.5 7.3z" fill="#a9561f" stroke-width="none" opacity="1" stroke="none"></path></g></g><g id="svga-group-mouth-single-move" transform="matrix(1,0,0,1,0,0)"><g id="svga-group-mouth-single"><path id="SvgjsPath6469" d="M90.88 126.51s-.27 1.69.86 2.88c1.14 1.19 11.47 2.31 17.34.11 5.87-2.2 6.74-5.28 6.74-5.28s-5.39.45-7.07.11c-1.69-.34-7.66-1.1-8.9-1s-3.37.96-4.36 1.36-4.61 1.82-4.61 1.82z" fill="#904539" stroke-width="none" opacity="1" stroke="none"></path><path id="SvgjsPath6470" d="M87.57 126.62s1.87 1.37 4.84.17c2.96-1.19 6.58-2.22 8.13-2.32s7.17 1.35 10.39 1.07c3.22-.29 6.81-1.1 8.21-3.3s.26-3.18-.22-2.66c-.48.51-.69 4.46-3.65 4.22-2.96-.24-6.51-2.62-9.97-3.46-3.46-.83-4.82.93-5.53 1.53s-1.58.42-3.12.41c-1.54-.02-4.73.33-5.43 2.15-.71 1.82-2.27 2.85-3.65 2.19z" fill="#883b2f" stroke-width="none" opacity="1" stroke="none"></path></g></g><g id="svga-group-eyes-left-move" transform="matrix(1,0,0,1,0,0)"><g id="svga-group-eyes-left" transform="matrix(0.9499997000000001,0,0,0.9499997000000001,3.927523336116778,4.51502686111678)"><g id="svga-group-eyesback-left"><path id="SvgjsPath7972" d="M80.2 77.2c7.5 0 13.5 5.8 13.5 13s-6 13-13.5 13-13.5-5.8-13.5-13 6-13 13.5-13z" fill="#ffffff" stroke-width="none" opacity="1"></path></g><g id="svga-group-eyesiriswrapper-left" transform="matrix(1,0,0,1,0,0)"><g id="svga-group-eyesiriscontrol-left" transform="matrix(1,0,0,1,0,0)"><g id="svga-group-eyesiris-left"><path id="SvgjsPath9807" d="M80.2 84.9c2.9 0 5.3 2.4 5.3 5.3s-2.4 5.3-5.3 5.3-5.3-2.4-5.3-5.3 2.4-5.3 5.3-5.3z" fill="#888da0" stroke-width="none" opacity="1" stroke="none"></path><path id="SvgjsPath9808" d="M80.2 95.8c-3.1 0-5.6-2.5-5.6-5.6s2.5-5.6 5.6-5.6 5.6 2.5 5.6 5.6c0 3.1-2.5 5.6-5.6 5.6zm0-10.6c-2.8 0-5.1 2.3-5.1 5.1s2.3 5.1 5.1 5.1 5.1-2.3 5.1-5.1c-.1-2.9-2.3-5.1-5.1-5.1z" fill="#545e81" stroke-width="none" opacity="1" stroke="none"></path><path id="SvgjsPath9809" d="M80.2 87.3c1.6 0 2.9 1.3 2.9 2.9s-1.3 2.9-2.9 2.9-2.9-1.3-2.9-2.9 1.3-2.9 2.9-2.9z" fill="#000000" stroke-width="none" opacity="1"></path><path id="SvgjsPath9810" d="M78.9 87.3c.5 0 1 .4 1 1s-.4 1-1 1-1-.4-1-1 .5-1 1-1zm3.3 4.6c.2 0 .4.2.4.4s-.2.4-.4.4-.4-.2-.4-.4.2-.4.4-.4z" fill="#ffffff" stroke-width="none" opacity="1"></path></g></g></g><g id="svga-group-eyesfront-left"><path id="SvgjsPath7980" d="M80.2 76.7c-7.8 0-14.1 6.1-14.1 13.6s6.3 13.6 14.1 13.6 14.1-6.1 14.1-13.6S88 76.7 80.2 76.7zM75 96.2c-1.7-.1-8.1-3.7-8-4.7s7.6-9.2 10-8.5c2.5.7 16 11.3 16 11.3s-16.3 2-18 1.9z" fill="#d79468" stroke-width="none" opacity="1" stroke="none"></path><path id="SvgjsPath7981" d="M94 95.9s-8.1-5.6-9.4-6.8c-1-1-6.5-4.1-10-3.3-.9.2-2.7 1.2-4 2.4S67.4 91 67.4 91s.2-.7 4-5.3c3.8-4.5 10-3.9 11.3-3.6 1.3.4 3.5 1.1 8.2 7.6l3.1 6.2z" fill="#cf885a" stroke-width="none" opacity="1" stroke="none"></path><path id="SvgjsPath7982" d="M92.7 92.8c-.5-1.1-1-2.2-1.5-3.2-.7-1.1-1.5-2.1-2.3-3.1s-1.7-2-2.7-2.8c-.5-.4-1-.8-1.6-1.2-.6-.3-1.2-.6-1.8-.7-.7-.2-1.3-.2-1.9-.2s-1.3 0-1.9.1c-2.5.3-5.1 1.3-7 3.2l-.3.3c-.4-.1-.8-.2-1.1-.2-1.7-.4-3-.9-3-.9s.3 2.1 1.9 2.9c0 0-2.9-.1-5.1-.9 0 0 1.8 2.9 2.9 3.3 0 0-2.8-.6-4.5-1.1 0 0 2.1 3.8 4.1 3.8.2.3.4.5.7.7 1 .8 2.1 1.5 3.2 2.1s2.2 1.2 3.5 1.6c.2.1.3.1.5.1h.5c.3 0 .6 0 .9-.1.6-.1 1.2-.1 1.9-.2 2.5-.2 5-.6 7.5-.9 2-.3 4.1-.6 6.1-.9l.6.4.8.5.4.3.2.1.1.1s.1.1.2.1c-.4-1.1-.9-2.1-1.3-3.2zm-14.6 3c-.6.1-1.2.1-1.9.2h-.9c-.3 0-.6 0-.9-.1-1.2-.3-2.3-.9-3.4-1.5s-2.2-1.2-3.2-2c-.2-.2-.5-.4-.6-.7.2-.3.8-.9 1.5-1.7 1.5-1.4 3.1-2.9 4.9-3.7 1.1-.6 2.4-.4 3.6-.2 1.2.3 2.4.7 3.6 1.2s2.3 1.1 3.3 1.8c1 .9 2.1 1.6 3.2 2.4s2.2 1.5 3.3 2.2l.9.6c-4.4.5-8.9 1-13.4 1.5zm15.7-.1-.2-.2-.4-.3-.8-.6-1.6-1.2-3.2-2.4c-1-.8-2.1-1.6-3.1-2.5-.5-.5-1.1-.8-1.7-1.2-.6-.3-1.2-.7-1.8-.9-1.2-.6-2.5-1-3.8-1.2-.7-.1-1.3-.2-2-.1-.3 0-.7.1-1 .2-.6-.1-1.3-.2-2-.3 1.8-1.7 4.2-2.5 6.6-2.7.6-.1 1.2-.1 1.8 0s1.2.1 1.8.2c1.2.3 2.2.9 3.1 1.8 1.9 1.6 3.5 3.6 5.1 5.6.5 1 1 1.9 1.6 2.9s1.1 2 1.7 3l-.1-.1z" fill="#000000" stroke-width="none" opacity="1" stroke="none"></path></g></g></g><g id="svga-group-eyes-right-move" transform="matrix(1,0,0,1,0,0)"><g id="svga-group-eyes-right" transform="matrix(0.9499997000000001,0,0,0.9499997000000001,6.012761715697081,4.51502686111678)"><g id="svga-group-eyesback-right"><path id="SvgjsPath7973" d="M119.8 77.2c7.5 0 13.5 5.8 13.5 13s-6 13-13.5 13-13.5-5.8-13.5-13 6-13 13.5-13z" fill="#ffffff" stroke-width="none" opacity="1"></path></g><g id="svga-group-eyesiriswrapper-right" transform="matrix(1,0,0,1,0,0)"><g id="svga-group-eyesiriscontrol-right" transform="matrix(1,0,0,1,0,0)"><g id="svga-group-eyesiris-right"><path id="SvgjsPath9811" d="M119.8 85.5c2.6 0 4.7 2.1 4.7 4.7s-2.1 4.7-4.7 4.7-4.7-2.1-4.7-4.7 2.1-4.7 4.7-4.7z" fill="#888da0" stroke-width="none" opacity="1" stroke="none"></path><path id="SvgjsPath9812" d="M119.8 95.1c-2.7 0-4.9-2.2-4.9-4.9s2.2-4.9 4.9-4.9 4.9 2.2 4.9 4.9-2.2 4.9-4.9 4.9zm0-9.3c-2.4 0-4.4 2-4.4 4.4s2 4.4 4.4 4.4 4.4-2 4.4-4.4c0-2.4-2-4.4-4.4-4.4z" fill="#545e81" stroke-width="none" opacity="1" stroke="none"></path><path id="SvgjsPath9813" d="M119.8 87.7c1.4 0 2.5 1.1 2.5 2.5s-1.1 2.5-2.5 2.5-2.5-1.1-2.5-2.5 1.1-2.5 2.5-2.5z" fill="#000000" stroke-width="none" opacity="1"></path><path id="SvgjsPath9814" d="M118.7 87.7c.5 0 .9.4.9.9s-.4.9-.9.9-.9-.4-.9-.9.4-.9.9-.9zm2.9 4c.2 0 .3.2.3.3s-.2.3-.3.3-.3-.2-.3-.3.1-.3.3-.3z" fill="#ffffff" stroke-width="none" opacity="1"></path></g></g></g><g id="svga-group-eyesfront-right"><path id="SvgjsPath7983" d="M119.8 76.7c-7.8 0-14.1 6.1-14.1 13.6s6.3 13.6 14.1 13.6 14.1-6.1 14.1-13.6-6.3-13.6-14.1-13.6zm3.1 18.9c-1.6.2-12.7-2-12.7-2s10.3-8.1 12.5-8.8 6.6-1.9 6.9 5.9c0 1-5.2 4.8-6.7 4.9z" fill="#d79468" stroke-width="none" opacity="1" stroke="none"></path><path id="SvgjsPath7986" d="M105.7 95.7s4.6-2.4 6.1-3.2 10.4-6.3 11.2-6.7 3.6-.4 4.9.4c2.4 1.5 1.7 4.5 1.7 4.5s2.1-1.7-1.4-5.7-11.3-2.9-12.4-2.5c-1.2.4-3.7 1.1-7.8 7.2l-2.3 6z" fill="#cf885a" stroke-width="none" opacity="1" stroke="none"></path><path id="SvgjsPath7987" d="M130.3 88.4c.4-.2 3.2-3 3.2-3-1.6.8-3.7.5-4.3.4l-.1-.1c1.1-.8 2.2-2.8 2.2-2.8-.5.5-1.8 1-3.2 1.5-.2-.2-.4-.4-.6-.5-1-.8-2.3-1.3-3.5-1.7-1.2-.3-2.5-.5-3.8-.5s-2.5.1-3.8.3c-.2 0-.3.1-.5.1-.1 0-.2.1-.3.1l-.2.1-.9.3c-.6.3-1.2.6-1.7 1-2.1 1.7-3.7 3.8-5.1 6.1-.4 1-.7 2.1-1 3.1s-.6 2-1 2.9l3.3-1.5c.4-.2.9-.4 1.3-.6 1.9.5 3.8.9 5.7 1.2 1.9.4 3.8.7 5.8 1 .2 0 .5.1.8.1.2 0 .6 0 .8-.1.5-.2.9-.4 1.4-.7.9-.5 1.7-1.1 2.5-1.7.4-.3.8-.6 1.2-1 .4-.3.8-.7 1.1-1.1 0-.1.1-.1.1-.2l.1-.1.3-.3c1-.6 3.8-2.2 4.6-2.6-1 .4-4.3.3-4.4.3zm-24.6 7.3c.4-1 .8-2 1.3-2.9l1.2-2.7c1.5-2.1 3.2-4.1 5.1-5.6.5-.4 1-.7 1.5-.9.3-.1.5-.2.8-.3l.2-.1c.1 0 .1 0 .2-.1.1 0 .3-.1.4-.1 1.2-.2 2.4-.3 3.6-.3s2.4.1 3.6.4 2.3.7 3.3 1.4c.1.1.2.1.3.2-.9.3-1.8.5-2.5.7h-1.1c-.3 0-.7.1-1 .2s-.6.3-.8.4c-1.1.6-2.2 1.2-3.3 1.9-2.2 1.3-4.3 2.6-6.4 4-1.1.6-2.1 1.2-3.2 1.8-.9.7-2 1.4-3.2 2zm23.7-4.9c0 .1-.1.2-.2.3-.6.8-1.4 1.4-2.2 2-.8.6-1.6 1.1-2.5 1.6-.4.2-.9.5-1.3.6-.2.1-.4.1-.7.1-.2 0-.5 0-.7-.1-3.8-.5-7.7-1.2-11.5-1.7.7-.3 1.4-.7 2.1-1 2.2-1.2 4.3-2.5 6.5-3.8 1.1-.7 2.1-1.3 3.2-2 .3-.2.5-.3.8-.5.2-.2.5-.2.8-.2.6-.1 1.2-.1 1.8-.1.4 0 .8.1 1.1.1 1.2.3 2 1 2.4 1.7 0 .1.1.3.1.4.1.5.2 1 .2 1.5v.8l.1.3zm5.2-2.7c.1 0 .1 0 .1-.1.2 0 .1 0-.1.1z" fill="#000000" stroke-width="none" opacity="1" stroke="none"></path></g></g></g><g id="svga-group-facehighlight-single"></g><g id="svga-group-eyebrows-left-move" transform="matrix(1,0,0,1,0,0)"><g id="svga-group-eyebrows-left-rotate" transform="matrix(1,1.7453292519943295e-9,-1.7453292519943295e-9,1,1.2995914744351467e-7,-1.3809918186780124e-7)"><g id="svga-group-eyebrows-left"><path id="SvgjsPath6660" d="M64.55 76.13s7.64-5.4 8.86-5.62 19.49 3.09 19.95 4.12c.46 1.03-.07 3.12-1.4 3.76-1.33.64-12.63-3.98-17.91-5.17-2-.45-9.5 2.91-9.5 2.91z" fill="#433845" stroke-width="none" opacity="1" stroke="none"></path><path id="SvgjsPath6661" d="M64.52 76.15c.01.02.08.01.08 0l.03-.01.06-.02.12-.05.23-.09.47-.18.94-.35c.63-.23 1.26-.45 1.89-.67 1.26-.44 2.54-.84 3.83-1.12.32-.07.64-.12.96-.16.32-.03.63-.04.89.02.64.16 1.28.34 1.92.54 1.27.39 2.55.8 3.81 1.23 2.54.85 5.07 1.71 7.65 2.49.64.19 1.29.39 1.95.55.66.16 1.32.33 2.04.38.19 0 .37.02.62-.06l.09-.03.06-.04.12-.07c.08-.04.15-.1.23-.16.29-.23.51-.51.69-.8.34-.59.52-1.24.53-1.9 0-.33-.03-.67-.16-.99-.02-.05-.02-.07-.06-.13-.04-.07-.09-.09-.13-.13-.08-.06-.16-.1-.24-.14-.16-.08-.32-.13-.48-.19-.65-.22-1.3-.39-1.95-.55-1.31-.33-2.62-.61-3.94-.9-2.63-.58-5.25-1.18-7.9-1.68-1.33-.24-2.66-.47-4.01-.63-.34-.04-.68-.08-1.03-.09-.09 0-.18-.01-.28-.01-.05 0-.1 0-.17.01-.06.01-.1.03-.15.04-.21.06-.36.14-.52.22-.62.32-1.18.67-1.74 1.02-1.12.71-2.19 1.48-3.27 2.24-.54.38-1.07.77-1.59 1.17l-.79.59-.39.3-.19.15-.1.08c-.05.01-.1.08-.12.12zm.92-.49-.34.16.32-.2.83-.53 1.67-1.06c1.11-.71 2.23-1.41 3.36-2.09.56-.34 1.14-.67 1.71-.95l.21-.1c.07-.04.13-.04.19-.07l.09-.03h.08c.07 0 .15 0 .23.01.32.02.65.06.98.1 1.32.18 2.65.38 3.98.59 1.33.2 2.66.4 3.99.62 1.33.22 2.65.45 3.97.72 1.32.27 2.63.57 3.92.92.65.17 1.29.36 1.9.6.15.06.3.12.44.19.07.04.13.07.18.11.02.02.05.04.04.04.01 0 .02.06.03.08.09.27.11.57.09.87a3.7 3.7 0 0 1-.57 1.69c-.17.25-.37.47-.6.64-.06.04-.12.09-.18.12l-.09.05-.05.03h-.03c-.07.03-.24.02-.38.01-.62-.06-1.27-.24-1.91-.42-.64-.18-1.28-.38-1.91-.58-2.54-.82-5.05-1.74-7.61-2.57-1.28-.41-2.56-.82-3.86-1.17-.65-.18-1.31-.35-1.98-.49-.4-.09-.77-.05-1.12 0-.35.05-.69.12-1.02.2-1.33.34-2.58.82-3.83 1.32-.62.25-1.23.52-1.84.79l-.89.4z" fill="#332636" stroke-width="none" opacity="1" stroke="none"></path></g></g></g><g id="svga-group-eyebrows-right-move" transform="matrix(1,0,0,1,0,0)"><g id="svga-group-eyebrows-right-rotate" transform="matrix(1,1.7453292519943295e-9,-1.7453292519943295e-9,1,1.365545756470965e-7,-2.1299837271726574e-7)"><g id="svga-group-eyebrows-right"><path id="SvgjsPath6662" d="M135.56 80.74s-6.82-5.75-7.95-6.03c-1.13-.28-18.27 2.16-18.75 3.17-.48 1.01-.1 3.12 1.11 3.82s11.94-3.37 16.91-4.31c1.88-.36 8.68 3.35 8.68 3.35z" fill="#433845" stroke-width="none" opacity="1" stroke="none"></path><path id="SvgjsPath6663" d="m135.5 80.64-.09-.08-.17-.16-.35-.32-.7-.63c-.47-.42-.94-.84-1.42-1.24-.96-.81-1.92-1.62-2.93-2.39-.5-.38-1.01-.76-1.56-1.1-.14-.08-.28-.17-.47-.24-.05-.02-.09-.04-.14-.05-.06-.01-.12-.02-.16-.02-.09-.01-.18-.01-.26-.01-.33 0-.64.02-.96.05-1.26.1-2.51.26-3.76.44-2.49.37-4.96.85-7.43 1.3-1.24.23-2.47.45-3.7.72-.61.14-1.23.28-1.84.46-.15.05-.31.1-.46.17-.08.03-.15.07-.23.13-.04.04-.08.06-.13.12-.04.06-.04.09-.06.13-.13.32-.18.65-.2.98-.02.66.12 1.32.4 1.93.15.3.34.59.6.83.06.06.13.12.2.17l.11.08.06.04.08.04c.23.09.39.08.57.09.68-.02 1.29-.15 1.92-.28.62-.13 1.23-.3 1.84-.46 2.43-.66 4.83-1.4 7.24-2.13 1.2-.37 2.4-.72 3.6-1.05.6-.16 1.21-.32 1.81-.44.24-.06.54-.03.83.02.29.05.59.12.89.21 1.18.35 2.35.81 3.5 1.3.57.25 1.15.5 1.72.76l.85.4.43.2.21.1.11.05.05.03.03.01c-.01 0 .06.02.07 0a.339.339 0 0 0-.1-.16zm-1.56-.86c-.55-.3-1.11-.6-1.67-.88-1.13-.55-2.27-1.1-3.49-1.5-.31-.1-.62-.18-.94-.25-.32-.06-.67-.11-1.04-.05-.63.11-1.25.25-1.86.39-1.23.29-2.44.64-3.65.99-2.41.71-4.8 1.5-7.2 2.21-.6.17-1.2.34-1.81.49-.6.15-1.21.29-1.79.33-.13.01-.29 0-.36-.03l-.03-.01-.04-.03-.08-.06a.653.653 0 0 1-.16-.13c-.21-.18-.39-.41-.53-.67a3.91 3.91 0 0 1-.44-1.71c0-.3.03-.6.13-.86.01-.03.03-.08.03-.08l.04-.04c.05-.04.11-.07.18-.1.13-.07.28-.12.42-.17.58-.21 1.19-.36 1.8-.5 1.22-.29 2.45-.53 3.69-.73 1.24-.21 2.48-.37 3.73-.53 1.25-.16 2.49-.3 3.74-.43 1.25-.14 2.49-.28 3.73-.4.31-.03.62-.05.92-.06h.21c.03 0 .06.01.07.01.02.01.05.02.08.03.06.03.11.04.17.08l.19.11c.52.31 1.04.66 1.54 1.03 1.01.73 2.02 1.48 3.02 2.24l1.5 1.14.75.57.28.22-.31-.18-.82-.44z" fill="#332636" stroke-width="none" opacity="1" stroke="none"></path></g></g></g><g id="svga-group-nose-single-move" transform="matrix(1,0,0,1,0,0)"><g id="svga-group-nose-single"><path id="SvgjsPath6634" d="M94.83 88.79c.36 1.08.71 2.16 1.04 3.24.32 1.09.63 2.18.92 3.28.29 1.1.62 2.19.77 3.33.15 1.13.25 2.28.12 3.43l-.08.01c-.29-1.11-.55-2.2-.8-3.3-.25-1.1-.39-2.22-.61-3.33-.21-1.11-.45-2.22-.69-3.32-.23-1.11-.48-2.22-.74-3.32l.07-.02z" fill="#a9561f" stroke-width="none" opacity="1" stroke="none"></path><path id="SvgjsPath6635" d="M101.1 102.15c-1.12.07-2.22.27-3.28.6-1.06.32-2.09.74-3.03 1.29-.47.27-.9.59-1.21.97-.32.38-.44.82-.3 1.24.13.42.47.83.87 1.16.41.35.86.7 1.3 1.03.88.68 1.78 1.34 2.7 1.94.23.15.46.29.7.42.23.12.48.25.68.3.1.03.18.02.28.01l.17-.04.18-.06c.24-.09.48-.22.71-.35.95-.55 1.83-1.23 2.78-1.86.12-.08.24-.15.38-.22.06-.04.15-.06.24-.08.09-.01.18-.02.26.01.33.06.57.24.79.42.44.38.79.83 1.04 1.34-.32-.46-.72-.86-1.17-1.17-.22-.15-.47-.28-.7-.3a.5.5 0 0 0-.31.08c-.1.06-.22.15-.32.23-.87.68-1.71 1.44-2.68 2.06-.25.15-.49.31-.78.43-.14.07-.29.12-.46.16-.17.03-.38.05-.55 0-.35-.08-.6-.21-.87-.34a25.2 25.2 0 0 1-.75-.42c-.97-.6-1.89-1.26-2.79-1.94-.45-.35-.88-.7-1.32-1.07-.45-.39-.88-.86-1.08-1.52-.09-.32-.11-.69 0-1.02.04-.17.12-.32.2-.46.09-.13.17-.28.28-.39.42-.47.92-.8 1.44-1.06a12.51 12.51 0 0 1 6.6-1.39z" fill="#a9561f" stroke-width="none" opacity="1" stroke="none"></path><path id="SvgjsPath6636" d="M108 104.85c.54.17 1.02.5 1.4.96.19.23.35.48.45.82.08.32.07.63.04.93-.07.59-.28 1.12-.54 1.62-.27.49-.6.95-1.05 1.3.18-.53.34-1.03.49-1.53.14-.5.27-1 .33-1.48.03-.24.04-.48.01-.68-.02-.18-.13-.42-.23-.64-.24-.44-.55-.86-.9-1.3z" fill="#a9561f" stroke-width="none" opacity="1" stroke="none"></path><path id="SvgjsPath6637" d="M92.99 106.65c-.37.37-.76.7-1.11 1.04-.17.17-.34.34-.44.51-.03.04-.04.08-.06.11-.02.04-.01.06-.03.08.01.01.01.01 0 .01v.01l.01.04c.01.05.02.1.03.16.09.46.21.96.3 1.45.09.5.17 1 .18 1.54-.32-.43-.55-.89-.76-1.36-.2-.48-.38-.95-.49-1.49l-.03-.21-.01-.06v-.09c0-.06.01-.12.02-.18.06-.2.15-.35.26-.47.21-.23.42-.4.66-.54.46-.26.95-.45 1.47-.55z" fill="#a9561f" stroke-width="none" opacity="1" stroke="none"></path><path id="SvgjsPath6638" d="M93.22 110.41c.11-.29.29-.5.5-.69.21-.18.44-.33.7-.44.26-.1.54-.17.84-.16.29.01.6.09.82.31-.29.1-.5.2-.72.29-.22.09-.43.19-.65.28-.45.17-.9.35-1.49.41z" fill="#a9561f" stroke-width="none" opacity="1" stroke="none"></path><path id="SvgjsPath6639" d="M101.51 103.66c-1.64-.67-4.02.54-5.47 1.27-1.48.74-.18 2.87 1.28 2.2.79-.36 1.61-.64 2.43-.91.78-.25 1.56-.42 2.18-.96.6-.53.19-1.35-.42-1.6z" fill="#dfa077" stroke-width="none" opacity="1" stroke="none"></path></g></g><g id="svga-group-hair-front"><path id="SvgjsPath6699" d="m125.2 36.6-2.9-3.2s-7.5-5.8-12.1-5.3-37.8-.5-42.2 4.4c-4.4 4.8-21.3 26.4-21.1 32.2.2 5.8 1.7 16.2 2.2 18.4s6.1 1.4 6.3 2.9c.2 1.4.7 7 .7 10.2s-4.8 4.8-5.3 6.1 2.7 13.1 3.2 16c.5 2.9 6.8 2.7 6.8 5.6 0 2.9-4.1 2.9-4.1 2.9l3.2 8s0-3.1.5-4.6 6.3-.7 6.1-3.2c-.2-2.4.5-6.3 0-9.2-.5-2.9-5.8-1.9-7.3-2.2s-.7-6.8.2-9.7c1-2.9 6.8-5.3 6.8-5.3s1.7-8.7 1.4-10.2c-.2-1.4-8.2-10.2-7.8-12.1.5-1.9 6.5-15.5 9-15.8 2.4-.2 37.3-2.4 42.4-5.3 5.1-2.9 12.8-14.3 12.8-14.3l1.2-6.3m-.5 0 7.5.8s6.8 5.8 8 8.2c1.2 2.4 8.7 15.5 8.7 19.6 0 4.1-1 17.5-1 17.5s-2.4 12.6-2.7 13.8-5.6 7.3-5.6 9.7 1.9 9.4 1.9 9.4l-4.6-5.3s-.7-5.8-.7-7.8 3.1-6.3 3.9-6.5.5-16 .5-16-8.2-12.6-10.2-16.2-6.3-14.1-6.3-14.1l-.9-6.6 1.5-6.5zM82.9 143.8s-8.7-.7-11.1-.2c-2.4.5-6.4 2.8-6.4 2.8-1.5-2.6-5.4-6.5-6.8-7.4-1.5-.9-2.5-.3-2.5-.3s-5.2 10.3-5.2 11.1 2.3 8.4 2.3 8.4l-5.8 7.4 3.3 6.2c-1.5 1.8-4 5-4.2 5.3-.4.4 1.3 10.7 2.3 12.6.9 1.9 12.8 9.3 12.8 9.3l.8 5.4s2.1-5.2 2.1-6.9-1.1-4.8-1.1-4.8 3.4 4.7 3.6 5.5c.2.9-.9 11.1-.9 11.1l3.2 4.1s-1.1-3.5-.6-5.5 9-19.6 9-19.6-3.2-13.1-7.2-15.9l-3.9-1.4c2-1.1 3.8-2.2 4.5-2.9 1.7-1.6 4.3-7.4 4.3-7.4 3.9-1.6 7.1-6.3 7.1-6.3 1.6-3.3.4-10.6.4-10.6z" fill="#e8e6e4" stroke-width="none" opacity="1" stroke="none"></path><path id="SvgjsPath6700" d="M109.6 47.9c-.9.7-1.8 1.3-2.7 1.9-.5.3-.9.4-1.5.5-.6.1-1.1.2-1.7.3-2.2.3-4.5.5-6.7.8-9 .9-17.9 1.9-26.9 2.9-1.1.1-2.2.3-3.4.4-.3 0-.6.1-.9.2-.3.1-.5.3-.7.6-.4.4-.7.9-1.1 1.3-1.3 1.9-2.4 3.8-3.6 5.8-2.3 3.9-4.5 7.8-6.5 11.9l-.8 1.5c-.1.3-.2.5-.4.9v.4c0 .1 0 .2.1.3.1.2.1.3.2.4.6 1.1 1.3 1.9 2 2.8 1.4 1.8 2.9 3.4 4.4 5.2.7.9 1.4 1.7 2.1 2.6.3.4.7.9.9 1.4.3.4.5.9.6 1.3.3 2 .1 4.2-.3 6.3-1.8.9-3.5 1.8-5.2 2.8-.9.5-1.8 1.1-2.6 1.8-.4.3-.8.7-1.2 1.2-.2.2-.4.5-.4 1l.1.8c.7 4.1 1.3 8.1 2.1 12.2v.2l.2.1c1.7.6 3.4 1.2 5.1 1.9l1.2.6c.1.1.2.1.2.2s.1.2.1.3c.1.2.1.4.2.7.2.9.2 1.8.3 2.7h.1c0-.9-.1-1.8-.2-2.7 0-.2-.1-.4-.1-.7 0-.1-.1-.2-.1-.3l-.3-.3c-.4-.3-.8-.5-1.2-.7-1.6-.8-3.2-1.4-4.9-2-.5-4-1.1-8-1.7-12l-.1-.8.2-.4 1-1c.8-.6 1.7-1.1 2.5-1.7 1.8-1 3.6-2 5.4-2.9l.2-.1v-.2c.4-2.3.7-4.6.4-6.9-.2-.7-.5-1.2-.8-1.7-.3-.5-.7-1-1-1.4-.7-.9-1.4-1.8-2.2-2.6-1.5-1.7-3-3.4-4.4-5.1-.7-.9-1.4-1.7-2-2.6-.1-.2-.2-.5-.2-.5 0-.1.2-.5.3-.7l.7-1.5c2-4 4-8.1 6.2-12 1.1-2 2.2-3.9 3.5-5.8.3-.5.7-.9 1-1.3.2-.2.4-.4.6-.5.3 0 .5-.1.8-.2 1.1-.2 2.2-.3 3.3-.4 9-.9 18-1.3 26.9-2.3 2.2-.3 4.5-.5 6.7-.8.6-.1 1.1-.2 1.7-.3.6-.1 1.2-.3 1.7-.6 1-.6 1.9-1.3 2.8-2 3.5-2.8 6.9-5.8 10.2-8.9l-.1-.1c-3.1 2.2-6.6 5.1-10.1 7.8zm40 15.7c-.5-2.2-1.4-4.1-2.3-6.1-1.8-3.9-3.9-7.6-5.9-11.2-.3-.5-.5-.9-.8-1.4-.3-.5-.7-.9-1-1.3-.7-.8-1.5-1.6-2.3-2.3-1.6-1.5-3.1-2.9-4.8-4.2l-.1-.1h-.1l-7-.4-2.8-3.2c-1.4-1.1-2.9-2.1-4.4-3-1.6-.9-3.2-1.7-4.9-2.2-.9-.2-1.8-.4-2.8-.4-.9.1-1.8.1-2.6.1h-5.3c-7.1 0-14.2 0-21.4.7-1.8.2-3.6.4-5.3.6-1.8.3-3.6.6-5.3 1.2-.9.3-1.8.7-2.6 1.4l-.5.5-.4.5-.9 1c-1.2 1.4-2.3 2.8-3.4 4.2-4.7 5.6-9 11.3-12.7 17.5-.9 1.5-1.8 3.1-2.5 4.8-.4.8-.7 1.7-1 2.6-.1.5-.2.9-.3 1.4v1.4c.3 3.6.7 7.1 1.2 10.6.3 1.8.5 3.5.8 5.3.1.4.2.9.3 1.3 0 .1 0 .2.1.3 0 .1.1.3.2.4.2.2.3.5.6.6.9.6 1.8.7 2.7.9.9.2 1.8.3 2.5.6l.2.1c0 .1.1.1.1.1s.1.3.1.5l.2 1.3c.2 1.8.3 3.5.4 5.3 0 .9.1 1.8.1 2.7 0 .9-.2 1.6-.7 2.3-1 1.4-2.6 2.2-4 3.3-.2.2-.4.3-.5.6-.1.1-.1.3-.1.4v.4c0 .5.1.9.1 1.4.1.9.3 1.8.5 2.6.3 1.8.8 3.5 1.1 5.2.4 1.7.8 3.5 1.1 5.2.1.4.1.8.3 1.3l.1.4.2.3c.1.2.3.4.5.6.8.7 1.6 1 2.4 1.4.8.3 1.7.7 2.3 1.1.4.2.6.5.8.7.2.3.2.6.2.9-.1 1.5-2 2.1-3.6 2.1h-.8l.4 1.1 3 8 1.3 3.3.1-3.6c0-1 .1-2 .2-2.9.1-.5.2-.9.3-1.4v-.1s.1 0 .1-.1l.2-.1.3-.1c.9-.2 1.9-.4 2.9-.6.5-.1 1.1-.3 1.7-.7.1-.1.3-.2.4-.4.1-.1.3-.3.3-.5.1-.2.2-.4.2-.6v-.5c-.1-1.8.2-3.9.2-5.9 0-1 0-2.1-.1-3.2-.1-.6-.4-1.4-1-1.8-.5-.4-1.1-.7-1.7-.8-1.1-.3-2.2-.3-3.2-.3h-1.9c-.1-.3-.2-.7-.2-1.2v-1.4c0-1 .2-1.9.3-2.9s.4-1.9.6-2.8c.2-.8.8-1.4 1.4-2 1.4-1.2 3.2-2.2 4.9-2.9l.5-.2.1-.5c.4-2.2.8-4.3 1.2-6.5.2-1.1.3-2.2.4-3.4v-.6c0-.1-.1-.3-.1-.4l-.1-.3c-.2-.3-.3-.6-.5-.8-.3-.5-.7-.9-1-1.4-1.3-1.8-2.7-3.5-4-5.2-.6-.9-1.2-1.8-1.7-2.6l-.3-.6c-.1-.2-.1-.4-.1-.3 0 0 0 .1 0 0v-.2l.1-.3.3-.7c.8-2 1.7-4 2.7-5.9 1-1.9 2-3.9 3.1-5.6.3-.4.6-.9.9-1.2.3-.4.7-.8.9-.9.1 0 0 0 0 0h.4l.8-.1 1.6-.1 6.6-.6c4.4-.4 8.8-.8 13.1-1.3 4.4-.5 8.7-1 13.1-1.8 2.2-.4 4.3-.8 6.5-1.7 1.1-.5 1.9-1.2 2.8-2 .8-.8 1.6-1.5 2.4-2.4 2.6-2.8 4.8-5.9 7-9 .2 1.7.3 3.5.5 5.2v.2c1.1 2.7 2.1 5.4 3.2 8 1.2 2.6 2.2 5.3 3.7 7.9 1.4 2.5 2.9 5 4.5 7.4 1.5 2.3 3 4.7 4.5 7l.1 7.6v3.9c0 .7 0 1.3-.1 1.9l-.1.9c0 .2-.1.5-.1.6-.2.2-.3.3-.5.4-.3.3-.5.6-.7.8-.4.6-.8 1.1-1.2 1.7s-.7 1.2-1 1.8c-.3.7-.6 1.3-.6 2.2 0 .8.1 1.4.1 2.1l.2 2c.2 1.3.3 2.6.5 3.9v.2l.1.2 4.7 5.2 1.8 2-.8-2.6c-.8-2.8-1.6-5.6-2.1-8.4 0-.3-.1-.7-.1-1 0-.3.1-.6.2-.9.2-.7.6-1.3.9-1.9.7-1.2 1.6-2.4 2.4-3.6l1.2-1.8c.2-.3.4-.6.6-1 .1-.4.1-.7.2-1.1l.9-4.3c.6-2.9 1.2-5.7 1.8-8.6.4-4.2.8-8.4 1.1-12.6l.2-3.2c0-.5.1-1.1.1-1.6.6-.7.5-1.3.4-1.8zM123 43v.1c0 .2.1.5.1.7-2.4 3.2-4.9 6.3-7.6 9.1-.8.8-1.5 1.5-2.4 2.2-.8.7-1.7 1.4-2.6 1.8-1.9.8-4.1 1.1-6.2 1.4-8.6 1.2-17.4 2-26.1 2.6l-6.6.5-1.6.1-.8.1h-.4c-.2 0-.6.1-.7.2-.8.4-1.1.9-1.5 1.4-.4.5-.7.9-1 1.4-1.3 1.9-2.3 3.9-3.3 5.8-1 2-1.9 4-2.8 6.1l-.5.8-.2.4v.3c0 .1 0 .2-.1.4 0 .6.1.9.2 1.3.1.3.3.6.4.9.6 1.1 1.2 2 1.8 2.9 1.3 1.8 2.7 3.5 4 5.3.3.4.6.9.9 1.3.1.2.3.4.4.6V91c0 .9-.2 2.1-.3 3.1-.3 2-.6 4-1 5.9-1.7.8-3.4 1.8-4.9 3.1l-1.2 1.2c-.2.2-.3.5-.5.8-.1.3-.3.6-.3.9-.3 1-.5 2.1-.7 3.1-.2 1-.3 2.1-.3 3.1v1.6c0 .6.1 1.1.3 1.8l.3.6c.2.2.4.4.8.5.5.1.7.1 1 .1h1.5c1 0 1.9 0 2.8.2.4.1.8.3 1 .5.2.2.3.4.4.8.2.9.2 1.9.2 2.8 0 2-.3 3.9-.1 6.1V127.5s0 .1-.1.1c0 0-.1.1-.2.1-.2.2-.7.3-1.1.5-.9.2-1.9.4-3 .7l-.4.1-.5.2c-.2.1-.3.2-.5.4s-.3.5-.3.6c-.2.5-.2 1-.3 1.5l-1.8-4.3c.7-.1 1.3-.3 2-.6.9-.4 1.8-1.4 1.8-2.5.1-.5-.1-1.1-.4-1.6-.3-.4-.7-.8-1.2-1-.8-.5-1.7-.8-2.5-1.1s-1.6-.7-2.2-1.2l-.4-.4-.2-.2-.1-.2c-.1-.3-.2-.9-.3-1.3l-1.2-5.2c-.4-1.7-.8-3.5-1.2-5.2-.2-.9-.4-1.7-.5-2.6-.1-.4-.1-.9-.1-1.3v-.3c0-.1 0-.2.1-.2.1-.1.2-.3.4-.4 1.3-1.1 3-1.9 4.1-3.5.3-.4.5-.8.6-1.3.2-.5.2-1 .2-1.4 0-.9 0-1.8-.1-2.7-.1-1.8-.2-3.6-.4-5.3l-.2-1.3c0-.2 0-.4-.2-.8l-.3-.3-.3-.2c-.9-.4-1.8-.4-2.7-.6-.8-.2-1.8-.3-2.3-.8-.2-.1-.2-.2-.3-.4 0-.1 0-.1-.1-.2 0-.1 0-.2-.1-.3-.1-.4-.2-.9-.2-1.3-.3-1.8-.5-3.5-.7-5.3-.4-3.5-.8-7.1-.9-10.6-.1-.9 0-1.6.2-2.4.2-.8.6-1.6 1-2.4.8-1.6 1.6-3.1 2.6-4.6 3.8-6 8-11.7 12.4-17.2 1.1-1.4 2.2-2.8 3.3-4.1l.8-1 .4-.5c.1-.2.3-.3.4-.4.5-.4 1.2-.8 2-1.1 1.6-.6 3.3-.9 5-1.2 1.7-.3 3.5-.5 5.2-.7 7-.6 14.2-.9 21.2-1.1l5.3-.1c.9 0 1.8-.1 2.7-.2.8-.1 1.7.1 2.5.2 3.3.9 6.4 2.8 9.3 4.8l2.5 2.9L123 43zm25 23.9-.1 3.1c-.1 4.2-.3 8.4-.5 12.6-.5 2.9-1 5.7-1.5 8.6l-.8 4.3c-.1.3-.1.8-.2 1s-.3.6-.5.9l-1.2 1.8c-.9 1.2-1.7 2.4-2.5 3.6-.4.6-.8 1.3-1.1 2-.1.4-.3.7-.3 1.2-.1.4 0 .8 0 1.2.2 2.1.6 4.1 1.1 6l-2.6-3.2c-.1-1.2-.2-2.5-.4-3.7l-.1-1.9c0-.6-.1-1.3-.1-1.9 0-.4.2-1 .5-1.5.3-.6.6-1.1.9-1.6.3-.5.7-1 1.1-1.5.2-.2.4-.5.6-.7l.2-.2c.1-.1-.1.1 0 0s.3-.2.4-.3c.1-.1.1-.2.1-.2v-.1c0-.1.1-.2.1-.3.1-.5.1-.8.2-1.2l.1-1c.1-.7.1-1.3.1-2 .1-1.3.1-2.7.1-4 .1-2.6 0-5.3 0-7.9v-.3l-.2-.3-4.7-7.2c-1.6-2.4-3.1-4.8-4.6-7.3-1.5-2.4-2.7-5-3.9-7.6l-3.6-7.8c-.3-2-.6-4-1-5.9.1-.2.3-.4.4-.6l1.1-6.2 6.8 1c1.5 1.4 3 2.8 4.4 4.3.7.8 1.4 1.5 2.1 2.3l.9 1.2c.2.3.5.9.7 1.4 1.9 3.8 3.9 7.5 5.6 11.3.8 1.9 1.7 3.8 2.1 5.7.1.5.2.9.2 1.4l.1 1.5zM75.5 179.5c-.6-1.4-1.2-2.7-1.9-4.1-.7-1.3-1.6-2.6-2.9-3.6h-.2l-5.3-1.8H65c-4.5.1-9 .2-13.4.4l13.3.4 5.1 2c1 .8 1.8 2.1 2.4 3.3.7 1.3 1.2 2.6 1.7 4 1 2.6 1.8 5.4 2.4 8.1-2 4-3.9 8-5.8 12-1 2.1-1.9 4.1-2.8 6.2-.2.5-.5 1.1-.6 1.8-.1.5-.1.9-.1 1.4l-.5-.6c.3-2.8.6-5.6.8-8.4l.1-1.1V198.2c0-.1-.1-.3-.2-.5l-.2-.3c-.1-.2-.2-.4-.3-.5-.2-.3-.4-.7-.6-1-.8-1.3-1.7-2.5-2.6-3.7l-4-5.5 2.3 6.4c.3.9.6 1.9.8 2.8.1.5.2.9.2 1.4v.6c0 .2-.1.4-.1.7-.2.8-.4 1.6-.7 2.5l-.3-1.9-.1-.4-.3-.2c-2.6-1.6-5.2-3.3-7.8-5-1.3-.9-2.5-1.8-3.7-2.7-.3-.2-.6-.5-.8-.7-.2-.1-.2-.2-.3-.4-.1-.1-.2-.2-.2-.4-.3-.7-.5-1.4-.6-2.2-.7-3-1.4-6-1.7-9.1v-.7l.2-.2.7-.9 1.4-1.9 2.8-3.8-3 3.6L47 176l-.8.9-.2.2c0 .1-.1.1-.1.2v.9c.2 3.1.7 6.2 1.3 9.3.2.8.3 1.5.6 2.3.1.4.5.9.7 1.2l.9.9c1.2 1.1 2.5 2 3.7 2.9 2.4 1.8 4.9 3.4 7.4 5.1l.7 5 .4 3.3 1.2-3.1c.4-1 .8-1.9 1.1-2.9.3-1 .7-2 .9-3 .1-.3.1-.6.2-.8v-.6c.1.1.2.3.2.4.1.1.2.3.2.4l.1.2v.9l-.1 1.1c-.2 2.9-.6 5.9-.9 8.8v.4l.2.3 3.2 4.1 3.3 4.3L70 213c-.3-1-.6-2.1-.7-3.1-.1-.5-.1-1 0-1.5.1-.4.2-.9.4-1.4.8-2 1.8-4.1 2.7-6.2l5.7-12.3.1-.3-.1-.3c-.6-2.8-1.5-5.6-2.6-8.4zm-13.9-36.2c.2.3.3.8.4 1.2l.4 1.3c.5 1.8 1 3.6 1.6 5.3-.2-1.9-.5-3.7-.9-5.5l-.3-1.4-.1-.7c0-.2-.1-.5-.2-.8-.5-.9-1.1-1.6-1.7-2.4-2.5-2.8-5.2-5.4-8.1-7.6 1.2 1.4 2.4 2.8 3.7 4.2 1.2 1.4 2.5 2.7 3.7 4.1.5.9 1.1 1.6 1.5 2.3zm.3 17.4-.1-.1c-.8-.7-1.5-1.4-2.3-1.9-.4-.3-.8-.6-1.3-.9-.4-.3-.9-.5-1.4-.7.8.7 1.4 1.4 2.1 2.1.7.7 1.4 1.3 2.1 2 .5 1.8 1.1 3.5 2 5.1-.2-1.9-.6-3.7-1.1-5.6zm15.9-13c-.7 1-1.3 1.9-2 2.8-.3.5-.7.9-1.1 1.3-.2.2-.4.4-.5.6l-.3.2c-.1 0-.2.1-.2.1-1.8.6-3.7 1.2-5.5 1.8l-2.8 1c-.9.4-1.8.7-2.7 1.1.9-.2 1.9-.4 2.8-.6l2.8-.7c1.8-.5 3.7-1 5.5-1.6.2-.1.3-.1.4-.2l.3-.3.6-.6c.4-.4.7-.9 1.1-1.4.7-1 1.3-2 1.9-3 1.2-2.1 2.4-4.2 3.5-6.4l-1.9 3c-.6.9-1.2 1.9-1.9 2.9zm-13.2 22.8 6-3.4 3.3-7.7s6.6-4.8 7.1-5.4c.6-.7 1.1-3.1 1.1-4.1s.2-7.7.2-7.7.4 1.8.7 3.3.7 3.8-.1 7.6-7.6 7.4-7.6 7.4-2 5.3-4.3 7.4l-4.5 2.9-1.9-.3z" fill="#c9b49e" stroke-width="none" opacity="1" stroke="none"></path></g><g id="svga-group-glasses-single-move" transform="matrix(1,0,0,1,0,0)"><g id="svga-group-glasses-single"></g></g></g></g></g><rect id="svga-credit-rect" width="200" height="15" x="0" y="185" fill="#ecf0f1" opacity="0.5" style="display: none;"></rect><text id="svga-credit-text" font-family="Avenir Next, Roboto, Helvetica, Arial, sans-serif" font-size="10px" text-anchor="start" font-weight="400" size="10px" anchor="start" weight="400" fill="#333333" x="33.466087341308594" y="182.5249764919281" style="display: none;"><tspan id="SvgjsTspan6463" dy="13" x="33.466087341308594">Created on AvatarMaker.com</tspan></text></g><defs id="SvgjsDefs6415"></defs></svg>