<svg xmlns="http://www.w3.org/2000/svg" version="1.1" width="600px" height="600px" viewBox="0 0 200 200" style="overflow:hidden!important;"><defs id="SvgjsDefs3072"><linearGradient id="SvgjsLinearGradient6753" x1="80.0429" y1="88.1094" x2="80.0429" y2="107.7139" gradientUnits="userSpaceOnUse" class="svga-on-canvas-glasses-gradient-single-0-null"><stop id="SvgjsStop6754" stop-opacity="1" stop-color="#bfeaf2" offset="0" ></stop><stop id="SvgjsStop6755" stop-opacity="0.649" stop-color="#a1cae3" offset="0.351" ></stop><stop id="SvgjsStop6756" stop-opacity="0" stop-color="#6086c4" offset="1" ></stop></linearGradient><linearGradient id="SvgjsLinearGradient6758" x1="-19.9571" y1="88.1094" x2="-19.9571" y2="107.7139" gradientTransform="matrix(-1 0 0 1 100 0)" gradientUnits="userSpaceOnUse" class="svga-on-canvas-glasses-gradient-single-1-null"><stop id="SvgjsStop6759" stop-opacity="1" stop-color="#bfeaf2" offset="0" ></stop><stop id="SvgjsStop6760" stop-opacity="0.649" stop-color="#a1cae3" offset="0.351" ></stop><stop id="SvgjsStop6761" stop-opacity="0" stop-color="#6086c4" offset="1" ></stop></linearGradient><linearGradient id="SvgjsLinearGradient6814" x1="79.9394" y1="87.3745" x2="79.9394" y2="107.9537" gradientUnits="userSpaceOnUse" class="svga-on-canvas-glasses-gradient-single-0-null"><stop id="SvgjsStop6815" stop-opacity="1" stop-color="#ffba38" offset="0.004166667" ></stop><stop id="SvgjsStop6816" stop-opacity="0.8314" stop-color="#f5b232" offset="0.1721" ></stop><stop id="SvgjsStop6817" stop-opacity="0.541" stop-color="#d99d24" offset="0.4612" ></stop><stop id="SvgjsStop6818" stop-opacity="0.1664" stop-color="#ac7b0c" offset="0.8343" ></stop><stop id="SvgjsStop6819" stop-opacity="0" stop-color="#966a00" offset="1" ></stop></linearGradient><linearGradient id="SvgjsLinearGradient6822" x1="-20.0606" y1="87.3745" x2="-20.0606" y2="107.9537" gradientTransform="matrix(-1 0 0 1 100 0)" gradientUnits="userSpaceOnUse" class="svga-on-canvas-glasses-gradient-single-2-null"><stop id="SvgjsStop6823" stop-opacity="1" stop-color="#ffba38" offset="0.004166667" ></stop><stop id="SvgjsStop6824" stop-opacity="0.8314" stop-color="#f5b232" offset="0.1721" ></stop><stop id="SvgjsStop6825" stop-opacity="0.541" stop-color="#d99d24" offset="0.4612" ></stop><stop id="SvgjsStop6826" stop-opacity="0.1664" stop-color="#ac7b0c" offset="0.8343" ></stop><stop id="SvgjsStop6827" stop-opacity="0" stop-color="#966a00" offset="1" ></stop></linearGradient><linearGradient id="SvgjsLinearGradient6894" x1="79.2145" y1="82.2703" x2="79.2145" y2="111.8043" gradientUnits="userSpaceOnUse" class="svga-on-canvas-glasses-gradient-single-0-null"><stop id="SvgjsStop6895" stop-opacity="1" stop-color="#ff73b2" offset="0.004166667" ></stop><stop id="SvgjsStop6896" stop-opacity="0.8085" stop-color="#ff75ae" offset="0.1949" ></stop><stop id="SvgjsStop6897" stop-opacity="0.5986" stop-color="#ff79a0" offset="0.4039" ></stop><stop id="SvgjsStop6898" stop-opacity="0.3799" stop-color="#ff818a" offset="0.6217" ></stop><stop id="SvgjsStop6899" stop-opacity="0.1566" stop-color="#ff8b6c" offset="0.844" ></stop><stop id="SvgjsStop6900" stop-opacity="0" stop-color="#ff9452" offset="1" ></stop></linearGradient><linearGradient id="SvgjsLinearGradient6902" x1="-20.7855" y1="82.2703" x2="-20.7855" y2="111.8043" gradientTransform="matrix(-1 0 0 1 100 0)" gradientUnits="userSpaceOnUse" class="svga-on-canvas-glasses-gradient-single-1-null"><stop id="SvgjsStop6903" stop-opacity="1" stop-color="#ff73b2" offset="0.004166667" ></stop><stop id="SvgjsStop6904" stop-opacity="0.8085" stop-color="#ff75ae" offset="0.1949" ></stop><stop id="SvgjsStop6905" stop-opacity="0.5986" stop-color="#ff79a0" offset="0.4039" ></stop><stop id="SvgjsStop6906" stop-opacity="0.3799" stop-color="#ff818a" offset="0.6217" ></stop><stop id="SvgjsStop6907" stop-opacity="0.1566" stop-color="#ff8b6c" offset="0.844" ></stop><stop id="SvgjsStop6908" stop-opacity="0" stop-color="#ff9452" offset="1" ></stop></linearGradient><linearGradient id="SvgjsLinearGradient6983" x1="79.9234" y1="82.4503" x2="79.9234" y2="113.401" gradientUnits="userSpaceOnUse" class="svga-on-canvas-glasses-gradient-single-0-null"><stop id="SvgjsStop6984" stop-opacity="1" stop-color="#150000" offset="0.004166667" ></stop><stop id="SvgjsStop6985" stop-opacity="0.8088" stop-color="#190300" offset="0.1945" ></stop><stop id="SvgjsStop6986" stop-opacity="0.6342" stop-color="#240c00" offset="0.3684" ></stop><stop id="SvgjsStop6987" stop-opacity="0.466" stop-color="#361b00" offset="0.5359" ></stop><stop id="SvgjsStop6988" stop-opacity="0.3018" stop-color="#503100" offset="0.6994" ></stop><stop id="SvgjsStop6989" stop-opacity="0.1421" stop-color="#724c00" offset="0.8585" ></stop><stop id="SvgjsStop6990" stop-opacity="0" stop-color="#966a00" offset="1" ></stop></linearGradient><linearGradient id="SvgjsLinearGradient6992" x1="-20.0765" y1="82.4503" x2="-20.0765" y2="113.401" gradientTransform="matrix(-1 0 0 1 100 0)" gradientUnits="userSpaceOnUse" class="svga-on-canvas-glasses-gradient-single-1-null"><stop id="SvgjsStop6993" stop-opacity="1" stop-color="#150000" offset="0.004166667" ></stop><stop id="SvgjsStop6994" stop-opacity="0.8088" stop-color="#190300" offset="0.1945" ></stop><stop id="SvgjsStop6995" stop-opacity="0.6342" stop-color="#240c00" offset="0.3684" ></stop><stop id="SvgjsStop6996" stop-opacity="0.466" stop-color="#361b00" offset="0.5359" ></stop><stop id="SvgjsStop6997" stop-opacity="0.3018" stop-color="#503100" offset="0.6994" ></stop><stop id="SvgjsStop6998" stop-opacity="0.1421" stop-color="#724c00" offset="0.8585" ></stop><stop id="SvgjsStop6999" stop-opacity="0" stop-color="#966a00" offset="1" ></stop></linearGradient><linearGradient id="SvgjsLinearGradient7068" x1="79.91" y1="76.79" x2="79.91" y2="108.93" gradientUnits="userSpaceOnUse" class="svga-on-canvas-glasses-gradient-single-0-null"><stop id="SvgjsStop7069" stop-opacity="1" stop-color="#b4c0cf" offset="0" ></stop><stop id="SvgjsStop7070" stop-opacity="0.9374" stop-color="#abbace" offset="0.0626" ></stop><stop id="SvgjsStop7071" stop-opacity="0.679" stop-color="#8aa3ca" offset="0.321" ></stop><stop id="SvgjsStop7072" stop-opacity="0.4305" stop-color="#7393c6" offset="0.5695" ></stop><stop id="SvgjsStop7073" stop-opacity="0.1987" stop-color="#6589c5" offset="0.8013" ></stop><stop id="SvgjsStop7074" stop-opacity="0" stop-color="#6086c4" offset="1" ></stop></linearGradient><linearGradient id="SvgjsLinearGradient7076" x1="120.1" y1="125.13" x2="120.1" y2="92.99" gradientTransform="matrix(1 0 0 -1 0 202)" gradientUnits="userSpaceOnUse" class="svga-on-canvas-glasses-gradient-single-1-null"><stop id="SvgjsStop7077" stop-opacity="1" stop-color="#b4c0cf" offset="0" ></stop><stop id="SvgjsStop7078" stop-opacity="0.9374" stop-color="#abbace" offset="0.0626" ></stop><stop id="SvgjsStop7079" stop-opacity="0.679" stop-color="#8aa3ca" offset="0.321" ></stop><stop id="SvgjsStop7080" stop-opacity="0.4305" stop-color="#7393c6" offset="0.5695" ></stop><stop id="SvgjsStop7081" stop-opacity="0.1987" stop-color="#6589c5" offset="0.8013" ></stop><stop id="SvgjsStop7082" stop-opacity="0" stop-color="#6086c4" offset="1" ></stop></linearGradient></defs><g id="svga-group-wrapper"><g id="svga-group-backs-single"><path id="SvgjsPath9484" d="M0 0h200v200H0V0z" fill="#ecf0f1" stroke-width="none" opacity="1"></path><path id="SvgjsPath9485" d="m156.3 131.2-16.8-.4-17 .6c-.7 0-8.8-.3-9.4-.2-9.8 1.2-14.9.6-20.8 0l-10.9-.1c-1.5 0-3.5-1.6-3.5-3.6l.1-5.6c1-5.5-.2-9.4-.2-14.7l.2-3.6c0-1.5 2.3-2.3 5.1-2.4l7.5.2c3.7-.1 9.6.8 12 .3l11-.5c3.8-.2 10.8-.8 20.5-.5 0 0 10.3 0 19.3.2l5.6-.1c1.5 0 3.2 1.2 3.2 2.7v5c-.1 3.3.1 5.9.1 10.1l.2 5.5-.4 3.4c-.1 2.5-3.8 4.1-5.8 3.7zm-43.4-33.4-16.8-.4-17 .6c-.7 0-8.8-.3-9.4-.2-9.8 1.2-14.9.6-20.8 0L38 97.7c-1.5 0-3.5-1.6-3.5-3.6v-5.6c1-5.5-.2-9.4-.2-14.7l.2-3.6c0-1.5 2.3-2.3 5.1-2.4l7.5.2c3.7-.1 9.6.8 12 .3l11-.5c3.8-.2 10.8-.8 20.5-.5 0 0 10.3 0 19.3.2l5.6-.1c1.5 0 3.2 1.2 3.2 2.7v5c-.1 3.3.1 5.9.1 10.1l.2 5.5-.4 3.4c0 2.5-3.6 4.1-5.7 3.7zm43.4-32.4-16.8-.4-17 .6c-.7 0-8.8-.3-9.4-.2-9.8 1.2-14.9.6-20.8 0l-10.9-.1c-1.5 0-3.5-1.6-3.5-3.6l.1-5.6c1-5.5-.2-9.4-.2-14.7l.2-3.6c0-1.5 2.3-2.3 5.1-2.4l7.5.2c3.7-.1 9.6.8 12 .3l11-.5c3.8-.2 10.8-.8 20.5-.5 0 0 10.3 0 19.3.2l5.6-.1c1.5 0 3.2 1.2 3.2 2.7v5c-.1 3.3.1 5.9.1 10.1l.2 5.5-.3 3.4c-.2 2.5-3.9 4.1-5.9 3.7zm-43.4-33.3-16.8-.4-17 .6c-.7 0-8.8-.3-9.4-.2-9.8 1.2-14.9.6-20.8 0L38 32c-1.5 0-3.5-1.6-3.5-3.6v-5.6c1-5.5-.2-9.4-.2-14.7l.2-3.6c0-1.5 2.3-2.3 5.1-2.4l7.5.2c3.7-.1 9.6.8 12 .3l11-.5c3.8-.2 10.8-.8 20.5-.5 0 0 10.3 0 19.3.2l5.6-.1c1.5 0 3.2 1.2 3.2 2.7v5c-.1 3.3.1 5.9.1 10.1l.2 5.5-.4 3.4c0 2.5-3.6 4-5.7 3.7zm43.4 166.2-16.8-.4-17 .6c-.7 0-8.8-.3-9.4-.2-9.8 1.2-14.9.6-20.8 0l-10.9-.1c-1.5 0-3.5-1.6-3.5-3.6l.1-5.6c1-5.5-.2-9.4-.2-14.7l.2-3.6c0-1.5 2.3-2.3 5.1-2.4l7.5.2c3.7-.1 9.6.8 12 .3l11-.5c3.8-.2 10.8-.8 20.5-.5 0 0 10.3 0 19.3.2l5.6-.1c1.5 0 3.2 1.2 3.2 2.7v5c-.1 3.3.1 5.9.1 10.1l.2 5.5-.4 3.4c-.1 2.5-3.8 4.1-5.8 3.7zM112.9 165l-16.8-.4-17 .6c-.7 0-8.8-.3-9.4-.2-9.8 1.2-14.9.6-20.8 0l-10.9-.1c-1.5 0-3.5-1.6-3.5-3.6v-5.6c1-5.5-.2-9.4-.2-14.7l.2-3.6c0-1.5 2.3-2.3 5.1-2.4l7.5.2c3.7-.1 9.6.8 12 .3l11-.4c3.8-.2 10.8-.8 20.5-.5 0 0 10.3 0 19.3.2l5.6-.1c1.5 0 3.2 1.2 3.2 2.7v5c-.1 3.3.1 5.9.1 10.1l.2 5.5-.4 3.4c0 2.4-3.6 4-5.7 3.6zM25.7 97.8c2.1.4 5.7-1.2 5.7-3.7l.4-3.4-.2-5.5c.1-4.2-.1-6.8-.1-10.1v-5c0-1.5-1.8-2.7-3.2-2.7l-5.6.1c-9-.2-19.3-.2-19.3-.2H.1v30.5l8.8-.3 16.8.3zm5.8 39.5c0-1.5-1.8-2.7-3.2-2.7l-5.6.1c-9-.2-19.3-.2-19.3-.2-1.2 0-2.2-.1-3.3-.1v30.5l8.8-.3 16.8.4c2.1.4 5.7-1.2 5.7-3.7l.4-3.4-.2-5.5c.1-4.2-.1-6.8-.1-10.1v-5zM14.9 35.9c-2.4.4-8.3-.4-12-.3L0 35.5v29.9l4.6.1c5.9.6 11 1.2 20.8 0 .7-.1 8.8.2 9.5.2l17-.6 16.8.4c2.1.4 5.7-1.2 5.7-3.7l.4-3.4-.2-5.5c.1-4.2-.1-6.8-.1-10.1v-5c0-1.5-1.8-2.7-3.2-2.7l-5.6.1c-9-.2-19.3-.2-19.3-.2-9.7-.3-16.7.3-20.5.5l-11 .4zm59.6 72.6v-5c0-1.5-1.8-2.7-3.2-2.7l-5.6.1c-9-.2-19.3-.2-19.3-.2-9.7-.3-16.7.3-20.5.5l-11 .5c-2.4.4-8.3-.4-12-.3l-2.9-.1v29.9l4.6.1c5.9.6 11 1.2 20.8 0 .7-.1 8.8.2 9.5.2l17-.6 16.8.4c2.1.4 5.7-1.2 5.7-3.7l.4-3.4-.2-5.5c0-4.2-.2-6.8-.1-10.2zm0 67.2v-5c0-1.5-1.8-2.7-3.2-2.7l-5.6.1c-9-.2-19.3-.2-19.3-.2-9.7-.3-16.7.3-20.5.5l-11 .5c-2.4.4-8.3-.4-12-.3l-2.9-.2v29.9l4.6.1c5.9.6 11 1.2 20.8 0 .7-.1 8.8.2 9.5.2l17-.6 16.8.4c2.1.4 5.7-1.2 5.7-3.7l.4-3.4-.2-5.5c0-4.2-.2-6.8-.1-10.1zM0 32l8.8-.3 16.8.4c2.1.4 5.7-1.2 5.7-3.7l.4-3.4-.2-5.5c.1-4.2-.1-6.8-.1-10.1v-5c0-1.5-1.8-2.7-3.2-2.7l-5.6.1c-9-.2-19.3-.2-19.3-.2-1.1 0-2.2-.1-3.3-.1V32zm169.4 33.3 10.9.1c5.7.6 10.4.6 19.7-.5V35.4l-9-.4c-2.4.4-7.8-.1-11.5 0l-8.4.4c-2.8 0-5.1.9-5.1 2.4l-.2 3.6c0 5.3-1 10.2.2 14.7l-.1 5.6c0 2 2 3.6 3.5 3.6zm0 65.8 10.9.1c5.7.6 10.4.5 19.7-.6v-29.5l-9.1-.4c-2.4.4-7.8-.1-11.5 0l-8.4.4c-2.8.1-5.1.9-5.1 2.4l-.2 3.6c0 5.3-1 10.2.2 14.7l-.1 5.6c.1 2 2.1 3.7 3.6 3.7zM122.1 22.7l-.1 5.6c0 2 2 3.6 3.5 3.6l10.9.1c5.9.6 11 1.2 20.8 0 .7-.1 8.8.2 9.4.2l17-.6 16.4.4V1.8h-2.6c-9-.2-19.3-.2-19.3-.2-9.7-.3-16.7.3-20.5.5l-11 .5c-2.4.4-8.3-.4-12-.3l-7.5-.3c-2.8 0-5.1.9-5.1 2.4l-.1 3.6c0 5.4 1.2 9.2.2 14.7zm0 65.8-.1 5.6c0 2 2 3.6 3.5 3.6l10.9.1c5.9.6 11 1.2 20.8 0 .7-.1 8.8.2 9.4.2l17-.6 16.4.3V67.5l-2.6.1c-9-.2-19.3-.2-19.3-.2-9.7-.3-16.7.3-20.5.5l-11 .5c-2.4.4-8.3-.4-12-.3l-7.5-.2c-2.8.1-5.1.9-5.1 2.4l-.2 3.6c.1 5.2 1.3 9.1.3 14.6zm77.9 79.8-9.1-.4c-2.4.4-7.8-.1-11.5 0l-8.4.4c-2.8.1-5.1.9-5.1 2.4l-.2 3.6c0 5.3-1 10.2.2 14.7l-.1 5.6c0 2 2 3.6 3.5 3.6l10.9.1c5.7.6 10.4.5 19.7-.6l.1-29.4zm-16.4-3.7 16.4.4v-30.3l-2.6.1c-9-.2-19.3-.2-19.3-.2-9.7-.3-16.7.3-20.5.5l-11 .5c-2.4.4-8.3-.4-12-.3l-7.5-.2c-2.8.1-5.1.9-5.1 2.4l-.2 3.6c0 5.3 1.2 9.2.2 14.7l-.1 5.6c0 2 2 3.6 3.5 3.6l10.9.1c5.9.6 11 1.2 20.8 0 .7-.1 8.8.2 9.4.2l17.1-.7z" fill="#c6dce2" stroke-width="none" opacity="1"></path><path id="SvgjsPath9486" d="M34.5 22.7v5.6c0 2 2 3.6 3.5 3.6l10.9.1c5.9.6 11 1.2 20.8 0 .7-.1 8.8.2 9.4.2l17-.6 16.8.4c1.3.2 3.3-.3 4.5-1.4-.8 0-1.7-.3-2.6-.3-1.4 0-6.2-1.1-9.3-1.6-1.3-1.2-2.9-2-4.7-1.7-1.3.2-2.3.8-3.8 1-2.1.3-4.2-.1-6.3-.5-2.2-.4-4.2-.8-6.4-.8-.1 0-.1.1 0 .1 4.1.2 7.9 1.8 11.9 1.9 1.4 0 2.7-.5 4-.5.9 0 1.6.1 2.3.3-6.4 0-22.2.9-24.5 1.6-2.7.7-12.6.7-15.9-.7-3.4-1.5-20.3 0-21.7-.2-1.5-.2-1.7-2.7-1-7 .2-1.2.2-2.6.1-4.2.5.2.9.3 1.4.3 1.4 0 3-.9 4.2-1.5 2.2-1.1 4.4-2.2 6.5-3.5.1-.1 0-.2-.1-.2-2.5 1.3-5 2.4-7.7 3.2-1.3.4-2.7 1.1-4.1.5-.1 0-.2-.1-.3-.1-.3-4.1-1.2-8.7-1.5-10.9-.1-.7-.1-1.4 0-2 3.9-1.4 8.2 1 12.1 1.5 3.2.4 6.3.1 9.5-.4.2 0 .1-.3 0-.3-2.5.2-5 .4-7.6.1-2.7-.3-5.2-1.3-7.8-1.8-2-.4-3.9-.7-5.7 0 .1-.3.2-.6.3-.8-2.4.2-4.2 1-4.2 2.3L34.3 8c0 5.4 1.2 9.2.2 14.7zm71.2 39.6c-1.9-1-8.3.3-10.8 1-2.3.6-8.8-.6-11.6-1.8 2.3-.1 4.6-.5 6.4-1.7.1-.1.1-.4-.1-.4-2.6.3-4.9 1.1-7.5 1.3-1.5-1.7-1.2-7.2-.9-9.9.3-2.9-1.3-7.3-1.6-10.5-.2-1.8-.1-3.3.1-4.4-1.1.4-1.8 1-1.8 1.8l-.2 3.6c0 5.3 1.2 9.2.2 14.7l-.1 5.6c0 2 2 3.6 3.5 3.6l10.9.1c5.9.6 11 1.2 20.8 0 .7-.1 8.8.2 9.4.2l17-.6 16.8.4c1.5.3 3.8-.5 5-1.9h-.5c-2.2 0-3.5-1-5.4-1.6-.6-.2-2.2-.1-4.1.2-1.7-1.6-4.1-2.3-6.4-2-1.9.2-3.5 1.3-5.4 1.4-2 0-3.4-.7-5.4-.3-.1 0-.1.2 0 .2 2.5 0 4.9 1 7.3.4 3.4-.8 5.6-.9 8.6.4-3.7.6-8.1 1.4-9.6 1.2-2.6-.3-4.1.3-7 .3s-19.8-.3-22-.6c-2.1-.1-3.7.2-5.6-.7zm-1.2 33c-.4-.1-1.3-.1-2.5-.2.1-.5-.1-1.1-.5-1.4-.5-.4-1.6-.7-1.9.1-.1.2 0 .5.3.5s.7-.1 1-.1c.4.1.6.5.5.9-7.1-.1-22.9.5-25.5.5-3.1 0-16.7-.3-24.6.6s-12.5-2.3-13-3.4c-.1-.2-.2-.4-.2-.8 1.4-.4 2.9-.3 4.4-.2 2.1.1 4.2-.5 6.2-.3.8.1 1.4.6 2.2.4 1-.2 2-1.2 2.7-1.8 0 0 0-.1-.1-.1-1.3 1.1-1.8 1.5-3.4 1.2-.3-.1-.5-.5-.8-.5-2.2-.3-4.4.2-6.7-.1-1.7-.2-3.3-.3-4.7.2-.2-2.1-.2-5.2-.2-7.2 0-.4 0-.9-.1-1.4 2.9.4 5.8-2.4 8.7-2 .1 0 .1-.1 0-.2-1.7-.5-3.3.1-4.8.6 0-.1-.1-.2-.2-.2-1.4-.1-2.7 0-4-.3-.4-2.6-1.1-5.6-1.1-7.7 0-1.7-.6-2.8-1.3-3.5-.3.3-.5.7-.5 1.1l-.2 3.6c0 5.3 1.2 9.2.2 14.7v5.6c0 2 2 3.6 3.5 3.6l10.9.1c5.9.6 11 1.2 20.8 0 .7-.1 8.8.2 9.4.2l17-.6 16.8.4c1.6.3 4.1-.6 5.2-2.1-1.1.3-2.7.7-3.7.7-1.5.2-7.2-.4-9.8-.9zm13.8 34.8c-4.4-.3-7.3-.3-10.8-3.2-.1-.1-.3-.2-.4-.3 1-.2 2.1-.2 3.2.1 1 .3 1.9.8 3 .9 2.8.3 5.6-.5 8-1.7.4-.2.1-.8-.3-.7-1.8.4-3.5 1-5.4 1.2-2.2.3-3.5-.5-5.4-1.1.6.1 1.1.3 1.7.5.2.1.6-.2.3-.4-2.6-2.4-7.8-.6-10.8.1-5.4-.1-12.3 1.2-13.9 1.6-2.3.6-3.5.3-6.7-1.2s-.6-4.1 0-9.4c.1-.6.1-1 .1-1.4 3 2.9 7.2 4 11.3 3.1 2-.5 3.4-1.4 5.6-1.4 1.9 0 3.6.8 5.4 1.3 2.5.8 4.3 1.2 6.9.7.1 0 .1-.2 0-.2-4.6.5-8.4-2.5-12.9-2.6-1.8 0-3.4.7-5.2 1-4.2.8-7.8-.6-11-3.1-.1-2.4-1-2.3-1.9-5.1-.5-1.4-.9-2.9-1.2-4.2l-.1 2.4c0 5.3 1.2 9.2.2 14.7l-.1 5.6c0 2 2 3.6 3.5 3.6l10.9.1c5.9.6 11 1.2 20.8 0 .7-.1 8.8.2 9.4.2l17-.6 16.8.4c1.1.2 2.6-.2 3.8-.9-2-1.1-5.4-2.9-7.8-3.5-3.5-.9-6.7.6-11.4.9-4.7.5-18.2 2.9-22.6 2.6zm-14.1-4.4c1.1-.2 2.1-.4 3.2-.5-.6.2-1.1.5-1.7.8l-1.5-.3zm12.9 38.2c-.7-.1-1.4-.1-2-.1-1.5 0-3.5 0-6.5-.6-3.1-.6-9.4-.9-13.3-1.1s-16.3 1.5-18.5 1.3-6.1-.9-11.3-1.5c-5.2-.6-17.4.9-19.6 1.3-1.4.3-4-.3-5.8-1.7 1.2.1 2.4.1 3.6 0 .3 0 .4-.4.1-.5-1.4-.5-3.1-.5-4.6-.4-.4-.5-.7-1.1-.9-1.8-.6-3-.1-4.5 0-7.8 1.7 1.6 4.2 1.6 6.8 1.5 3.5-.1 5.9 1.2 8.9 2.3 2.9 1.1 5.7-.4 8.6.6.2.1.3-.3.1-.4-1.2-.4-1.6-.4-2.9-.4-2 0-3.6.6-5.6-.4-1.1-.5-2-1.6-3.1-2.2-3.8-1.9-10.2 1.4-12.9-2.9-.2-3.5-1.1-6.1-1.9-9.1-.4-1.6-.7-3.1-.6-4.3-.7.4-1.2.9-1.2 1.6l-.2 3.6c0 5.3 1.2 9.2.2 14.7v5.6c0 2 2 3.6 3.5 3.6l10.9.1c5.9.6 11 1.2 20.8 0 .7-.1 8.8.2 9.4.2l17-.6 16.8.4c1.2.3 2.9-.1 4.2-1zm39 32.9c-2.3-.2-9.7.5-14.4 0s-11.7-1.3-16.4-1.6-17.8.7-17.8.7-2.5-.4-6.5-.9-17.1.7-18.9-2c-1.1-1.6-.9-3-.6-4.7l1.2.6c1.1.4 2.2.4 3.3.5 1.7.2 3.2.7 4.8 1.2.2.1.4-.3.2-.4-1.3-1-2.5-1.5-4.2-1.8-1.7-.3-3.8-.2-5.2-1.2.2-.9.3-1.8.4-3 .1-1.1 0-2.1-.2-3.2.8.1 1.7.3 2.5.2.3 0 .3-.4.1-.5-.8-.2-1.8-.3-2.7-.4-.5-2.6-1.4-5.2-2.2-8.4-.3-1.3-.5-2.2-.6-2.9-.7.4-1.2.9-1.2 1.6l-.2 3.6c0 5.3 1.2 9.2.2 14.7l-.1 5.6c0 2 2 3.6 3.5 3.6l10.9.1c5.9.6 11 1.2 20.8 0 .7-.1 8.8.2 9.4.2l17-.6 16.8.4c1.4.2 3.6-.4 4.8-1.6-1.1 0-3 .4-4.7.2zm42.1-166.6c-1.7-1-7.7-.2-11.1 0s-16.7-.2-18.8 0-11.1-.7-14-1.2c-2.9-.5-14.2.2-17.6.7s-10.3-.7-10.5-2.7c-.2-1.9-.2-3.6.2-7.7.1-.5.1-1 .1-1.4.9.6 2.5.5 3.3.4 1-.1 1.9-.4 2.9-.6 3.3-.7 5.1-.1 8.2.6 5.6 1.4 11.2 1.5 17 1 .1 0 .1-.2 0-.2-6.5.2-12.2-.1-18.5-2.1-4.5-1.4-8.4.5-12.9-.4-.2-2.6-.9-4.5-1.3-7.2-.3-2.6 0-5.4.6-7.3-2.2.2-3.8 1-3.8 2.3l-.1 3.6c0 5.3 1.2 9.2.2 14.7l-.1 5.6c0 2 2 3.6 3.5 3.6l10.9.1c5.9.6 11 1.2 20.8 0 .7-.1 8.8.2 9.4.2l17-.6 16.4.3v-1.3c-.6.1-1.3-.1-1.8-.4zm-10.6 32.1c-1.9-.8-9.5-.2-13.2-.5.5-.1.9-.2 1.4-.3 1.2-.3 2.7-.7 3.5-1.6.1-.2.1-.5-.2-.5-1.2.1-2.2.8-3.3 1-1.3.3-2.6.4-3.8.7-1.7-.9-2.7-2.9-3.8-5.6-.9-2.1-.3-3.4.1-5 1.8-.1 3.7.6 5.5.5 2.7 0 5.2-.6 7.8.5.1 0 .1-.1.1-.1-2.4-1.3-4.8-.8-7.4-1-2.1-.1-3.9-.9-5.8-.8.1-.6.1-1.2.1-1.9-.3-3.2-1-8.6-.3-10.5.2-.6.2-1.2 0-1.7-1.4.4-2.3 1.1-2.3 2l-.2 3.6c0 5.3-1 10.2.2 14.7l-.1 5.6c0 2 2 3.6 3.5 3.6l10.9.1c5.7.9 10.4.9 19.7-.2v-2.8c-1.7 0-2.6.9-4.1 1.1-2 .3-6.1 0-8.3-.9zm7.6 32.4c0-.8-21.2.3-24.4 0s-4.5-.3-6.5-.8-26.9.8-30.6 1.4-7.7-1.4-8.5-3.1c-.8-1.5.3-5.4.3-8.7.3.2.6.4.9.5.6.2 1.3.3 2 .2 1.8-.2 3.4-1.3 5.2-1.4.1 0 .2-.2 0-.2-1.8-.2-3.4.3-5.1.6-1.2.2-2-.4-3-.8v-.1c-.3-3.4-1.1-7.1-2-9.9-.4-1.3-.7-2.4-1.1-3.2-.2.3-.4.6-.4 1l-.2 3.6c0 5.3 1.2 9.2.2 14.7l-.1 5.6c0 2 2 3.6 3.5 3.6l10.9.1c5.9.6 11 1.2 20.8 0 .7-.1 8.8.2 9.4.2l17-.6 16.3.3V96h-.3c-1.8.4-4.3-.4-4.3-1.3zm.2 32.3c-.8-.5-2.1-.2-2.7.5-.2.2-.1.3.1.4-6.8.5-14.9 1.5-16.2 1.3-2.1-.3-6.4-2.9-6.4-6.4v-.6c1.1.2 2.2.8 3.2.9.6.1 1.2.1 1.8-.1 1-.3 2-1.4 3.3-.8.2.1.4-.1.3-.3-1.1-1.9-3.4.1-4.9.1-1.4.1-2.6-.5-3.9-.6-.4-2.2-1.8-2.7-2.8-5.7-1.2-3.5.3-5 .3-9.1 0-2.2-.5-3.4-1.1-4.2-.3.3-.6.7-.6 1.1l-.2 3.6c0 5.3-1 10.2.2 14.7l-.1 5.6c0 2 2 3.6 3.5 3.6l10.9.1c5.7.6 10.4.5 19.7-.6v-3.1c-1 0-2.4 0-3.9.1 0-.1-.2-.3-.5-.5zm-2.1.9c.5-.1.9-.4 1.4-.4.2 0 .4.1.6.2-.7.1-1.3.1-2 .2zm-9.2 34.7c-.6-.2-2.6-.3-5-.4 0-.8 0-1.5-.1-2.2 0-.1-.2-.3-.3-.3-2.5-.5-5.9 0-7.9 1.6-.2.1 0 .4.2.3 1.5-.4 2.9-1 4.4-1.2.6-.1 1.5-.2 2.1 0 .5-.1.8.1 1 .7.1.4.1.7.2 1.1-5.7-.2-13.9-.1-15.4.2-.4.1-1.3.2-2.4.2-.8-.1-1.7-.1-2.4.1h-.1c-4.5.2-10.5.4-11.7.2-1.7-.2-2.6-.9-6.1-1.7s-12 .4-13.9 0-1.5-2.8-1.5-5.9c0-2.2.4-3.3.9-5 .6.5 1.4.8 2.1.9s1.7 0 2.5-.4c.4.1.8.2 1.2.2 1.9.1 3.9-.4 5.8-.3 2.7.1 5.3.6 8 .9.3 0 .4-.5.1-.5-3.3-1-6.8-1.7-10.2-1.5-2.8.1-3.9.7-6.7-1.1-.7-.4-1.3-1-2-1.5.2-2.9-1.5-4.5-2.1-6.6-.5-1.8-1.1-3.2-.8-5-1.1.4-1.9 1-1.9 1.9l-.2 3.6c0 5.3 1.2 9.2.2 14.7l-.1 5.6c0 2 2 3.6 3.5 3.6l10.9.1c5.9.6 11 1.2 20.8 0 .7-.1 8.8.2 9.4.2l17-.6 16.4.5v-1c-.7-.1-1.3-.3-1.8-.5-1.7-.9-12-.2-14.1-.9zm-57.5-14.4c.9.9 2 1.9 3.1 2.4-.5.1-1-.1-1.5-.2-.8-.2-1.3-.6-1.9-1.1.1-.2.2-.6.3-1.1zm66.4 47c-.7-.1-1.5-.1-2.2-.3-.9-.2-1.7-.6-2.4-1.2-.3-.3-.8.2-.5.5.2.2.5.4.8.6-3.2 0-6.9 1.2-9.5 1.3-1.5.1-3.3-.5-4.8-1.5.3-.1.6-.1.8-.2.3-.1.3-.6-.1-.6-.6 0-1.2 0-1.8.1-1.3-1.1-2.2-2.4-2.6-3.8-.7-3.4-1.4-2-2.5-6.1s-.5-4.3.2-9.4c.5-3.6-.4-4.3-1.4-5.4-.7.4-1.2.9-1.2 1.6l-.2 3.6c0 5.3-1 10.2.2 14.7l-.1 5.6c0 2 2 3.6 3.5 3.6l10.9.1c5.7.6 10.4.5 19.7-.6v-1.6c-2.6-.2-5-.4-6.8-.7.2-.2.2-.3 0-.3zM25.7 97.8c1 .2 2.3-.1 3.5-.7-1.7-.2-4-.7-6.2-1 0-.1-.1-.2-.2-.2-1.1-.6-1.7-.6-3-.6-2.6 0-4.3-1.3-6.5-2-3.1-1-6.4-.2-9.6-.1-.4 0-.5.6-.1.7 3.5.6 7-.7 10.3.9.5.3 1 .6 1.6.9-3.7.1-10 .3-15.5.5v1.6l8.8-.3 16.9.3zm-.3 33.4c.7-.1 8.8.2 9.4.2l17-.6 16.8.4c1.1.2 2.7-.2 3.9-1-1.5-.4-3.3-.9-3.9-1.1-.7-.2-4.4-1-7.7-1.2-1.2-1-2.6-1.4-4.5-1.4-4 .2-7.4-1.6-11.5-1.3-.3 0-.3.4 0 .4 1.8.2 3.6.2 5.3.7 1 .3 2.3 1 3.4 1.2 1.1.2 2.2-.1 3.3 0 .5 0 1.1.1 1.6.2-1 .1-1.9.3-2.5.7-2.6 1.8-4.7.3-8.8.3s-15.2-.6-15.2-.6-11.4.3-15.8.9c-1.1.1-2.8.2-4.8.3.3-.3.5-.6.8-.8 2.5-2.3 4.5-2.4 7.8-2.2 4.9.3 9-1.6 13.9-2.1.1 0 .1-.2 0-.2-2.7.2-5.2.6-7.8 1.3-3.2.9-6.2-.1-9.5-.1-4.3 0-3.9 1.6-6.2 4.1-3.4.1-7.3 0-10.5-.2v1.8l4.6.1c6 .8 11.1 1.4 20.9.2zm.3 33.8c1.2.2 2.9-.2 4.1-1.1-1.5-.2-4.2.3-5.5-.2-1.7-.6-5.2-.6-8.3-.2-2 .3-9.6-.1-16-.7v2.1l8.8-.3 16.9.4zm22.8 30.8c-.6-.1-1.5-.1-2.6-.2-.3-1.5-.9-3.2-2.2-3.6-.5-.2-.9.1-1.4.1-1 .1-1.9 0-2.8-.2-1.3-.3-2.5-.7-3.9-.6-.2 0-.2.3 0 .3 1.9.4 3.6 1.4 5.5 1.6.5.1 1.1-.1 1.5-.1 1.5.3 2.1 1.2 2.4 2.4-5.8-.4-15.4-.8-19.5-.8-5.1 0-20.8.3-25.4.3v3.2l4.6.1c5.9.6 11 1.2 20.8 0 .7-.1 8.8.2 9.5.2l17-.6 16.8.4c1.1.2 2.7-.2 3.9-.9-2-.1-4.8-.2-6.1-.2-2.2 0-14.3-1-18.1-1.4zM25.7 32.1c1.3.2 3.2-.3 4.5-1.3-1.4-.3-3.4-.6-4.8-.9-3.4-5.6-12.7-4-18.1-5.5-.1 0-.1.1-.1.1 2.5 1 5.1.9 7.7 1.5 2.8.6 7 1.3 9.1 3.6-2.3-.1-6.6.6-9.5-.3-2.1-.6-9.5-.6-14.5-.8V32l8.8-.3 16.9.4zm-.3 33.3c.7-.1 8.8.2 9.4.2l17-.6 16.8.4c.9.2 2 0 3.1-.5-2-.1-4.3-.6-5.9-.8-2.5-.3-7.3-1.3-10.8-1.9-.4-.1-1-.1-1.8-.1 1.1-.3 2.2-.2 3.4-.3.4 0 .5-.5.1-.7-1-.4-2.1-.3-3.1-.1-.5.1-1 .3-1.5.5-.3.2-.7.4-1 .6-6.5.3-17.9 1.7-19.9 2-2.5.3-18.5-.3-21.7-1.3-1.3-.4-3.7-.5-6.3-.7 4.4-1.9 9.8-.1 14.5-.3 4.2-.2 8.4-.8 12.4-2.2.2 0 .1-.3-.1-.2-6.9 1.7-13 1.8-20.1 1-3.2-.4-5.4-.3-8 1.6-.6.1-1.3 0-1.9 0v3.4l4.6.1c5.9.5 11 1.1 20.8-.1zM155.5 29c3.6-.9 6.7-1.5 10.4-.8 2.3.5 4.3 1 6.6.6.1 0 .1-.2 0-.2-3.4.4-6.6-1.2-9.9-1.4-2.5-.1-5 .2-7.3 1.4-.1.2 0 .5.2.4zM55.2 12c.9-.5 1.8-.7 2.8-.8.1 0 0-.1 0-.1-1 0-2 .3-2.9.8-.1 0 0 .1.1.1zm5.5-.8c1-.1 1.9-.1 2.9-.3.1 0 .1-.1 0-.1-1 0-1.9.2-2.9.3-.2-.1-.2.1 0 .1zm31.1 39.5c.5 0 .5-.8 0-.8-.9 0-2 .2-2.6.9-.2.2 0 .5.3.4.8 0 1.5-.4 2.3-.5zm-6.8 5c-.2 0-.3 0-.4.1-.2.1-.2.4 0 .5.1.1.2.1.4.1.4 0 .4-.6 0-.7zm36 1.7c.1 0 .1-.1.2-.1.1-.1.1-.2 0-.3-.1 0-.1-.1-.2-.1-.6-.5-.6.9 0 .5zm8.9 1.4c.1-.2-.1-.3-.3-.2-.2.1-.3.3-.6.1-.3-.2-.6.3-.3.5.5.1 1.1.1 1.2-.4zm26-6.9c.2-.1.2-.4 0-.5-.2-.1-.3-.1-.5-.1-.6-.1-.6.8 0 .7.2 0 .3 0 .5-.1zm28.2 7.5c.2-.1.2-.3 0-.4-.4-.1-.7-.1-1.1-.1-.4 0-.4.6 0 .6s.8 0 1.1-.1zm6.8.2c.1 0 .1-.2 0-.2-.7-.2-1.4-.1-2.1-.1-.3 0-.3.5 0 .5.7-.1 1.4 0 2.1-.2zM22.2 24c2.6.9 4.7-1.3 6.9-2.2.2-.1.1-.3-.1-.3-2.3.6-4.2 2.9-6.7 2.1-.3-.1-.4.3-.1.4zm5.8-8.4c.3 0 .3-.5 0-.5-.4-.1-.4.5 0 .5zm14.1 43.8c.2 0 .2-.4 0-.4-.3 0-.3.4 0 .4zm11.8-.5c.4-.2.9-.4 1.3-.6.1-.1 0-.2-.1-.2-.5.1-.9.3-1.3.5-.1.1-.1.4.1.3zm-14.8-9.5c-7-.4-14.1-.5-21.1-1.3-5.1-.5-7.7-1.6-12.3 1.1-.1.1 0 .2.1.2 4.7-2.6 10.4-.5 15.6-.4 5.9.1 11.8.4 17.7.6.2 0 .2-.2 0-.2zm15.3-5.2c-.6-.1-1.2-.1-1.9-.2-.4 0-.4.6 0 .6.6 0 1.3 0 1.9-.2.1 0 .1-.2 0-.2zm8.1 2.9c.2 0 .2-.3 0-.3s-.2.3 0 .3zM45 51.5c.2 0 .2-.2 0-.2s-.2.2 0 .2zm-17.6 1.4c.2 0 .2-.4 0-.4s-.2.4 0 .4zm28 29.3c.2 0 .2-.2 0-.2-1.1-.4-2.2-.6-3.4-.9-.3-.1-.4.4-.1.4 1.2.3 2.3.6 3.5.7zm18.7-.1c.2-.1.1-.4-.1-.4-.9-.1-1.8.2-2.6.4-.2.1-.2.5.1.4.8 0 1.7 0 2.6-.4zm11.4 1.6c.2 0 .2-.3 0-.3s-.3 0-.5-.1c-.3 0-.3.5 0 .5.2 0 .3-.1.5-.1zm20.9 6.9c-.3 0-.3.5 0 .5s.3-.5 0-.5zm-13.1 2.3c.3 0 .3-.5 0-.5-.5 0-1.1 0-1.6.1-.2 0-.2.3 0 .3.6.2 1.1.1 1.6.1zm44.6-10.4c-.3-.1-.4.4-.1.4.5.1.9.2 1.4.2.2 0 .2-.3.1-.4-.6 0-1-.1-1.4-.2zm-8.7 11.3c-.3 0-.3.5 0 .5.7 0 1.4.1 2.1-.1.2 0 .2-.3 0-.3-.7-.2-1.4-.2-2.1-.1zm22.9-3.2c-2.3-.1-4.5.1-6.6 1.1-.3.2-.1.8.2.6 4.9-2.1 10.3.2 15.3-.4.4 0 .5-.6.1-.7-2.8-.6-6-.5-9-.6zm20.5 2.7c1.2.1 2.4.4 3.6.6.2 0 .3-.2.1-.3-1.1-.6-2.5-.8-3.8-.8-.3-.1-.3.5.1.5zm20.9-6.7c.2 0 .2-.3 0-.3-1.2-.1-2.4-.3-3.6-.3-.2 0-.2.3 0 .3 1.1.2 2.4.2 3.6.3zm-9.4-.5H183c-.1 0-.1.1 0 .1h1.1c.1.1.1-.1 0-.1zm-10 0c-5.1.5-10.1 0-15.1-.5-.3 0-.3.4-.1.5 5 1.1 10.2 1 15.2.5.3-.1.3-.5 0-.5zm-157.2 3c-.2.1 0 .4.2.3.8-.4 1.6-.5 2.5-.5.1 0 .2-.2 0-.2-.9-.4-1.9-.1-2.7.4zm6.6-10.5c-.1 0-.1.2 0 .2 1.4-.1 2.8-.2 4.2-.1.2 0 .2-.3 0-.3-1.4-.1-2.9-.1-4.2.2zm-18 36.5c-.2 0-.2.3 0 .3 1.1 0 2.3 0 3.4-.1.1 0 .1-.2 0-.2-1.1-.1-2.3 0-3.4 0zm5.4 1.2c.3.9.8 1.9 1.6 2.4.1.1.1-.1.1-.1-.6-.7-1.2-1.4-1.5-2.4 0-.2-.3-.1-.2.1zm3.8 2c-.2.1 0 .4.2.3 3.7-1.7 6.9-2.4 10.9-2.6.2 0 .2-.3 0-.3-3.6-.5-7.9.6-11.1 2.6zm99.6.4c.1 0 .1-.1 0-.2h-.5c-.1 0-.1.2 0 .2h.5zm11.6 6.8c1-.3 2-.2 3.1-.2.2 0 .3-.3.1-.3-1-.5-2.3-.3-3.3.1-.4 0-.3.5.1.4zm8.8.9c.3 0 .3-.4 0-.4s-.3.4 0 .4zm3.6.2c.2 0 .2-.3 0-.3s-.2.3 0 .3zm2.6-13.8c3.1.3 5.9 1.8 9 .9.3-.1.3-.6-.1-.6-2.9.3-5.5-.6-8.3-.8-3-.2-5.9 1.2-8.9.5-.4-.1-.6.4-.3.6 3 1.9 5.5-.9 8.6-.6zm-15.7.5c-2.7.6-5.3.8-8 1-.2 0-.2.3 0 .3 2.7 0 5.5-.4 8.1-1 .2 0 .1-.4-.1-.3zm54.4 5.2c.2 0 .2-.3 0-.3s-.2.3 0 .3zm.6-3.8c-.3 0-.5.1-.8.1-.2 0-.2.3 0 .3.3 0 .5.1.8.1.3 0 .3-.5 0-.5zm-6.8 9.7c.4 0 .4-.6 0-.6s-.4.6 0 .6zm-1.9-5.2c-.2 0-.2.3 0 .3s.2-.3 0-.3zm11.6 4.2c.2 0 .2-.3 0-.3-.2-.1-.4-.1-.6-.1-.3 0-.3.5 0 .5.2 0 .4 0 .6-.1zm4.6 0c-.2 0-.2.3 0 .3s.2-.3 0-.3zm8.2 1.7c-.4 0-.4.6 0 .6.3 0 .3-.6 0-.6zM158.6 150c.6.1 1.3.2 1.9.2.2 0 .2-.3 0-.3-.6-.2-1.2-.3-1.9-.3-.2-.1-.2.4 0 .4zm7.7 1.1c.1-.1 0-.2-.1-.2-.5.2-1 .3-1.5.2-.2 0-.2.3 0 .3.6.1 1.2 0 1.6-.3zm3.9-.1c-.3 0-.3.5 0 .5s.3-.5 0-.5zm-103.7 2.1c.2-.1.3-.2.5-.4.1-.1 0-.3-.2-.3-.2.1-.4.1-.6.2-.2.1 0 .7.3.5zm8.5-1.9c-.4 0-.4.6 0 .6s.4-.6 0-.6zm26.7 37.5c-.3 0-.3.6 0 .5 1-.1 2.2-.1 3.2-.4.2-.1.2-.3-.1-.4-1 0-2.1.2-3.1.3zm18.5 5.3c-.2.1-.2.4 0 .4.2.1.4.1.6.1.3 0 .3-.6 0-.5-.2-.1-.4-.1-.6 0zm6.1-.2c.2 0 .2-.3 0-.3-.5-.1-1-.1-1.6-.1-.3 0-.3.4 0 .4.5.1 1.1.1 1.6 0zm8.6-.2c-.3 0-.3.5 0 .5s.3-.5 0-.5zm46.7 1.6c.8-.2 1.8-.2 2.4-.7.1-.1 0-.2-.1-.2-.8-.2-1.7.2-2.5.4-.4 0-.2.6.2.5zm-161.5-5.3c-.1 0-.1.2 0 .2 3-.8 6.1-.4 8.8 1.1.2.1.4-.2.2-.3-2.8-1.7-5.9-2.1-9-1zm-15-5.2c-.4-.1-.6.6-.2.6 2.9.7 6.1.8 8.9-.5.3-.1.1-.6-.2-.5-3 .5-5.6.9-8.5.4zm25.5-7.2c-.5 0-1.1.1-1.6.2-.2.1-.1.4.1.4l1.5-.3c.2 0 .2-.3 0-.3zm13 1.4c-.2.1-.1.4.1.4 1.8-.4 3.5-.9 5.2-1.7.1-.1 0-.2-.1-.2-1.7.4-3.4 1-5.2 1.5zm11.1-1.9c-.9-.1-1.8-.1-2.7-.1-.3 0-.3.4 0 .4.9 0 1.8.1 2.7-.1.1.1.1-.1 0-.2zm4.9-.3h.3c.1 0 .1-.1 0-.1h-.3c-.1 0-.1.1 0 .1zm4.2 5.7c.3 0 .3-.4 0-.4-.3-.1-.3.4 0 .4zm-10 6.6c.1 0 .1-.1 0 0 0-.1 0 0 0 0zm-24.3-8.7c.3 0 .3-.5 0-.5s-.3.5 0 .5zm-13.3-24.6c.3 0 .3-.5 0-.5s-.3.5 0 .5zm1.8-.5c.3 0 .3-.5 0-.5s-.3.5 0 .5zm-7.6 3.4c.3 0 .3-.5 0-.5s-.3.5 0 .5zm10.4-9.7c.1 0 .1-.1.2-.1.1-.1.1-.2 0-.3-.1-.1-.1-.1-.2-.1-.6-.3-.6.8 0 .5z" fill="#a4c9d2" stroke-width="none" opacity="1"></path><path id="SvgjsPath9487" d="M65.5 71.8c-3.3-1.8-5.6-.7-9.1-.7-4.1 0-8-.9-12.2-.2-.2 0-.2.4 0 .4 2-.2 3.9-.4 5.9-.2 1.9.2 3.7 1.1 5.5 1.3 3.4.3 6.2-1.4 9.7-.4.2 0 .3-.2.2-.2zm21.3-1.4c-5.7.6-11.2 1.2-16.9 1.2-.2 0-.2.2 0 .2 5.6.1 11.4-.2 16.9-1.3.1 0 .1-.1 0-.1zm12.6-1.2c-1.6-.6-3.3-.4-4.8.2-.1 0 0 .1 0 .1 1.6-.6 3.1-.5 4.8-.1 0 0 .1-.1 0-.2zm14.3 1.3c-1.4-.9-3.1-.8-4.7-.7-.2 0-.2.4 0 .4 1.2 0 2.5 0 3.6.4 1.3.5 1.8 1.4 2.2 2.6.1.2.3.2.4 0 .2-1.1-.6-2.1-1.5-2.7zm3.2 7.7c0-.2-.3-.2-.3 0v1.2c0 .1.2.1.3 0 .1-.4 0-.8 0-1.2zm-8.3 24.7c-5.5-.5-11.1-.2-16.6-.1-3.7.1-8.1-.6-11.5.9-.2.1-.1.5.2.4 4.1-1.7 9.9-.5 14.3-.5 4.6 0 9.2.2 13.7-.2.2.1.2-.5-.1-.5zm50.3 1.4c-6.2-1.2-12.6-1.3-18.9-1.6-7.2-.3-14.4-.7-21.6.1-.2 0-.2.4 0 .3 6.9-.6 13.7-.7 20.6-.2 6.6.5 13.1 1.8 19.8 1.7.2.1.3-.2.1-.3zm1.3 2.8s0 .1 0 0c.1.1.1 0 0 0zm.2 0c0-.1-.1-.1-.1 0 .1 4-.3 8.1-.2 12.1 0 .1.1.1.2 0 .5-3.9.3-8.1.1-12.1zm35.6-4c-2.5 0-5.1.3-7.6.1-1.9-.2-3.8-1-5.7-1.1-3.9-.2-7.3.5-11.2-.2-.4-.1-.5.5-.2.6 4.4 1.3 9.1 1 13.6 1.3 3.6.2 7.4-.1 11-.3.3-.1.3-.4.1-.4zm-36-33.2c-6.2.2-12.5.6-18.7.1-4.8-.4-10.2-2.5-14.9-.8-.2.1-.1.4.1.3 4.9-1.5 11.5 1.3 16.7 1.6 5.6.3 11.3-.2 16.8-.9.1 0 .2-.3 0-.3zm31.7-32.4c-3.1-2-7.1-.2-10.6-.6-3.8-.4-7.1-1-11 0-.3.1-.2.5.1.5 3.8-.6 7.1 0 10.8.5 3.4.4 7.4-1.2 10.6 0 .2 0 .3-.3.1-.4zm-76.6-.3c-11 1.4-21.9-.6-32.9 0-.3 0-.3.5 0 .5 11 .2 22.2 2.4 33-.2.1 0 .1-.3-.1-.3zm40.1-.3c-7.5.5-14.8-1.3-22.4-.2-.2 0-.1.3 0 .3 5.1-.6 9.4-.2 14.4.5 2.4.3 11.8-.5 11.9 2.8 0 .3.4.4.5.1.8-3.1-1.8-3.6-4.4-3.5zM115 5.1c-3.9-2.9-9.1 1-13.3 0-.2 0-.3.2-.1.3 2.8 1.2 5 .4 7.9-.1 3.1-.5 5.8.2 6.7 3.6.6 2.2.5 4.8.7 7 0 .3.5.3.5 0-.2-3.3.6-8.6-2.4-10.8zm-21.7-.9c-3.8 0-7.7-.1-11.5-.2-.2 0-.2.2 0 .2 3.9.3 7.7.2 11.6.1.1.1.1-.1-.1-.1zm-35.6 23c-2.4-.5-4.8-.6-7.2-.5-1.6.1-10.7 2.2-9.6-1.8.1-.2-.3-.4-.4-.2-1 1.9.5 3.5 2.4 3.8 1.5.2 3-.4 4.5-.6 3.4-.6 6.8-.6 10.3-.5.1.2.1-.1 0-.2zm2.8.4c-.4 0-.4.6 0 .6s.4-.6 0-.6zm7.3 1.4c-2-.5-4.1-.8-6.1-1-.1 0-.2.2 0 .2 2 .5 4 1 6.1 1.1.1.1.2-.2 0-.3zm63.5-.8c-1.1-.2-2.4-.1-3.2-.9-1-1-.6-2.4-.3-3.5.3-1.3.6-2.6-.1-3.9-.1-.2-.5 0-.4.2 1 2.2-1.2 4.5-.4 6.7.6 1.7 2.7 2.2 4.3 2 .3 0 .5-.5.1-.6zm13-8.5c-2.5-.4-5.1-1.4-7.6-1.6-2.8-.2-7.1 2.3-9.5.5-.2-.1-.4.2-.2.3 1.6 1.4 3.2.8 5 .3 4.5-1.3 7.9.5 12.3.7.1.1.1-.1 0-.2zM126.6 3.6c0-.2-.3-.4-.4-.1-.5 2.6-.5 5.1.3 7.6.1.2.3.1.3-.1-.4-2.5-.6-4.9-.2-7.4zm-96.9.9c-2.5-2-5.2-1.5-8.2-1.3-4.8.5-9.4.3-14.1-.2-.1 0-.2.2 0 .3 3.4.7 6.7 1.1 10.2 1.1 4.1 0 7.9-.9 11.9.6.2 0 .4-.3.2-.5zm.5 6.1c-.1-1.5.1-3.1-1-4.2-.1-.2-.4.1-.2.2 1.2 1.6.8 4.7.9 6.6.1 1.8.1 3.6.3 5.3 0 .1.2.1.2 0 .2-2.6-.1-5.3-.2-7.9zm.3 14.7c0-.2-.4-.2-.4 0 .1 1 0 1.9-.1 2.9 0 .1.2.1.2 0 .4-.9.4-1.9.3-2.9zm42.9 16.2c-.1-2.2-1-4.1-3.4-3.6-.2 0-.1.3 0 .3 3.9 1.1 2 9.4 2.2 12.2.2 2.7.7 5.1 1.7 7.5.1.1.2 0 .2-.1-2.1-5.5-.5-10.7-.7-16.3zm-4.7-3.8c-2.1.1-4.2 0-6.3-.1-.2 0-.2.3 0 .3 2.1.4 4.2.3 6.3 0 .2 0 .2-.2 0-.2zm-35.4-1.3c-3.4-.8-6.8-.3-10.3 0-4.2.3-8.4.6-12.5 1.2-.2 0-.2.3 0 .3 7.3-.2 15.5-2.6 22.7-1.1.3 0 .4-.4.1-.4zM17.7 46.7c-2.9 1.2-5.8-1.1-8.7-.3-.1 0-.1.2.1.2 2.9-.8 6 1.9 8.8.3.1-.1 0-.3-.2-.2zm6.9 22.8c-6.8.3-12.3 1.3-18.9-1.2-.2-.1-.4.3-.2.4 2.8 1.2 5.7 2 8.8 2.3 2.7.2 13.1-1.7 14.4 1.7.1.2.5.2.5-.1 0-2.7-2.2-3.2-4.6-3.1zm5.9 9.9c0-.3-.4-.3-.4 0 0 1-.1 2.1 0 3.1 0 .2.3.2.3 0 .2-1 .1-2.1.1-3.1zM53.4 104c-6.5-1.7-13.3-1.4-19.9-1.4-.2 0-.2.2 0 .2 6.7 0 13.2.4 19.8 1.5.2.1.3-.2.1-.3zm.8 24.2c-7.7.5-15.5-1.1-23.2-1.3-.2 0-.2.3 0 .3 7.3 1 16 2.8 23.3 1.3.1-.1.1-.3-.1-.3zm18.1-19.3c.2-2.2 1.1-4.8-1.7-5.3-.3-.1-.5.3-.2.5 2.3 1.5.9 8.9 1.2 11.5.3 3.4.9 6.7 1.6 10.1 0 .1.2.1.2 0-.8-5.6-1.6-11.2-1.1-16.8zm33.3 8.2c-3.7-3.4-7.5-3.4-12-1.8-.3.1-.2.6.1.4 2.2-.7 4.4-1.5 6.7-1 1.8.4 3.3 1.7 5 2.5.2.2.3 0 .2-.1zm15.3 4.2c-.5-1-1.6-1.2-2.6-1-.7.2-1.4.6-2 .9-1.4.7-2.6 1.1-4.2 1.2-.3 0-.3.5 0 .5 1.2 0 2.3-.2 3.4-.7 1.7-.7 3.3-2.2 5-.6.3.2.5 0 .4-.3zm37.4 15.8c-5.6-.4-10.5 2.8-16 1.9-5.4-.9-10.6-1.9-16.1-2.4-.3 0-.3.4-.1.5 6 .9 12.1 2.9 18.1 3.4 1.3.1 2.4-.1 3.6-.4 3.6-1.1 6.5-2.1 10.4-2.3.5-.2.5-.7.1-.7zm30.4-1.4c-6.1 0-13.7-.4-19.6 1.5-.2.1-.1.4.1.4 6.1-1.9 13.2-1 19.5-1.6.2 0 .2-.3 0-.3zm-61.1 24.5c-.8 0-1.2-.3-1.2-.9 0-.3-.1-.5-.1-.8-.1-.4-.1-.9-.1-1.3-.1-.9-.1-1.8-.1-2.7 0-.2-.3-.2-.3 0-.1 1.2-.1 2.4 0 3.6.1.7 0 1.8.5 2.4.4.6 1.5.7 1.6-.2-.1-.1-.2-.2-.3-.1zm36.7-.8c-2.9.3-5.8 1-8.6 1.5-3.6.7-6.6.3-10.2-.2-.2 0-.4.3-.1.4 2.5.4 5.1 1.1 7.6.9 3.7-.3 7.7-1.2 11.3-2.2.3-.1.3-.4 0-.4zm-94.1-22.8c-5.6-.1-10.8 1.8-16.3.2-4.9-1.4-9.8-1-14.8-.6-.1 0-.1.2 0 .2 3.2-.1 6.5-.4 9.7-.2 3.1.2 5.3 1.9 8.2 2.4 3.9.7 9.5-.6 13.3-1.6.2 0 .1-.4-.1-.4zm45.6 0c-6.7-.7-13.4-.6-20.1-1-6.1-.3-11.6.9-17.6 1-.2 0-.2.3 0 .3 5.9-.1 11.6-1.2 17.6-.8 6.7.4 13.4 1.2 20.1 1.3.5 0 .5-.7 0-.8zm1.7 10c-.1-.2-.3-.3-.4-.5-.4-.8-.3-1.4-.1-2.3.4-1.8.5-3.2-.5-4.9-.2-.3-.6 0-.5.3.6 1.1.8 2.4.4 3.6-.2.7-.8 1.4-.9 2.1-.1 1.2 1.4 1.7 1.3 3 0 .3.3.3.5.1.4-.5.4-.8.2-1.4zm.2 4.5c0-.3-.4-.3-.4 0 0 1.1-.1 2.3.1 3.4 0 .2.3.2.3 0 .1-1.1 0-2.3 0-3.4zM61 153.5c-2.8-.3-2.3-.8-4.9-2.9-.2-.2-.5-.8-.8-1.1-3.4-2.8-13 2.4-15.5-1.7-.1-.2-.4 0-.3.2 2.5 4.9 10-.1 14.1 2 2.1 1.1 1 2.4 2.7 3.5 1.2.8 3.5.4 4.8.3.1 0 .1-.3-.1-.3zm10.1 1.6c-1.6-.1-3.2.1-4.8.2-.3 0-.3.4 0 .4 1.6-.1 3.3-.1 4.8-.4.2-.1.1-.2 0-.2zm21.3-8.7c-1.6-.2-3.2-.1-4.8-.1-.3 0-.3.4 0 .4 1.6 0 3.2.1 4.8-.1.2 0 .2-.2 0-.2zm-69.7-8.8c-3.3-1.1-6.2-.6-9.6-.4-4 .2-7.8-.3-11.6-1.6-.2-.1-.4.3-.2.4 7.1 3.1 13.8 1.5 21.3 2 .2 0 .3-.3.1-.4zm4.3-.1c-.2 0-.3.4-.1.4 1.4.2 2.3 1.4 2.5 2.8 0 .1.2.1.2 0 .4-1.6-1.1-3.1-2.6-3.2zm3.2 6.8c0-.2-.3-.2-.3 0-.1 1.5-.4 3.2-.1 4.6 0 .2.4.2.4 0 .4-1.4.1-3.1 0-4.6zM71.8 173c-.1-.4-.6-.3-.6.1-.3 4.4.1 8.9.2 13.3 0 1.7.7 4.8.1 6.4-1.2 3.1-4.3 2.6-6.8 2.8-.2 0-.2.3 0 .3 4-.1 7.5 1.2 7.8-3.1.3-6.4.4-13.6-.7-19.8zm-.8-3.6c-2.5-.7-5.3 0-7.8.2-2.8.3-5.5.6-8.3 1.1-.2.1-.2.4.1.4 5.3-.1 10.7-1.4 16-1.3.2.1.2-.3 0-.4zm-24.1.2c-5.4-.9-11-1.3-16.4-.8-6.1.6-11.8 2.4-18 2.3-.2 0-.2.2 0 .3 4.8.5 9.5-.5 14.3-1.2 6.8-1 13.2-1.1 20-.2.2 0 .3-.4.1-.4zm6.6 10.5c-1.9.2-3.7.6-5.6.9-.2.1-.1.4.1.4 1.8-.3 3.7-.6 5.5-1.1.2 0 .1-.2 0-.2zm39.2 9.6c-1.6-2.5-5-3.6-7.9-2.8-.3.1-.2.5.1.5 2.9-.4 5.3.5 7.4 2.5.3.1.5 0 .4-.2zm11.5 1.7c-1.4-.1-3 .3-4.4.5-.3 0-.2.6.1.5 1.4-.2 3-.2 4.4-.7.1 0 .1-.3-.1-.3zm7.2-.3c-.2.1-.5.1-.7.2-.2.1-.1.3.1.3.2-.1.5-.2.7-.3.1-.1 0-.3-.1-.2zm17.1-4c-1.3-.9-3-1-4.5-.7-.3.1-.2.6.1.5 1.5-.3 2.9-.1 4.3.4.1.1.2-.1.1-.2zm7.3 1.6c-.7 0-1.4 0-2.2-.1-.2 0-.2.3 0 .3.7 0 1.4 0 2.2-.1.2 0 .2-.1 0-.1zm8 .4c-.6.1-1 .2-1.6.1-.3-.1-.5.4-.1.5.6.1 1.3.1 1.9-.2.1-.2 0-.4-.2-.4zm5.1-8.1c-.3 0-.3.5 0 .5s.3-.5 0-.5zm-64.4-10.8c-1.1-.8-2.4-.9-3.8-.7-.3 0-.2.4.1.4 1.2-.2 2.4.1 3.6.5.1.1.2-.1.1-.2zm48-.1c-2.8-.9-5.2-.4-8.1.1-4.4.8-8.4.6-12.8.7-3.3.1-6.4 1.4-9.8 1.3-3.3-.1-6.2-.9-9.5-.3-.2 0-.1.3 0 .3 3.2-.2 6.2.6 9.4.8 3.2.2 5.8-.9 8.9-1.1 3.6-.3 7.1.4 10.7-.1 3.7-.6 7-1.6 10.9-1 .6.2.8-.5.3-.7zm25.4-.2c-3.6-.9-7-.3-10.6 0-3.2.3-6.3-.8-9.3.4-.2.1-.1.5.1.4 3.2-.8 6.5.2 9.8.1 3.3-.2 6.6-.1 9.9 0 .4-.1.5-.7.1-.9zm1 1.6c-.2-.2-.5.1-.4.3.4.5.6 1 .8 1.5.2.5.2 1 .3 1.6.1.2.4.2.4 0 .3-1.3-.3-2.6-1.1-3.4zm10.8-.5c-.5 2.7-.8 5.4-.2 8.1 0 .2.4.2.4-.1.1-2.7 0-5.3.4-7.9 0-.2-.5-.4-.6-.1zm.5 11.7c0-.3-.4-.3-.4 0-.1 1 .3 1.9.8 2.7.7 1.2 1.2 2 1.2 3.4 0 .2.2.2.3.1 1.3-2-1.9-4.2-1.9-6.2zm20-12.2c-3.4-.3-6.8 0-10.3-.6-.3-.1-.4.4-.1.5 3.4.6 7.1 1.4 10.5.8.4 0 .2-.6-.1-.7z" fill="#ecf0f1" stroke-width="none" opacity="1"></path></g><g id="svga-group-humanwrap-move" transform="matrix(1,0,0,1,0,0)"><g id="svga-group-humanwrap" transform="matrix(1,0,0,1,0,0)"><g id="svga-group-hair-back-move" transform="matrix(1,0,0,1,0,0)"><g id="svga-group-hair-back" transform="matrix(1,0,0,1,0,0)"></g></g><g id="svga-group-humanbody-back"><path id="SvgjsPath3473" d="M166.5 181.1c-10.9-6.6-27.6-8.4-35-12.1-4.9-2.5-9.1-4.7-8.9-17.8s1.9-42.4 1.9-42.4H75.4s1.6 29.4 1.9 42.4-4.2 15.6-8.9 17.8c-7.4 3.5-24.1 5.4-35 12.1-10.8 6.6-10 18.9-10 18.9v19.7h153.3V200c-.1 0 .7-12.3-10.2-18.9z" fill="#fce3e1" stroke-width="none" opacity="1" stroke="none"></path></g><g id="svga-group-chinshadow-single"><path id="SvgjsPath3833" d="M76.5 160c4.2 4.3 10.1 13.3 14.2 13.3 5.3 0 6.5-1.4 9.3-1.4s4 1.4 9.3 1.4c4.1 0 9.9-8.9 14.1-13.3-.6-2.2-.9-5.1-.8-8.8.2-13.1 1.9-42.4 1.9-42.4H75.4s1.6 29.4 1.9 42.4c.1 3.7-.2 6.5-.8 8.8z" fill="#dd9e99" stroke-width="none" opacity="0.65" stroke="none"></path></g><g id="svga-group-humanbody-front"><path id="SvgjsPath3474" d="M78.7 156.8c.5 4.8 1.7 9.4 3.1 13.9.8 2.3 1.6 4.6 2.6 6.9.8 2 1.7 4.2 3.1 5.9.3.4 1 0 .9-.5-.5-2.2-1.6-4.3-2.4-6.4-.9-2.2-1.7-4.4-2.5-6.6-1.5-4.4-2.8-8.9-4.1-13.3-.2-.4-.8-.3-.7.1zm41.3-1c-1.3 8.2-3.9 16.1-5.4 24.2-.1.4.4.5.6.2 3.1-7.7 4.1-16.1 5.1-24.3-.1-.2-.3-.2-.3-.1zm-25.8 11.9c-.9 3.6 1.9 8.6 6.2 7.6.5-.1.4-.8 0-1-1.4-.5-2.9-.9-3.9-2.1-1.1-1.2-1.5-2.9-1.4-4.5 0-.4-.8-.5-.9 0z" fill="#dd9e99" stroke-width="none" opacity="1" stroke="none"></path><path id="SvgjsPath3475" d="M177.3 219.7c-.1-6.6-.3-13.1-.3-19.7l-.3-.3c.1 0 .1 0 .2.1s.1.2.1.1v-1.4c0-.5-.1-.9-.1-1.4-.1-.9-.3-1.9-.5-2.8-.5-1.8-1.1-3.6-2-5.3-1.7-3.4-4.4-6.2-7.7-8.1-3.6-2.2-7.6-3.8-11.6-5.1-4-1.3-8.1-2.4-12.1-3.5-4-1.2-8.1-2.2-11.8-4.2-1.9-1-3.6-2.1-4.8-3.6-1.2-1.6-1.9-3.5-2.3-5.5-.8-4-.4-8.2-.3-12.4l.7-12.6 1.5-25.2.1-1.4h-1.4c-8.2 0-16.4 0-24.6.1l-24.6.3h-.9l.1.9c.8 11.9 1.6 23.8 2.1 35.7.1 3 .3 6 .2 8.9-.1 2.9-.4 5.9-1.6 8.6-.6 1.3-1.4 2.5-2.4 3.5s-2.3 1.8-3.6 2.4c-2.6 1.3-5.4 2.2-8.3 3-5.8 1.5-11.6 2.8-17.3 4.7-2.8.9-5.7 2-8.4 3.4-1.3.7-2.7 1.4-4 2.4-1.3.9-2.4 1.9-3.5 3.1-2.1 2.3-3.6 5.2-4.5 8.1-.5 1.5-.8 3-1 4.6-.1.8-.1 1.6-.1 2.4v2.3l-.2 17.9v1.3h1.4l38.3.2c12.8.1 25.5.1 38.3 0 12.8-.1 25.6-.1 38.3-.3 12.8-.2 25.6-.5 38.3-.7h.6v-.5zm-77.2-1.6H61.8l-37 .2-.1-16.6v-2.2c0-.7 0-1.4.1-2.1.1-1.4.4-2.8.8-4.2.8-2.7 2.1-5.3 3.9-7.5.9-1.1 2-2.1 3.1-2.9 1.1-.9 2.4-1.6 3.7-2.3 2.6-1.4 5.3-2.5 8.1-3.5 5.6-2 11.4-3.4 17.1-5.1 2.9-.8 5.8-1.7 8.5-3.1 1.3-.7 2.7-1.5 3.8-2.6 1.1-1.1 2-2.4 2.6-3.9 1.2-2.9 1.5-5.9 1.6-8.9 0-3-.1-6-.2-9l-1.3-34.8 23.5.4c7.7.1 15.4.1 23.1.1-.4 7.9-.8 15.9-1.1 23.8-.2 4.2-.2 8.4-.3 12.6 0 4.2-.2 8.5.8 12.8.5 2.1 1.3 4.2 2.8 6 1.4 1.7 3.4 2.9 5.3 3.8 3.9 1.9 8 2.8 12.1 3.8s8.2 2 12.2 3.3c4 1.3 7.9 2.8 11.5 5 3.2 1.9 5.8 4.7 7.5 8 .9 1.6 1.5 3.4 1.9 5.2.2.9.4 1.8.4 2.7.1.5.1.9.1 1.4V200l-.3 19c-12.6-.2-25.1-.5-37.7-.7-12.7-.1-25.5-.1-38.2-.2z" fill="#ce807a" stroke-width="none" opacity="1" stroke="none"></path></g><g id="svga-group-clothes-single"><path id="SvgjsPath8879" d="M180.3 220.1c0-17.5-1.6-28.7-1.6-28.7-3.2-15.2-22.5-16.1-31.1-18.5-2.8-.8-13.9-4.5-13.9-4.5-4-8.6-9.1-13.4-9.1-13.4s1.1 16.6-4.8 20.7c-2.8 1.9-8.9 3.1-11.2 5-2.4 2-5.9 10.2-5.9 10.2s-8.5-12.5-10.7-12.3c-4.7.5-8 0-9.2-.4-6.7-2-6.7-23.4-6.7-23.4s-6.5 4.6-9.4 12.4c-3.2 1.4-11 3.2-15 4.7-8.3 3.1-27.5 5.6-30.5 19.6 0 0-1.6 11.2-1.6 28.7l160.7-.1z" fill="#0074ab" stroke-width="none" opacity="1"></path><path id="SvgjsPath8880" d="M180.6 210.1c0-3.3-.1-6.7-.3-10-.1-1.7-.2-3.3-.3-5l-.2-2.5-.1-1.3c-.1-.4-.2-.9-.3-1.3-.9-3.4-2.8-6.5-5.4-8.9-2.6-2.3-5.7-4-8.9-5.1-3.2-1.2-6.5-2-9.8-2.7 0 0-17.5-4.4-20.3-5.9-1.1-2.4-2.4-4.7-3.9-6.9-.8-1.2-1.6-2.3-2.5-3.4-.9-1.1-1.7-1.9-2.8-2.9-.2-.2-1-.7-1.3-.7-.7-.1-1 .6-1.1 1.3v.1c-.4 3.8-.6 14.2-1.3 15.9-.8 1.7-1.8 3.2-3.2 4-1.5.9-3.4 1.5-5.2 2.2-.9.3-1.9.7-2.8 1.1-1 .4-1.9.9-2.9 1.6-1 .9-1.5 1.7-2.1 2.6-.6.9-1.1 1.8-1.5 2.6l-1.8 3.6c-2.2-3-4.4-6-7-8.7-.4-.4-.8-.8-1.3-1.2-.2-.2-.5-.4-.8-.6-.3-.2-.6-.4-1.2-.4h-.6l-.4.1-.8.1c-.5.1-1.1.1-1.6.1-1.1 0-2.1 0-3.2-.1-1-.1-2.2-.2-3-.5-.8-.3-1.6-1-2.2-1.8-.6-.8-1.2-1.7-1.7-2.6-1-1.9-1.6-13.9-2.3-18.2 0-.1-.1-.1-.1-.2-.2-.2-.5-.2-.7-.1-1.1.8-2.1 1.7-3 2.7s-1.8 2-2.6 3c-.8 1.1-1.5 2.2-2.2 3.3-.7 1.1-1.2 2.2-1.7 3.4-3.8 1.7-10.8 3-14.7 4.4-4 1.4-8.1 2.3-12.2 3.6-4.1 1.3-8.2 2.9-11.8 5.5-1.8 1.3-3.4 2.9-4.8 4.7-1.3 1.8-2.3 4-2.8 6.2v.1c-.3 2.4-.6 4.8-.8 7.2-.2 2.4-.4 4.8-.5 7.2-.1 2.4-.3 4.8-.3 7.2-.1 2.4-.1 4.8-.1 7.2 0 .8.6 1.4 1.4 1.4l40.5.2c13.5 0 27-.1 40.4-.2l40.2-.5 19.9-.3 19.8-.4c.2-3.5.2-6.9.2-10.2zM120.2 177c1-.6 1.9-1.5 2.5-2.4.7-.9 1.2-1.8 1.7-2.8.9-1.9.9-10.8 1.3-13.9.2.3.4.5.7.8.8 1 2.7 3 3.4 4.1 3.5 5.5 5.5 12.6 5.7 14 0 0 2.7 12.7 3.1 17.1-1.7-.8-3.4-1.8-4.9-2.8-2.1-1.4-4.1-2.9-6.1-4.4-2-1.6-3.9-3.1-5.8-4.9-.9-.9-1.8-1.8-2.9-2.5-.7-.4-1.5-.8-2.4-.9 1.2-.2 2.5-.7 3.7-1.4zm-22.1 19.1c-.6-1.7-1.3-3.3-2.2-4.9-.8-1.5-1.7-3-2.8-4.3.4 0 .8.1 1.2.1.9.1 1.9.1 2.8.2h1.7c1 1.4 1.9 2.7 2.8 4.1-1.2 1.4-2.3 2.9-3.4 4.4 0 .2 0 .2-.1.4zm-9.2-16.5c.6 0 1.1 0 1.7-.1l.8-.1H92s.2.1.3.2c.2.1.4.3.5.4.4.3.7.7 1.1 1.1 1.6 1.8 3.2 3.8 4.6 5.8-1.4-.2-2.8-.5-4.3-.7-1.8-.3-3.7-.6-5.5-1-1.8-.4-3.6-.8-5.4-1.3-1.7-.5-3.4-.9-5-1.5l.1-.1c.8-1 1.7-1.9 2.7-2.6.5-.3 1-.6 1.5-.8 1 .3 1.8.4 2.8.5 1.3.2 2.4.2 3.5.2zm-21.7-12.3c.5-1.2 1-2.4 1.6-3.5.6-1.1 1.3-2.2 2.1-3.2s1.6-2 2.6-2.9c.7-.7 1.5-1.4 2.2-2 .1 6.3.8 15.8 1.8 17.9.5 1 1.1 2 1.8 2.9.7.9 1.6 1.8 2.8 2.3.2.1.3.1.5.1-.5.2-1 .4-1.4.7-1.1.6-2 1.6-2.9 2.5-1.8 1.7-3.8 3.3-5.8 4.9s-4 3.1-6.1 4.4c-1.6 1-3.3 2-5 2.8 2.2-18.3 5.7-26.8 5.8-26.9zm-7.7 51.2-38.5.2c0-4.3.1-8.6.2-12.9.1-2.4.2-4.8.4-7.1.2-2.4.4-4.7.6-7.1.4-1.9 1.2-3.8 2.3-5.4 1.1-1.6 2.5-3.1 4.2-4.4.3-.2.5-.4.8-.6 1.6 2.9 3.3 5.7 5 8.5 1.8 2.9 3.6 5.8 5.5 8.7.5.8.9 1.4 1.1 2.2.3.8.5 1.6.6 2.4.4 1.6.6 3.3.8 5l.6 5.1c.2 1.7.3 3.4.5 5.1v-5.1l-.3-5.1c-.1-1.7-.4-3.4-.7-5.1-.2-.9-.4-1.7-.6-2.6-.2-.9-.7-1.7-1.2-2.4-1.9-2.9-3.7-5.8-5.7-8.6-1.8-2.7-3.7-5.4-5.6-8.1 3.1-2.2 6.7-3.7 10.3-5 4-1.4 8.1-2.4 12.2-3.9 3.9-1.6 10.1-2.6 13.9-4.4-1.8 4.4-3.9 10.7-6.6 27.8 0 .2 0 .4.1.6.2.5.8.7 1.3.5 2.4-1.2 4.5-2.6 6.6-4.1 2-1.6 4-3.2 5.9-4.9 1.8-1.7 3.7-3.3 5.3-5.2 1.5.9 3.2 1.6 4.8 2.2 1.8.6 3.6 1.1 5.4 1.5 1.4.3 2.8.5 4.1.6.6 1.7 1.3 3.3 2.2 4.8.9 1.6 1.8 3.1 3 4.5-.1.1-.2.3-.2.5-.1.4-.1.7-.2 1.1-.1.7-.1 1.4-.1 2.1v4.1c.1 2.7.2 5.4.4 8.1l.3 4.1c.1.9.2 1.8.3 2.6-13-.2-26-.3-39-.3zm39.9.3h-.7v-6.7l-.2-8.1c0-1.4-.1-2.7-.1-4 0-.7 0-1.3.1-2s.1-1.2.5-1.8c.6-1.2 1.4-2.3 2.2-3.4l.8-1.1c.1.1.2.2.4.3.6.3 1.3 0 1.6-.6.6-1.3 1.3-2.6 1.9-3.9 1.2 0 2.3-.1 3.4-.3 1.4-.2 2.8-.6 4.2-1-1.8 2.4-3.5 4.9-5.2 7.4-.9 1.3-1.8 2.6-2.7 4l-.7 1-.3.5c-.1.1-.3.5-.3.7-.2.9-.2 1.7-.3 2.5-.1 3.2.1 6.4.3 9.6.2 2.4.4 4.8.7 7.1l-5.6-.2zm40.2.5-34.3-.4-.1-2.4-.1-4.8c-.1-3.2-.2-6.4-.1-9.5 0-.8.1-1.6.2-2.3.1-.2 0-.2.2-.4l.3-.5.6-1c.8-1.4 1.7-2.7 2.5-4.1 1.6-2.6 3.1-5.1 4.6-7.8 1.4-.4 2.8-.9 4.1-1.5 1.3-.6 2.7-1.2 3.9-2l-4.2 1.2c-1.4.4-2.8.9-4.2 1.3l-4.2 1.2c-1 .3-2.1.5-3.1.8.2-.3.3-.7.5-1 .5-.9.9-1.7 1.5-2.5.5-.8 1.1-1.6 1.6-2 .6-.4 1.4-.9 2.3-1.2.9-.4 1.8-.7 2.7-1 .6-.2 1.2-.4 1.8-.7.8.2 1.7.6 2.4 1.1 1.1.7 1.9 1.6 2.7 2.6 1.7 1.9 3.6 3.6 5.4 5.3 1.9 1.7 3.8 3.3 5.9 4.9 2.1 1.5 4.2 2.9 6.6 4.1.2.1.4.1.6.1.5-.1.9-.6.8-1.1-.8-5-3.9-22.1-5.7-26.1 2.6 1.4 26.2 7.5 29.2 8.6 2.1.8 4.2 1.7 6.1 2.9-2 2.7-3.9 5.5-5.8 8.3-1.9 2.8-3.8 5.7-5.7 8.6-.4.7-1 1.5-1.2 2.4-.3.9-.5 1.7-.6 2.6-.3 1.7-.6 3.4-.7 5.1l-.3 5.1c0 1.7-.1 3.4 0 5.1.2-1.7.3-3.4.5-5.1l.6-5.1c.2-1.7.5-3.4.9-5l.6-2.4c.2-.8.6-1.4 1.1-2.2 1.8-2.9 3.7-5.8 5.5-8.7 1.8-2.9 3.5-5.8 5.1-8.7.8.5 1.6 1 2.3 1.6 2.4 2 4.2 4.7 5.1 7.8l.3 1.1.2 1.2.3 2.5.5 4.9c.3 3.3.6 6.6.8 9.9l.5 9.9-40.5-.7zm-37.8-21.9c.7 0 1.2.5 1.2 1.2s-.5 1.2-1.2 1.2-1.2-.5-1.2-1.2.5-1.2 1.2-1.2zm9.1-15.2c.7 0 1.2.5 1.2 1.2s-.5 1.2-1.2 1.2-1.2-.5-1.2-1.2.6-1.2 1.2-1.2zM102 216c.7 0 1.2.5 1.2 1.2s-.5 1.2-1.2 1.2-1.2-.5-1.2-1.2.5-1.2 1.2-1.2z" fill="#005f8c" stroke-width="none" opacity="1"></path></g><g id="svga-group-head" transform="matrix(1,0,0,1,0,0)"><g id="svga-group-ears-left-move" transform="matrix(1,0,0,1,0,0)"><g id="svga-group-ears-left" transform="matrix(1,0,0,1,0,0)"><path id="SvgjsPath4636" d="M58.8 91.7s-2.6-4.9-5.3-5.7-4.4.7-3.9 6.6 5.2 23.2 10.6 22.2c5.4-1.1.9-19.6-1.4-23.1z" fill="#fce3e1" stroke-width="none" opacity="1" stroke="none"></path><path id="SvgjsPath4637" d="M59.8 93.6c.3.7.6 1.5.8 2.2.5 1.5 1 3.1 1.4 4.8.4 1.6.7 3.4.9 5.2.1.9.2 1.8.2 2.7 0 .9 0 1.8-.1 2.8-.1.9-.3 1.8-.7 2.5-.3.7-.8 1.2-1.2 1.5-.9.5-1.9.4-2.8-.1-.9-.5-1.8-1.5-2.6-2.7s-1.4-2.5-2-4c-.6-1.4-1.1-3-1.6-4.5s-1-3.1-1.4-4.7-.8-3.3-1.1-5-.5-3.6-.3-5.4c.1-.9.3-1.8.7-2.4s.8-1 1.3-1.2.9-.2 1.4-.1.9.3 1.4.6c.9.6 1.7 1.5 2.5 2.5s1.5 2.2 2.2 3.4c.4.5.7 1.2 1 1.9zm-3.2-5c-.8-.9-1.6-1.6-2.5-1.9-.8-.3-1.7-.4-2.5-.1-.4.2-.7.4-1 .9s-.5 1.1-.6 1.8c-.2 1.4-.2 3.2.1 4.8.2 1.7.5 3.3.9 5 .8 3.2 1.8 6.3 3.1 8.9.6 1.3 1.3 2.5 2 3.5s1.5 1.8 2.3 2.2c.4.2.8.3 1.2.3s.8-.1 1.2-.4c.3-.2.7-.6.9-1.1s.4-1.2.5-1.9c.2-1.4.1-3.1 0-4.8-.1-1.7-.4-3.3-.7-5s-.7-3.3-1.1-4.9c-.4-1.6-1-3.1-1.7-4.3-.6-1-1.3-2.1-2.1-3z" fill="#edbfbc" stroke-width="none" opacity="1" stroke="none"></path><path id="SvgjsPath4638" d="M52.4 89.6c2.3 1.5 4.4 5.7 5.4 9.9v.1c0 .3-.2.4-.2.1-.4-1.2-.9-1.2-1.5 0-.1.8-.1 1.5.1 2.3.2.7.4 1.4.7 2 .5 1.2 1.2 2.1 1.8 3.1.2.3 0 .7-.2.6-1.4-1.1-3.4-4.7-3-7.8.2-1.5 1-2.3 1.6-1.7-.8-2.1-1.7-4-2.8-5.5-.6-.8-2-2.7-2.7-2.4-1.3.6-.6 4.8-.5 6.6 0 .3-.2.4-.3.1-.7-3.3-.8-9 1.6-7.4z" fill="#dd9e99" stroke-width="none" opacity="1" stroke="none"></path><path id="SvgjsPath4639" d="M58 108.6c-2.4-.9-4.2-4.8-5.2-9-.6-2.6-1.8-8.6.5-8.5.2 0 .3.5.1.6-2.2 1.1.2 9.2.9 11.1 1 2.6 2.2 4.4 3.8 5.4.1.1 0 .5-.1.4z" fill="#dd9e99" stroke-width="none" opacity="1" stroke="none"></path></g></g><g id="svga-group-ears-right-move" transform="matrix(1,0,0,1,0,0)"><g id="svga-group-ears-right" transform="matrix(1,0,0,1,0,0)"><path id="SvgjsPath4640" d="M141.2 91.7s2.6-4.9 5.3-5.7 4.4.7 3.9 6.6-5.2 23.2-10.6 22.2c-5.4-1.1-.9-19.6 1.4-23.1z" fill="#fce3e1" stroke-width="none" opacity="1" stroke="none"></path><path id="SvgjsPath4641" d="M141.1 91.7c.7-1.2 1.4-2.4 2.2-3.4s1.6-1.9 2.5-2.5c.5-.3.9-.5 1.4-.6s.9-.1 1.4.1.9.5 1.3 1.2c.4.6.6 1.5.7 2.4.2 1.8 0 3.7-.3 5.4-.3 1.7-.7 3.4-1.1 5-.4 1.6-.9 3.2-1.4 4.7s-1 3.1-1.6 4.5-1.3 2.8-2 4c-.8 1.2-1.6 2.2-2.6 2.7-.9.5-1.9.7-2.8.1-.5-.3-.9-.8-1.2-1.5s-.5-1.6-.7-2.5c-.1-.9-.1-1.8-.1-2.8 0-.9.1-1.8.2-2.7.2-1.8.5-3.5.9-5.2s.9-3.2 1.4-4.8c.3-.8.5-1.5.8-2.2.4-.7.7-1.4 1-1.9zm.1.1c-.7 1.2-1.2 2.7-1.7 4.3-.4 1.6-.8 3.2-1.1 4.9-.3 1.7-.5 3.3-.7 5-.1 1.6-.2 3.3 0 4.8.1.7.3 1.4.5 1.9s.6.9.9 1.1c.3.3.8.3 1.2.4.4 0 .8-.1 1.2-.3.8-.4 1.6-1.2 2.3-2.2s1.4-2.2 2-3.5c1.3-2.6 2.3-5.7 3.1-8.9.4-1.6.7-3.3.9-5 .2-1.6.3-3.4.1-4.8-.1-.7-.3-1.3-.6-1.8-.3-.4-.6-.7-1-.9-.8-.3-1.7-.2-2.5.1-.8.4-1.7 1-2.5 1.9-.7.7-1.4 1.8-2.1 3z" fill="#edbfbc" stroke-width="none" opacity="1" stroke="none"></path><path id="SvgjsPath4642" d="M147.6 89.6c-2.3 1.5-4.4 5.7-5.4 9.9v.1c0 .3.2.4.2.1.4-1.2.9-1.2 1.5 0 .1.8.1 1.5-.1 2.3-.2.7-.4 1.4-.7 2-.5 1.2-1.2 2.1-1.8 3.1-.2.3 0 .7.2.6 1.4-1.1 3.4-4.7 3-7.8-.2-1.5-1-2.3-1.6-1.7.8-2.1 1.7-4 2.8-5.5.6-.8 2-2.7 2.7-2.4 1.3.6.6 4.8.5 6.6 0 .3.2.4.3.1.7-3.3.8-9-1.6-7.4z" fill="#dd9e99" stroke-width="none" opacity="1" stroke="none"></path><path id="SvgjsPath4643" d="M142 108.6c2.4-.9 4.2-4.8 5.2-9 .6-2.5 1.8-8.5-.5-8.5-.2 0-.3.5-.1.6 2.2 1.1-.2 9.2-.9 11.1-1 2.6-2.2 4.4-3.8 5.4-.1.1 0 .5.1.4z" fill="#dd9e99" stroke-width="none" opacity="1" stroke="none"></path></g></g><g id="svga-group-faceshape-wrap" transform="matrix(1,0,0,1,0,0)"><g id="svga-group-faceshape-single"><path id="SvgjsPath3823" d="M143.2 106c.1-6.7 0-16-.1-24.1v-.3c-1.3-29.9-20.7-46.4-43.2-46.4S58.1 51.8 56.8 81.7v.3c0 8-.2 17.3-.1 24.1.3 17.1-1.2 18.4 3.7 23.9 2.2 2.5 9.9 9.4 14.1 12.2s11.3 15 16.1 15c5.3 0 6.5-1.4 9.3-1.4 2.8 0 4 1.4 9.3 1.4 4.8 0 11.9-12.2 16.1-15s11.9-9.7 14.1-12.2c5-5.6 3.5-6.9 3.8-24z" fill="#fce3e1" stroke-width="none" opacity="1" stroke="none"></path><path id="SvgjsPath3824" d="M90.6 157.2c5.3 0 6.5-1.4 9.3-1.4s4 1.4 9.3 1.4c4.8 0 11.9-12.2 16.1-15s11.9-9.7 14.1-12.2c5-5.6 3.5-6.9 3.8-24 .1-6.7 0-16-.1-24.1v-.3c-1.3-29.9-20.7-46.4-43.2-46.4S58.1 51.8 56.8 81.7v.3c0 8-.2 17.3-.1 24.1.3 17.1-1.2 18.4 3.7 23.9 2.2 2.5 9.9 9.4 14.1 12.2s11.3 15 16.1 15zm-30.2-31.1c-.8-1.2-1.1-2.4-1.3-4-.1-1.6-.2-3.4-.2-5.2 0-3.6-.1-7.2-.2-10.8-.1-7.2-.4-12.3-.6-19.5 0-1.8-.1-3.6-.1-5.3.1-1.7.2-3.5.3-5.3.3-1.7.4-3.5.8-5.2l.6-2.6c.2-.9.4-1.7.7-2.6 2.1-6.7 5.7-13.1 10.8-18 5.1-4.8 11.5-8.3 18.3-9.7 11.1-2.5 17.4-.6 20.7.4 6.8 2 12.5 5.6 17.4 10.2 4.9 4.7 8.6 10.7 11.1 17.2.4.8.6 1.6.9 2.5l.8 2.5c.5 1.7.8 3.4 1.2 5.2.3 1.7.5 3.5.7 5.2s.2 3.6.3 5.4c.3 7.2.5 12.4.5 19.5-.1 3.6-.1 7.2-.1 10.8 0 1.8-.1 3.6-.2 5.3-.2 1.8-.7 3.4-1.6 4.8-2 2.8-4.8 5-7.6 7.3-2.8 2.2-5.6 4.4-8.5 6.3 0 0-2.1 1.5-2.5 1.9-.7.7-1.4 1.3-2 2-1.3 1.3-2.5 2.7-3.7 4s-2.4 2.6-3.6 3.8c-.6.6-1.2 1.1-1.8 1.6-.6.5-1.5 1.7-8.1.1-.9-.3-2.1-.5-3.3-.5-1.2 0-2.4.2-3.3.5-.9.2-3.9.8-4.7.8-.4 0-1.6.1-3.2-1.1-1.7-1.2-4.1-4.1-5.2-5.5s-2.3-2.8-3.5-4.2c-.6-.7-1.3-1.4-2-2.1-.4-.4-2.5-2-2.5-2-2.8-1.9-5.5-4.2-8.2-6.5-2.7-2.4-5.5-4.7-7.1-7.2z" fill="#ce807a" stroke-width="none" opacity="1" stroke="none"></path></g></g><g id="svga-group-mouth-single-move" transform="matrix(1,0,0,1,0,0)"><g id="svga-group-mouth-single" transform="matrix(1,0,0,1,0,0)"><path id="SvgjsPath4473" d="M84.13 121.38s.02 2.5 1.11 4.36c0 0 4.32 4.53 9.9 8.4.19.14 8.24 1.16 10.36.41 0 0 8.36-5.19 10.19-9.12 0 0 .66-1.94.41-3.27 0 0-6.34 1.76-9.33 2.2-2.99.45-10.62 0-14.41-.57-3.8-.57-7.27-1.92-8.23-2.41z" fill="#000000" stroke-width="none" opacity="1" transform="translate(0 2)"></path><path id="SvgjsPath4474" d="M106.75 124.35c-2.99.45-10.62 0-14.41-.57-3.79-.57-7.26-1.92-8.22-2.41 0 0 .02 2.5 1.11 4.36l.19.19c1.51 1.07 3.66 2.31 6.2 2.99 5.05 1.36 15.17 1.9 22.14-1.92.58-.32 1.09-.63 1.57-.95.14-.21.25-.43.34-.64 0 0 .66-1.94.41-3.27.01.02-6.34 1.79-9.33 2.22z" fill="#ffffff" stroke-width="none" opacity="1" transform="translate(0 2)"></path><path id="SvgjsPath4475" d="M116.59 121.88c.16-.2 0-.49-.28-.48-1.71.52-2.76.73-4.08 1.09-1.18.32-9.11 1.01-11.89.99-9.17-.2-13.39-1.67-16.1-2.4-.22-.06-.44.18-.34.34-.21 1.26 1.06 4.43 1.06 4.45 2.41 3.32 6.15 6.2 9.6 8.45 2.45 1.59 9.23 1.33 10.89.76 2.36-.89 4.78-3.17 6.36-4.68 1.46-1.4 3.54-4 4.23-5.1.29-.44.46-.97.57-1.48.13-.52.3-1.38-.02-1.94zm-5.54 8.28c-2.42 2.24-5.67 3.61-5.82 3.62-1.9.17-3.8.26-5.72.19-1.36-.05-4.19-.4-4.31-.48-1.83-.93-3.63-2.15-5.26-3.53-1.59-1.34-3.52-2.92-4.56-4.42-.65-1.11-1.02-2.25-.86-3.72 4.7 2.47 10.68 3.54 15.92 3.58 2.85.02 5.63-.36 8.4-.92 2.13-.43 5.04-.89 7-2.08-.03.32-.02.66-.07.97-.09.56.23 2.27-4.72 6.79z" fill="#da7c87" stroke-width="none" opacity="1" transform="translate(0 2)" stroke="none"></path></g></g><g id="svga-group-eyes-left-move" transform="matrix(1,0,0,1,0,0)"><g id="svga-group-eyes-left" transform="matrix(1,0,0,1,0,0)"><g id="svga-group-eyesback-left"><path id="SvgjsPath5090" d="M89.4 95.2s-.9-2.5-2.2-3.9c-1.4-1.4-5.5-3.6-10.2-1.8-4.7 1.8-6.8 4.7-6.8 4.7s.7 1.8 3.4 3.2c2.7 1.5 6.4 2.7 10.4 1.4s5.4-3.6 5.4-3.6z" fill="#ffffff" stroke-width="none" opacity="1"></path></g><g id="svga-group-eyesiriswrapper-left" transform="matrix(1,0,0,1,0,0)"><g id="svga-group-eyesiriscontrol-left" transform="matrix(1,0,0,1,0,0)"><g id="svga-group-eyesiris-left" transform="matrix(1,0,0,1,0,0)"><path id="SvgjsPath3490" d="M80.1 88.4c2.8 0 5.2 2.3 5.2 5.2s-2.3 5.2-5.2 5.2-5.2-2.3-5.2-5.2 2.3-5.2 5.2-5.2z" fill="#4e60a3" stroke-width="none" opacity="1"></path><path id="SvgjsPath3491" d="M80.1 90.8c1.5 0 2.8 1.2 2.8 2.8s-1.2 2.8-2.8 2.8-2.8-1.2-2.8-2.8 1.2-2.8 2.8-2.8z" fill="#000000" stroke-width="none" opacity="1"></path><path id="SvgjsPath3492" d="m79.4 91.3-.6-.6c-.2-.2-.4-.3-.7-.3-.2 0-.5.1-.7.3-.2.2-.3.4-.3.7s.1.5.3.7l.6.6c.2.2.4.3.7.3.2 0 .5-.1.7-.3.3-.5.4-1.1 0-1.4zm2.5 4.7c.9 0 .9-1.4 0-1.4s-.8 1.4 0 1.4z" fill="#ffffff" stroke-width="none" opacity="1"></path></g></g></g><g id="svga-group-eyesfront-left"><path id="SvgjsPath5098" d="M69.4 94.6c0 6.4 4.7 11.5 10.6 11.5s10.6-5.2 10.6-11.5S85.9 83.1 80 83.1s-10.6 5.1-10.6 11.5zm.8-.4s2.1-2.8 6.8-4.7c4.7-1.8 8.9.4 10.2 1.8 1.4 1.4 2.2 3.9 2.2 3.9S88 97.5 84 98.8c-4 1.3-7.7.1-10.4-1.4-2.7-1.4-3.4-3.2-3.4-3.2z" fill="#fce3e1" stroke-width="none" opacity="1" stroke="none"></path><path id="SvgjsPath5099" d="M80.6 85.4c5.1.1 9.5 4.5 9 9.7 0 .1-.1.1-.1.1l.1.1c-.6 2.6-3.3 5.2-5.9 5.8-.2 0-.3-.2-.1-.3 1.2-.6 2.4-1.2 3.4-2.2 1-1 1.7-2.2 2.4-3.4l.1-.1V95c-.7-5.5-5-10.1-11-8.8-2.5.7-4.5 2.1-6.2 3.8-1.4 1.6-2.2 3.5-3.6 5.1-.1.2-.4 0-.3-.2 1.2-5 7.1-9.7 12.2-9.5z" fill="#edbfbc" stroke-width="none" opacity="1" stroke="none"></path><path id="SvgjsPath5100" d="M67.5 96.9c.9-.7 1.8-1.4 2.6-2.1 4.5 6.5 14.1 6.7 19.3 1 .1 0 .2-.1.2-.2l.2-.2c.2-.2 0-.6-.2-.6-.5-4.2-5-6.7-9-6.6-5.2.1-10.8 3.8-13.8 7.9-.4.5.2 1.1.7.8zm3.1-2.5c2.1-1.8 4.3-3.6 7.2-4.4 4.8-1.4 9.5.5 11.2 5.2-5.5 5.5-13.4 4.8-18.4-.8z" fill="#000000" stroke-width="none" opacity="1" stroke="none"></path></g></g></g><g id="svga-group-eyes-right-move" transform="matrix(1,0,0,1,0,0)"><g id="svga-group-eyes-right" transform="matrix(1,0,0,1,0,0)"><g id="svga-group-eyesback-right"><path id="SvgjsPath5091" d="M110.6 95.2s.9-2.5 2.2-3.9c1.4-1.4 5.5-3.6 10.2-1.8 4.7 1.8 6.8 4.7 6.8 4.7s-.7 1.8-3.4 3.2c-2.7 1.5-6.4 2.7-10.4 1.4s-5.4-3.6-5.4-3.6z" fill="#ffffff" stroke-width="none" opacity="1"></path></g><g id="svga-group-eyesiriswrapper-right" transform="matrix(1,0,0,1,0,0)"><g id="svga-group-eyesiriscontrol-right" transform="matrix(1,0,0,1,0,0)"><g id="svga-group-eyesiris-right" transform="matrix(1,0,0,1,0,0)"><path id="SvgjsPath3493" d="M119.9 88.4c2.8 0 5.2 2.3 5.2 5.2s-2.3 5.2-5.2 5.2-5.2-2.3-5.2-5.2 2.4-5.2 5.2-5.2z" fill="#4e60a3" stroke-width="none" opacity="1"></path><path id="SvgjsPath3494" d="M119.9 90.8c1.5 0 2.8 1.2 2.8 2.8s-1.2 2.8-2.8 2.8-2.8-1.2-2.8-2.8 1.3-2.8 2.8-2.8z" fill="#000000" stroke-width="none" opacity="1"></path><path id="SvgjsPath3495" d="m119.3 91.3-.6-.6c-.2-.2-.4-.3-.7-.3-.2 0-.5.1-.7.3-.2.2-.3.4-.3.7s.1.5.3.7l.6.6c.2.2.4.3.7.3.2 0 .5-.1.7-.3.3-.5.4-1.1 0-1.4zm2.5 4.7c.9 0 .9-1.4 0-1.4s-.9 1.4 0 1.4z" fill="#ffffff" stroke-width="none" opacity="1"></path></g></g></g><g id="svga-group-eyesfront-right"><path id="SvgjsPath5101" d="M120 83.1c-5.9 0-10.6 5.2-10.6 11.5s4.7 11.5 10.6 11.5 10.6-5.2 10.6-11.5-4.8-11.5-10.6-11.5zm6.4 14.3c-2.7 1.5-6.4 2.7-10.4 1.4-4-1.3-5.4-3.6-5.4-3.6s.9-2.5 2.2-3.9c1.4-1.4 5.5-3.6 10.2-1.8 4.7 1.8 6.8 4.7 6.8 4.7s-.7 1.8-3.4 3.2z" fill="#fce3e1" stroke-width="none" opacity="1" stroke="none"></path><path id="SvgjsPath5104" d="M119.4 85.4c-5.1.1-9.5 4.5-9 9.7 0 .1.1.1.1.1l-.1.1c.6 2.6 3.3 5.2 5.9 5.8.2 0 .3-.2.1-.3-1.2-.6-2.4-1.2-3.4-2.2-1-1-1.7-2.2-2.4-3.4l-.1-.1V95c.7-5.5 5-10.1 11-8.8 2.4.5 4.5 1.9 6.1 3.7 1.4 1.6 2.2 3.5 3.6 5.1.1.2.4 0 .3-.2-1.1-4.9-7-9.6-12.1-9.4z" fill="#edbfbc" stroke-width="none" opacity="1" stroke="none"></path><path id="SvgjsPath5105" d="M133.3 96.1c-3-4.1-8.6-7.8-13.8-7.9-4-.1-8.5 2.4-9 6.6-.2 0-.4.3-.2.6l.2.2c0 .1.1.2.2.2 5.2 5.7 14.8 5.5 19.3-1 .8.7 1.7 1.4 2.6 2.1.4.3 1-.3.7-.8zm-22.3-.9c1.8-4.7 6.4-6.6 11.2-5.2 2.9.8 5 2.6 7.2 4.4-5 5.6-12.9 6.3-18.4.8z" fill="#000000" stroke-width="none" opacity="1" stroke="none"></path></g></g></g><g id="svga-group-facehighlight-single"></g><g id="svga-group-eyebrows-left-move" transform="matrix(1,0,0,1,0,0)"><g id="svga-group-eyebrows-left-rotate" transform="matrix(1,0,0,1,0,0)"><g id="svga-group-eyebrows-left" transform="matrix(1,0,0,1,0,0)"><path id="SvgjsPath5715" d="M67 82.5c.1-.3.3-.6.5-.8.1-.2.3-.5.5-.7.2-.2.4-.4.7-.6.5-.9 1.7-1.6 2.5-2.1.9-.5 1.8-.9 2.9-.9 1-.2 2.1-.2 2.9.2.4 0 .7.1 1 .3 1.1-.1 2.3.2 3.3.4 1.4.3 2.8.6 4.1 1.2 1.4 0 2.8.1 4.1.5h.2c.1 0 .2.1.2.1h.1c.1 0 .2.1.3.2.1.1 0 .3 0 .4v.1c0 .2 0 .4-.1.6 0 .6-.1 1.1-.5 1.6 0 .1 0 .2-.1.3-.1.5-.2 1.1-.7 1.4-.2.2-.5.3-.8.3-.1 0-.2 0-.3-.1h-.6c-.6.2-1.4 0-1.9-.1-.6-.1-1.2-.3-1.7-.6-1.8-.3-3.5-.8-5.3-1.2-1.6-.4-4-.4-5.4-1.3-.7.1-1.3.2-2 .2-.3 0-.7.1-1.1 0-.2 0-.5 0-.7-.2 0 0-.1 0-.1-.1h-.1l-.4.4c-.3.3-.7.7-1.2.8-.1.2-.3 0-.3-.3z" fill="#2a232b" stroke-width="none" opacity="1"></path><path id="SvgjsPath5716" d="M87.7 83c-.1-.6-.2-1.2-.4-1.7 0-.2.2-.3.3-.1.7 1 .9 2.8.2 3.9-.1.2-.3.1-.3-.1.1-.8.2-1.4.2-2zm-3.4-3.2c1.3.8 2.1 2.6 2.1 4 0 .2-.3.3-.3.1-.2-.7-.4-1.3-.7-1.9-.3-.7-.9-1.2-1.3-1.9-.3-.2 0-.4.2-.3zm-3.3-.7c2.2.8 3.8 3.2 4.2 5.3 0 .2-.2.2-.3.1-.4-1-.9-2-1.7-2.8-.7-.9-1.6-1.4-2.5-2.2-.2-.1.1-.5.3-.4zm-4.9-.8c2.4.6 4.8 2.6 5.8 4.7.1.2-.3.4-.4.2-.8-1-1.6-1.9-2.6-2.7-.9-.7-2-1.2-3-1.8-.2-.1-.1-.4.2-.4zM67.4 82c1.6-1.8 3.8-4.3 6.5-4 .2 0 .2.3 0 .3-2.6.2-4.3 2.5-6.3 3.9-.2.1-.4-.1-.2-.2z" fill="#3a353a" stroke-width="none" opacity="1"></path><path id="SvgjsPath5717" d="M90.9 80.6c-.1-.3-.5-.3-.6 0-.3 1.1-.3 2.4-1.2 3.3-.6.7-1.5.8-2.4.7.3-1.5.2-3.7-.8-4.9-.2-.2-.5-.1-.4.2 0 .8.4 1.6.5 2.4.1.8.2 1.5.2 2.3-.1 0-.2 0-.3-.1-.3-2-1.3-4.1-2.8-5.5 2.3.5 4.6.9 6.9 1.1.1 0 .2-.2.1-.2-2.6-.9-5.3-1.4-8-2-2.4-.5-5.1-1.4-7.6-1.5-2.1-.1-3.6.9-5 2.2-1.5 1.4-3.1 3.1-4.1 4.9l-.2.2c-.1.1-.2.3-.1.4 0 0 0 .1-.1.1-.2.4.3.7.6.4.1 0 .2 0 .3-.1 1.4-.7 2.5-1.4 4.1-1.6 1.3-.2 2.7-.1 4 .1 2.9.4 5.6 1.3 8.3 2.1 2.1.6 4.9 1.7 6.9.2 1.7-1 1.9-3.1 1.7-4.7zm-13.4 1.3c-.5-.1-1.1-.2-1.7-.3.1-1.1-.3-2.3-.8-3.3.7.6 1.4 1.2 2 1.9.6.6.9 1.4 1.5 2-.4-.1-.7-.2-1-.3zM70 79.5c1.2-1.1 2.5-1.7 4-1.9.2.8.6 1.6.7 2.4l.3 1.5c-.3 0-.7-.1-1-.1-.5-.9-1.3-1.8-2.3-2.1-.2-.1-.3.2-.2.4.4.4.9.8 1.3 1.2.1.2.2.3.4.5-1.9-.1-3.8.1-5.4.8.6-1 1.3-1.9 2.2-2.7zm15.2 4.8c-.2-.1-.4-.1-.6-.2-.4-.1-.9-.3-1.3-.4-.8-1.8-2.1-3.6-3.7-4.8-.2-.1-.4.1-.3.2 1.2 1.4 2.2 2.9 3.3 4.4-1.1-.4-2.2-.7-3.2-1.1-.2-1.1-1.2-2.2-1.9-3-.7-.7-1.5-1.4-2.4-1.9.4 0 .8.1 1.3.1 2 .3 4 .8 6 1.2v.1c.7 1.1 1.5 2.2 2.1 3.3.2.7.4 1.4.7 2.1z" fill="#1b141c" stroke-width="none" opacity="1"></path></g></g></g><g id="svga-group-eyebrows-right-move" transform="matrix(1,0,0,1,0,0)"><g id="svga-group-eyebrows-right-rotate" transform="matrix(1,0,0,1,0,0)"><g id="svga-group-eyebrows-right" transform="matrix(1,0,0,1,0,0)"><path id="SvgjsPath5718" d="M133 82.5c-.1-.3-.3-.6-.5-.8-.1-.2-.3-.5-.5-.7-.2-.2-.4-.4-.7-.6-.5-.9-1.7-1.6-2.5-2.1-.9-.5-1.8-.9-2.9-.9-1-.2-2.1-.2-2.9.2-.4 0-.7.1-1 .3-1.1-.1-2.3.2-3.3.4-1.4.3-2.8.6-4.1 1.2-1.4 0-2.8.1-4.1.5h-.2c-.1 0-.2.1-.2.1h-.1c-.1 0-.2.1-.3.2-.1.1 0 .3 0 .4v.1c0 .2 0 .4.1.6 0 .6.1 1.1.5 1.6 0 .1 0 .2.1.3.1.5.2 1.1.7 1.4.2.2.5.3.8.3.1 0 .2 0 .3-.1h.6c.6.2 1.4 0 1.9-.1.6-.1 1.2-.3 1.7-.6 1.8-.3 3.5-.8 5.3-1.2 1.6-.4 4-.4 5.4-1.3.7.1 1.4.2 2 .2.3 0 .7.1 1.1 0 .2 0 .5 0 .7-.2 0 0 .1 0 .1-.1h.1l.4.4c.3.3.7.7 1.2.8.1.2.3 0 .3-.3z" fill="#2a232b" stroke-width="none" opacity="1"></path><path id="SvgjsPath5719" d="M112.3 83c.1-.6.2-1.2.4-1.7 0-.2-.2-.3-.3-.1-.7 1-.9 2.8-.2 3.9.1.2.3.1.3-.1-.1-.8-.2-1.4-.2-2zm3.4-3.2c-1.3.8-2.1 2.6-2.1 4 0 .2.3.3.3.1.2-.7.4-1.3.7-1.9.3-.7.9-1.2 1.3-1.9.3-.2 0-.4-.2-.3zm3.3-.7c-2.2.8-3.8 3.2-4.2 5.3 0 .2.2.2.3.1.4-1 .9-2 1.7-2.8.7-.9 1.6-1.4 2.5-2.2.2-.1-.1-.5-.3-.4zm4.9-.8c-2.4.6-4.8 2.6-5.8 4.7-.1.2.3.4.4.2.8-1 1.6-1.9 2.6-2.7.9-.7 2-1.2 3-1.8.2-.1.1-.4-.2-.4zm8.7 3.7c-1.6-1.8-3.8-4.3-6.5-4-.2 0-.2.3 0 .3 2.6.2 4.3 2.5 6.3 3.9.2.1.4-.1.2-.2z" fill="#3a353a" stroke-width="none" opacity="1"></path><path id="SvgjsPath5720" d="M110.6 85.3c2 1.5 4.8.4 6.9-.2 2.8-.8 5.5-1.8 8.3-2.1 1.3-.2 2.7-.3 4-.1 1.6.2 2.7.9 4.1 1.6.1.1.2.1.3.1.3.3.8 0 .6-.4 0 0 0-.1-.1-.1 0-.1 0-.3-.1-.4l-.2-.2c-1-1.8-2.6-3.5-4.1-4.9-1.4-1.3-2.9-2.3-5-2.2-2.5.1-5.2 1-7.6 1.5-2.7.6-5.4 1.1-8 2-.2.1-.1.2.1.2 2.3-.2 4.6-.6 6.9-1.1-1.5 1.4-2.5 3.5-2.8 5.5-.1 0-.2 0-.3.1.1-.8.1-1.5.2-2.3.1-.8.5-1.6.5-2.4 0-.2-.3-.3-.4-.2-1 1.2-1.1 3.4-.8 4.9-.9.1-1.7 0-2.4-.7-.8-.9-.9-2.2-1.2-3.4-.1-.3-.5-.3-.6 0 0 1.7.2 3.8 1.7 4.8zm10.9-3.2c.5-.6.9-1.4 1.5-2 .6-.7 1.3-1.3 2-1.9-.5 1-.9 2.3-.8 3.3-.6.1-1.2.2-1.7.3-.3.2-.6.3-1 .3zm10.8 0c-1.6-.7-3.6-.9-5.4-.8.1-.2.2-.3.4-.5.4-.5.9-.8 1.3-1.2.1-.1.1-.4-.2-.4-1 .3-1.8 1.2-2.3 2.1-.3 0-.7.1-1 .1l.3-1.5c.2-.8.5-1.6.7-2.4 1.4.2 2.7.8 4 1.9.8.9 1.5 1.8 2.2 2.7zm-16.7.2c.6-1.2 1.4-2.2 2.1-3.3v-.1c2-.4 4-.9 6-1.2.4-.1.9-.1 1.3-.1-.9.5-1.7 1.2-2.4 1.9-.7.8-1.7 1.9-1.9 3-1.1.3-2.2.7-3.2 1.1 1-1.5 2.1-2.9 3.3-4.4.1-.2-.1-.3-.3-.2-1.6 1.2-2.9 3-3.7 4.8-.4.1-.9.3-1.3.4-.2.1-.4.1-.6.2.2-.8.4-1.5.7-2.1z" fill="#1b141c" stroke-width="none" opacity="1"></path></g></g></g><g id="svga-group-beardwrap" transform="matrix(1,0,0,1,0,0)"><g id="svga-group-beard-single-move" transform="matrix(1,0,0,1,0,3)"><g id="svga-group-beard-single" transform="matrix(0.9999999,0,0,0.9999999,0.000009987977207970289,0.000012778370276578244)"><path id="SvgjsPath8594" d="m126.8 120.8.6.6s-.5-4-4.5-6.3-10-1-13.3-.1-6.3 2.7-9.2 2.7c-8.2 0-11.9-5-22.4-3.3s-6.8 20.4-3.3 27.2l.6-.9s3.1 8.3 7.7 12.1l.2-1s5.3 6.1 14.2 8.3 14.9-3.1 14.9-3.1v.9s7.4-4.9 9.3-9.1c0 0 4.2-5.9 5.6-13.1 1.2-7.4-.4-14.9-.4-14.9zm-8.9 15c-3.1 7.2-8 8.2-10.7 7.4-2.7-.8-1.5-5.3-1.5-5.3-3 .3-9.7-.1-9.7-.1s2.6 5.7-5 5.4c-7.6-.3-13-12.3-13.5-15.7-.5-3.4.2-8.3 4.4-9.8s13.8 2.6 18 2.4c7.7-.3 12.8-3.3 17.5-2.6s3.6 11.2.5 18.3z" fill="#4d2515" stroke-width="none" opacity="1" stroke="none"></path><path id="SvgjsPath8595" d="M79.7 134.5c-2.1-5.3-4.5-12.2 1.8-15.7 4.6-2.5 9.2.1 13.8 1 7.7 1.5 13.9-2.8 21.3-2.9.2 0 .2-.3 0-.3-5.6-.8-11 2.5-16.7 2.5-5.3 0-10.3-3.2-15.7-2.6-9.4 1.1-8.9 11.8-5.3 18.2.3.4.9.2.8-.2zm-5.5-17.6c.1-.1-.1-.2-.2-.1-4.8 7.2-3.3 16.8.4 24 .2.3.7.1.6-.3-3-8-4.7-15.3-.8-23.6zm.5 20.7c-.1-.2-.4-.1-.3.1 1.3 5.7 4 12.1 8.5 16 .2.2.6-.1.4-.3-3.5-5.2-6.8-9.6-8.6-15.8zm25.9 23c-4.9 0-8.2-2.7-11.3-6.1-.2-.2-.5.1-.3.3 1 1.3 2.2 2.8 3.6 3.9-2-1.3-4-2.5-5.8-4.2-1.9-1.9-3.4-4.1-4.6-6.4-.1-.2-.5-.1-.4.2 1.7 4.9 6.1 10.1 11.2 11.6.3.1.4-.2.4-.4 2.1 1.6 4.6 2.5 7.3 1.8.2-.3.1-.7-.1-.7zm1.7-.9c-3-.3-5.4-.9-7.6-3-.3-.2-.6.1-.4.4 2 2.1 5.1 3.8 8.1 3.2.4-.1.3-.6-.1-.6zm2.6-.3c-.8-.2-1.7-.4-2.5-.8-.2-.1-.4.2-.2.3.8.4 1.7.7 2.6.7.2 0 .2-.2.1-.2zm-22.7-13.6c.2.1.3-.1.2-.3-3.3-3.3-6.1-6.9-7.8-11.3-.1-.2-.3-.1-.3.1 1.6 4.5 4.1 8.6 7.9 11.5zm14.3-7.7c-.1-.4-.7-.3-.7.1-.1 1.1 0 2.2-.3 3.2s-.9 1.7-1.8 2.3c-.2.2-.2.7.2.6 2.8-.3 3.1-4.1 2.6-6.2zm-12 8.9c-.1-.1-.4 0-.3.2.7 1.2 2 2.3 3.1 3.2.1.1.2.1.3 0 1.7 1.9 3.9 3.3 6.2 4 .2 0 .3 0 .3-.1 1.2.9 2.5 1.7 3.9 2.2.2.1.4-.3.2-.4-2.5-1.5-4.9-2.9-6.8-5.1-.2-.2-.5.1-.3.3.5.6 1.1 1.3 1.8 1.9-3-1.6-5.2-3.7-7.2-6.5-.1-.2-.4-.1-.3.1.3.8.8 1.6 1.3 2.4-.2-.2-.4-.4-.7-.6-.5-.5-.9-1.1-1.5-1.6zm26.4 9.5c-1.2 1.1-2.4 2.1-3.8 2.9-.3.1 0 .5.2.4 1.5-.7 2.9-1.6 3.9-3.1.1-.1-.2-.3-.3-.2zm6.2-5.6c-1.5 2.6-2.9 4.8-5.3 6.7-.2.2.1.5.3.4 2.5-1.5 4.7-4 5.4-6.9.1-.2-.3-.4-.4-.2zm8.5-14.7c-.3 2.4-.9 4.7-1.8 6.9-.1-.1-.4-.1-.5.1-.7 1.9-1.3 3.8-2.4 5.5s-2.6 3.1-4 4.5c-.2.2.1.5.3.4 3.3-1.9 5.9-5.8 6.5-9.5 1.5-2.4 2.3-5.1 2.3-7.9 0-.2-.4-.2-.4 0zm-5.3-4.1c-1.4 5.6-4.5 11.8-11 12.5-.3 0-.4.4-.1.5 11.1 2.8 19.1-25.2 8.1-28.2-.2-.1-.3.2-.1.3 5.3 2.5 4.3 10.2 3.1 14.9zm7.1-6.4c0-.2-.3-.1-.3 0 .3 2.2.2 4.3.2 6.5 0 .2.3.2.3.1.5-2.2.2-4.4-.2-6.6zm-1 3.9c.4 3.1 0 5.9-.4 9 0 .3.4.4.5.1 1.1-2.9 1-6.2.3-9.2 0-.2-.4-.1-.4.1zm-18 23.4c-1.1 2.1-2.3 3.9-3.9 5.7-.2.3.1.6.4.4 1.8-1.6 3.2-3.6 3.8-5.9.1-.2-.2-.4-.3-.2zm2-.2-1.2 1.8c-.5.6-1 1.2-1.6 1.7-.2.2.1.6.4.4 1.1-.9 2.3-2.2 2.8-3.6 0-.3-.2-.5-.4-.3zm2.2-1.7c-.3.9-.8 1.8-1.4 2.6-.1.2.2.3.3.1.6-.9 1-1.7 1.2-2.7 0 0-.1-.1-.1 0zM92.8 148c-.2-.2-.4.1-.3.3.9 1 1.7 2.2 2.7 3.1.1.1.3 0 .3-.2-.7-1.2-1.8-2.3-2.7-3.2zm6.1 6.2c-.3-.5-.8-.9-1.2-1.3-.4-.5-.8-1.1-1.1-1.7-.1-.2-.5 0-.3.2.6 1.1 1.3 2.4 2.5 2.9 0 .1.2 0 .1-.1zm0-.6c.1.6.3 1.4.7 1.9.1.1.3 0 .3-.2-.2-.6-.5-1.2-.6-1.8 0-.2-.4-.1-.4.1z" fill="#3e190b" stroke-width="none" opacity="1" stroke="none"></path></g></g></g><g id="svga-group-mustache-single-move" transform="matrix(1,0,0,1,0,0)"><g id="svga-group-mustache-single" transform="matrix(1,0,0,1,0,0)"></g></g><g id="svga-group-nose-single-move" transform="matrix(1,0,0,1,0,0)"><g id="svga-group-nose-single" transform="matrix(1,0,0,1,0,0)"><path id="SvgjsPath4189" d="M105.29 106.89c.58.27 1.23 1.04 1.94 3.17s1.23 3.69 1.37 4.83c.14 1.14-.99 2.32-1.71 2.46s-1.28-.33-1.56-1.09-.38-1.89-1.23-2.42c0 0-.81 2.27-1.52 2.79s-1.94 1.71-3.65.85c-1.71-.85-1.94-2.08-2.08-2.13-.14-.05-1.28 1.52-1.85 1.89-.57.38-2.37.95-3.13 0-.76-.95-.09-4.59.09-5.73.19-1.14.9-3.74 1.61-4.36.71-.62 1.71-.76 2.37-.33 0 0 .14-3.17.52-4.64.38-1.47 2.37-2.08 4.22-1.89s3.17.71 3.5 1.8c.35 1.1.4 4.46 1.11 4.8z" fill="#fce3e1" stroke-width="none" opacity="1" transform="translate(0 1)" stroke="none"></path><path id="SvgjsPath4190" d="M96.01 116.09c-.3.22-.45.35-.75.57-.21.16-.43.32-.64.48-.58.5-1.14.44-1.69-.18-1.07-.57-1.09-.69-1.06-1.78.01-.5.08-1.02.14-1.52.17-1.47.94-7.73 3.61-6.8h.02c0 .31 0 .61.01.92.01.27.42.35.48.07.69-2.93.68-6.14.96-9.14.3-3.15.99-6.54.77-9.7-.01-.15-.23-.2-.28-.04-.78 2.89-.76 6.14-1.06 9.11-.28 2.74-.82 5.61-.88 8.4-3.37-1.25-4.22 6.04-4.41 7.99-.13 1.31-.17 3.14 1.35 3.68 1.5.53 2.91-.64 3.66-1.82.1-.14-.09-.34-.23-.24z" fill="#ce807a" stroke-width="none" opacity="1" transform="translate(0 1)" stroke="none"></path><path id="SvgjsPath4191" d="M105.17 115.05c.11.18.15.22.3.33.11.08.26.01.33-.09.03-.04.05-.08.07-.12.07-.16-.01.02.02-.09.03-.15.03-.25-.03-.4-.09-.24-.26-.46-.45-.62-.32-.27-.74-.44-1.16-.4.01-.1.03-.2.03-.29 0-.18-.24-.24-.33-.09-.89 1.4-1.09 3.44-2.94 4.03-2.21.71-3.7-1.7-4.66-3.3.07-.1.08-.25-.02-.33-.86-.72-2.64.33-2.55 1.42.03.3.34.42.57.24.32-.25.51-.6.87-.8.26-.14.54-.23.81-.35.74 2.01 2.24 4.33 4.72 3.96 1.81-.27 3.09-2.13 3.43-3.9.28.08.54.19.75.42.09.11.16.25.24.38z" fill="#ce807a" stroke-width="none" opacity="1" transform="translate(0 1)" stroke="none"></path><path id="SvgjsPath4192" d="M107.09 109.08c-.39-.91-.85-2.69-2.05-2.36.04-1.46-.39-2.97-.53-4.42-.14-1.35-.13-2.72-.32-4.07-.02-.12-.17-.07-.19.03-.22 1.63-.03 3.34.18 4.97.15 1.17.26 2.44.77 3.52-.05.02-.1.03-.15.05-.12.06-.03.22.08.2 1.32-.24 2.37 3.95 2.68 4.9.28.87.64 1.86.66 2.78.03 1.4-1.56 3.39-2.71 1.5-.14-.24-.45-.07-.42.18.14.97 1.15 1.48 2.07 1.24 1.25-.33 1.77-1.73 1.71-2.91-.08-1.88-1.05-3.9-1.78-5.61z" fill="#ce807a" stroke-width="none" opacity="1" transform="translate(0 1)" stroke="none"></path><path id="SvgjsPath4193" d="M103.73 108.8c-.04-1.57-.42-3.09-.82-4.6-.39-1.48-.61-3.13-1.39-4.47-.18-.31-.73-.28-.8.11-.45 2.35.25 5.03.38 7.41.06 1.21.11 2.45-.17 3.63-.26 1.1-.87 2.06-1.2 3.13-.17.55.41 1.19.98.98 2.41-.87 3.07-3.87 3.02-6.19z" fill="#fff2f0" stroke-width="none" opacity="1" transform="translate(0 1)" stroke="none"></path></g></g><g id="svga-group-hair-front" transform="matrix(1,0,0,1,0,0)"><path id="SvgjsPath8636" d="M95.5 46.3s-.9 4.4 4.2 5 7.8 7.1 3.6 9.4c0 0 6.7-1 6.7-9.4 0 0 3.3 6.9 8.4 5.6 5.1-1.3 6.5 0 6.5 0s-3.1 1.7-.9 6.9 8.5.7 8.5.7 5.8 5.8 1.4 9.1c0 0 1.1-.2 2.5-1.6 0 0-3.4 5.6-1.8 10.1 1.6 4.4 3.6 3.2 3.1 5.2-.6 1.9-4.7 2.7-3.6 5.4s4.4 3.6 4.4 5.2.4 4-1.6 4.8c0 0 3.3.2 4.2-3.8.9-4 0-5-.2-6.9-.2-1.9 3.3-6.6 5.3-6.6s7.3-3.7 6.4-6.7-2.2-3.5-3.3-6.6 2.9-6.4 4.4-5.2c0 0-3.6-5.4-6.9-2.7 0 0-1.3-.4.4-2.7 1.6-2.3.7-9.4-2.7-10.4s-2.7-4.6-4.2-7.9c-1.4-3.3-6.4-3.7-6.4-3.7s1.4-4.6-2-6.9-7.4 1-8.9-.8-.4-3.9-.4-3.9-3.1.2-3.4 1.5c0 0-1.4-1.4-3.1-4.2s-7.6-3.9-11.4-1c0 0-1.6-4-5.8-4s-6.7 1.7-7.4 4c0 0 4.2-3.7 6.4.8s-5.8 2.9-5.4.6c0 0-1.4 2.9-3.3 2.5S87.8 26 86 25.4c-1.8-.6-4.2.2-5.1 2.5s-4.5 5.2-5.8 3.1c-1.3-2.1.9-3.5.9-3.5s-4.4 1.2-4.4 4.4c0 0-4-1.5-6.2 1.4s-.7 6.5-2.4 6.5-2.9-2.3-4.4.6c-1.5 2.9.5 3.8-.9 4.6s-4.4 1.7-4.4 5c0 0-7.8 4-5.5 8.9s5.5 5.4 3.5 7.9-4 0-4.7 2.9c-.7 2.9.9 2.7 0 4.4s-3.5 2.3-4.2 1c0 0 1.3 2.1 2.5 2.5 1.3.4 4.9-2.5 4.9-2.5s-3.5 2.5-3.3 6-.4 5.6 2 5.8 4.2-2.7 6-1.2c1.8 1.5-.7 1 1.5 4.4s3.1 5 2 6.7c-1.1 1.7.2 3.8 1.6 4.2 0 0-1.1-2.3 0-3.7s2.7-3.8 1.5-6.7-2.9-6.8-1.6-9.3 2.5-4.4 2-6.7-.5-.6 0-.8c.5-.2 2.5 2.1 2 5 0 0 2.7-5.4 1.8-8.1-.9-2.7 0-7.1 2-6.2 2 1 5.1 2.4 6.5.5s1.8-5 1.8-5 3.6 2.3.6 5.8c-3.1 3.5.9 7.7.9 7.7s-1.8-2.9 0-5.4 5.4-4.2 4.7-6.9c-.7-2.7-1.4-4.2-1.4-4.2s1.4-4.2 3.8-2.1-.9 5.4-.9 5.4 4.4-.4 5.4-3.7.6-3.7 1.3-6.2c.9-2.3 2.9 1.3 5.5-4.1z" fill="#793d0f" stroke-width="none" opacity="1" stroke="none"></path><path id="SvgjsPath8637" d="M104.6 52.2c-1.2-.8-2.5-1.2-4-1.4-4.7-.8-4.7-4.5-2.6-7.8.1-.2-.2-.4-.3-.3-1.6 1.7-2.7 4.6-1.5 6.9C98 53 107 51 105.6 56.4c-.1.2.3.5.5.3 1.2-1.7.1-3.4-1.5-4.5zM90.8 35c-2.2-.8-4.4-.6-6.5.4-1.7.9-2.7 2.2-4.7 2.6-4.9 1.1-9.1-2.7-6.5-8.1.1-.2-.2-.3-.3-.2-1.9 3.1-1.6 7.3 2.1 8.9 1.6.7 4 .8 5.6.2 1.5-.5 2.3-1.7 3.6-2.5 2.1-1.2 4.2-1.2 6.5-.9.4.1.5-.3.2-.4zm-3.9 5.9c-1.6 1-3 2.3-4.9 2.7-1.6.3-3.2-.2-4.7.6-1.7.8-2.8 2.6-2.6 4.5.2 2.1 1.8 4 4 4.1 1.9.1 3.4-1.3 3.4-3.2 0-.1-.2-.2-.3 0-.8 4.6-7 1.8-6.1-2.1.6-2.8 3.2-2.8 5.5-2.8 2.5-.1 4.5-1.5 6.2-3.3.1-.3-.2-.7-.5-.5zm32.2-9c-3.2-1-3.8-6.4-7.9-5-1.2.4-2.1 1.5-2.9 2.5-1.9 2.7-2.8 5-6.4 5.7-.2 0-.2.4.1.3 2.9-.1 4.6-1.5 6.1-3.9.6-.9 1.1-2.2 1.9-2.8 3.9-3 4.7.3 6.4 2.1.9.9 1.4 1.3 2.6 1.6.3.1.4-.4.1-.5zm4.5 23c-2.3-.1-4.4.9-6.7.5-3.9-.6-6.5-3.5-6.4-7.5 0-.2-.3-.3-.4 0-.6 2.9.6 5.5 3.1 7.2 1.4.9 3 1.4 4.7 1.5 2.9.2 7.1-2.1 8.7 1.7.1.2.4.1.4-.1.5-2.1-1.4-3.2-3.4-3.3zm27.6 21.4c-.4-.9-.9-1.6-1.5-2.2-1.1-1.2-2.7-2.1-1.6-4.5.4-1 1.7-1.8 2.4-2.5.2-.2-.1-.5-.3-.4-1.8 1-3.8 2.4-3.5 4.8.1.9.6 1.5 1.2 2.2 1.9 2.3 3.6 4.1 1.6 7.2-.2.3.2.6.4.4 1.7-1.1 2.1-3 1.3-5zm-6.1-1.5c-.3-2.6-1.9-4.5-4.2-5.5-.2-.1-.4.2-.2.3 2.4 1.6 4.1 4.3 3.5 7.3-.5 2.2-2.2 3.1-3.3 4.8-.8 1.3-.9 2.6.4 3.5.3.2.7-.2.5-.5-1.2-1.6 2.4-4.9 3-6.5.4-1 .5-2.2.3-3.4zm-25.5-38.5c-1.5 0-3.5 1.3-2.5 2.9.1.1.3.1.3 0 .7-2.1 2.7-2.3 4.3-1 2 1.6.3 3.7-1.2 4.6-2.4 1.5-5 1.3-7.3-.4-.3-.2-.5.2-.3.4 2.7 3.3 10.8 1.8 10.7-3.1 0-2-2.1-3.4-4-3.4zm-41 27.9c.1-.8-.1-1.6-.5-2.3-.6-1.2-3-3-2.9-4 0-.2-.3-.3-.4-.1-.3.9-.2 1.3.3 2 .8 1.3 1.9 1.1 2.5 3 .5 1.8-.7 2.9-1.5 4.3-.9 1.7-1.6 3.6.2 5 .2.2.6-.1.4-.3-2-3 1.7-4.8 1.9-7.6zm6.6-8.6c-.6-1.3-2.3-2.7-3.8-2.2-.2.1-.3.4-.1.5 1.1.5 2.2.6 2.9 1.8.8 1.3.5 2.7-.2 3.9-.2.2.2.5.4.3 1.2-1.2 1.4-2.9.8-4.3zm-11.6-7.5c0-.2-.3-.3-.3-.1-.8 2.2.2 4 1.9 5.5 1.1 1 2.4 1.7 3.5 2.6 1.6 1.3 2.1 2.7 2.5 4.7.1.2.4.2.5 0 1.2-6.2-8.9-6.5-8.1-12.7zm-.2 16.4c-3.4 3-8.8-1.4-9.4-5.1 0-.2-.4-.2-.4.1-.1 2.7 2.1 4.8 4.3 6.1 1.8 1.1 4.8 1.7 6-.7 0-.3-.3-.6-.5-.4zm-9 10.9c-.6-1-1.9-1.6-2.5-2.6-1.1-1.8-1.3-3.9-.8-5.9 0-.2-.2-.3-.3-.1-1 2.4-.8 5 .9 7.1 1.6 2 2.3 1.2 1.5 5.1-.3 1.3-.7 1.7.1 3 .1.2.6.1.5-.2-1-2.2 1.9-4.1.6-6.4zM52 63.7c-1.2-1.7-2.4-2.5-2.8-4.7-.4-2.3.2-4.5 1.7-6.3.2-.3-.2-.7-.4-.4-1.6 1.8-2.5 4-2.2 6.4.1 1 .3 2 .8 2.9 1 2 3.5 3.2 2.9 5.7 0 .2.2.4.4.2 1.1-1.2.6-2.5-.4-3.8zm-3.8 4.7c-1.2.7-1.9 1.6-2.1 3-.2.8-.1 1.6-.1 2.3 0 1.7-1.1 2.2-2.6 2.1-.2 0-.4.3-.2.5 1.1.9 2.7.4 3.4-.8.5-.9.3-1.8.3-2.8 0-1.4.3-3 1.5-3.9.3-.1.1-.5-.2-.4zm4.8 16c-.8.5-2.1 1.4-3.1 1.1-1.9-.4-1.9-2-2-3.6 0-2.7.8-4.9 3.3-6.1.3-.1.1-.5-.2-.5-3.9.6-4.7 5.7-4.1 8.9.6 3.3 5 3.1 6.5.6.2-.2-.2-.5-.4-.4zm6.5 15.4c-.9-2-.1-3.8 0-5.7 0-.8.1-1.2-.3-1.8-.4-.7-1.2-1.1-1.8-1.6-2-1.4-2.1-3.6-1.9-5.9 0-.3-.5-.4-.6-.1-.8 2.8-.5 4.2 1.2 6.4 1.1 1.5 1.8-.2 1.6 4.1 0 .6-.3.9-.3 1.5 0 1.4.8 2.4 1.8 3.3.1.1.3 0 .3-.2zm1.7-51.1c.2-.1 0-.4-.2-.3-2.2.8-5.4 3.2-4.7 5.9.1.6.6.9.8 1.4 1.3 2.9.8 2.4-.5 4.3-1 1.5-1.4 2.8-1.3 4.6 0 .4.6.5.7.1.3-1.8 1.1-3.2 2.2-4.7.6-.8 1.2-1.6 1.1-2.7-.1-.8-.7-1.2-1-1.9-1.7-3.7.9-5 2.9-6.7zM70.4 32c-2.4-.9-4.7.7-5.6 2.9-.5 1.2-.6 2.5-.5 3.8.1.8.2 1.5.3 2.2.4 1.3-.1 2.4-1.6 3.1-.5-.1-1-.2-1.6-.3-.3-.1-.5.4-.2.5 1.6 1.1 3.7.6 4.2-1.4.3-1.5-.5-3.3-.5-4.8 0-3.2 1.9-5.9 5.3-5.5.4 0 .4-.4.2-.5zm27.7-6.9c-1.2-2.7-4.7-3.7-6.9-1.7-.2.2.1.5.3.4 1.9-.9 4.3-.7 5.4 1.2 1.1 1.8.4 4.6-2 4.8-.3 0-.3.4-.1.5 1.2.5 2.3-.1 3-1.2.9-1.2.9-2.7.3-4zm6.9 13.4c-.2-.2-.5.1-.3.3 1 1.4-.5 2.9-1.7 3.2-1.2.3-2.4 0-3.4-.8-1.7-1.4-2-3.8-1.9-5.9 0-.3-.4-.3-.5-.1-.6 3.2.6 7.3 4.3 7.7 2.2.4 5.9-2.2 3.5-4.4zm32.1 13.1c-1-.7-2.1-.9-3.2-.7-1.5.2-2.6.7-4.1.3-2.3-.6-3.3-2.5-3.6-4.8 0-.2-.4-.3-.4 0-.5 2.5.9 4.8 3.2 5.6 1.1.4 2.1.3 3.2.1 1.1-.2 1.9-.7 3.1-.4 2.3.5 3 3.1 1.3 4.8-.4.3.2.8.5.5 2-1.4 1.8-4.1 0-5.4zm-3.3 9.3c0-.3-.5-.4-.6-.1-.7 2.3-2.3 4.6-5 4.5-3.2-.1-4.5-3.1-4.2-5.9 0-.2-.3-.3-.4-.1-1.4 3 .8 6.4 3.9 7 3.2.6 6.6-2.1 6.3-5.4zm-.3 3.5c-.2-.2-.5.1-.3.3 1.3 1.9 3.5 6.5.5 8-.3.1-.1.6.2.6 1.6-.1 2.1-1.7 2.1-3.1-.1-2.3-1-4.2-2.5-5.8zm7.1 21.8c-2.6.8-4.2-2.8-4.8-4.6-.5-1.8-.6-3.7-.3-5.5.1-.3-.4-.5-.5-.1-.8 2.7-.5 5.6.8 8.1.9 1.7 2.9 4.4 5.1 2.9.3-.4.2-1-.3-.8zm.1 4.8c-.1-.2-.4-.2-.4.1.1 2.3.8 4.6.2 6.9-.7 2.9-3 4.7-6.1 4-.4-.1-.7.5-.3.7 2.2 1.3 4.9.1 6.2-1.9 2-2.8 1.5-6.7.4-9.8zm7-34.3c-.5-1.9-1.8-3.2-3.6-3.9-.3-.1-.4.3-.2.5 3 2.1 3.8 5.1 2.1 8.4-.4.8-1.1 2.1-.1 2.6.2.1.4 0 .4-.2V64c0-.1 0-.2-.1-.2-.3-.1 1.4-3.3 1.5-3.8.3-1.1.3-2.3 0-3.3zm-10.5-13.6c-.8-2.1-3.4-4.2-5.6-2.5-.2.1 0 .4.2.3 1.8-.5 3.4.4 4.3 2.1.6 1.2.4 2.5-1 2.9-.7.2-1.7.2-2.4.2-.3 0-.3.4-.1.5 2.5 1 5.8-.5 4.6-3.5zM69.9 54.2c-1.1 2.2-4.1 1.4-4.8-.7-.6-1.9.6-3.8 2.3-4.5.4-.2.1-.9-.3-.8-2.9.7-4.3 4.6-2.4 7 .8 1.1 2.2 1.8 3.6 1.6 1.2-.2 2.4-1 2.2-2.3 0-.4-.4-.6-.6-.3z" fill="#6a2f03" stroke-width="none" opacity="1" stroke="none"></path><path id="SvgjsPath8638" d="M121.1 52.6c-3.8 2.5-7.3-2.7-8.1-5.8-.1-.5-.8-.2-.7.2.4 2.4 1.6 4.7 3.6 6.1 1.7 1.3 3.9 1.7 5.6 0 .3-.2-.1-.7-.4-.5zm1.2-18c-.5-.2-.8.4-.4.7.9.6 1.7 1.4 2.3 2.3.1.1.1.3.2.4-1.7-2.6-5.3-4.5-8-1.3-.2.2.1.5.3.3 1.8-1.6 4.5-1.2 6.1.4 1.3 1.3 2.6 3.8.9 5.4-.2.2 0 .6.3.5 1.1-.5 1.5-1.4 1.4-2.5.2.1.4 0 .4-.2.5-2.5-1.4-5-3.5-6zm10 .9c-.5-1.7-2.1-2.7-3.8-2.4-.3.1-.2.6.1.5 1.6-.2 3 1.1 3.1 2.7.1 1.5-.9 2.5-1.8 3.6-.2.2.1.6.3.4 1.6-.8 2.6-2.9 2.1-4.8zm5.3 7.5c-.2-.1-.5.2-.2.4 1.1.7 1.7 2 1.8 3.3 0 1.1-.5 2.1-.6 3.2 0 .3.4.4.6.2 1.5-2.1 1-5.9-1.6-7.1zm-4.7 9.8c-1.2-.2-2.4.2-3.5 0-1.3-.3-2.4-1.3-3.2-2.3-.2-.2-.5.1-.3.3.8 1.1 1.6 2.1 2.9 2.6 1.8.7 5.2-.7 5.9 1.8.1.3.5.2.5-.1 0-1.3-1.2-2.1-2.3-2.3zm-.3 7.4c-1.2 1.3-2.6 2.7-4.5 2.8-1.8.1-3.5-1.1-3.8-2.9 0-.2-.4-.2-.4 0 .1 1.9 1.4 3.3 3.3 3.6 2.4.4 4.7-1.3 5.7-3.3.2-.1-.1-.4-.3-.2zm7.2 9.9c-.3-.1-.5.3-.2.5 6.9 3.6-6.5 12.3.1 16.5.2.2.6-.2.4-.4-3.1-4.3 1.8-7.5 2.4-11.7.3-2.3-.5-4.2-2.7-4.9zm7.9-4.8c-2.1.6-4 3.5-2.6 5.6.1.2.6.2.6-.2-.1-1-.2-1.9.2-2.9.4-.9 1.1-1.7 2-2.1.3-.1.1-.5-.2-.4zm-5.8-11.4c-.2-.2-.4 0-.3.3 1.2 2.3 3 4.8 1.4 7.4-.2.3.3.5.5.3 1.8-2.7.2-5.9-1.6-8zm-1.4 1.3c-.2-.1-.4.1-.2.3 1.1.9 1.8 2.2 1.8 3.7 0 .2.3.2.4 0 0-1.6-.7-3.2-2-4zm-37.9-14.9c-.8-.3-1.5-.6-2.1-1.3-.6-.7-.8-1.6-.7-2.5.1-.4-.5-.6-.6-.2-.5 2 .9 4.8 3.3 4.5.3-.1.4-.4.1-.5zm7.3-15.7c-2.3-.9-4.8.8-5.8 2.9-.1.3.3.5.4.3 1.2-1.9 3.1-2.6 5.2-2.7.4 0 .5-.4.2-.5zM129 37.8c-.7-1.5-2-3-3.7-3.4-.2 0-.3.2-.1.3 1.5.8 2.8 1.7 3.6 3.2.1.2.3.1.2-.1zm-15.1-7.5c-.5-1-1.8-1-2.6-.3-.6.6-.9 1.5-1.3 2.2-.6 1-1.2 1.9-1.9 2.9-.2.2.2.5.4.3.9-.8 1.6-1.8 2.2-2.8.3-.5.5-.9.7-1.4.3-.6 1.5-2.1 2.2-.8.1.3.3.1.3-.1zm-9.5 20c-1.2-.5-2.5-.6-3.5-1.4-1.3-1-1.8-2.6-1.4-4.2.1-.3-.4-.5-.5-.1-.6 1.6-.4 3.4.9 4.7 1.9 1.9 5.8 1.2 6.7 4.2.1.2.4.2.4-.1 0-1.5-1.2-2.5-2.6-3.1zM95 43c-.6 3-4.6 3.2-6.4 5.3-.1.2 0 .4.2.3 2.3-1.6 6-2.2 6.6-5.4 0-.3-.4-.5-.4-.2zm-9.8 6c-1-.4-1.9-.7-2.9-1-.4-.1-1.2-.3-1.4-.6 0-.3-.1-.7-.1-1 .1-.2.2-.4.4-.5l.5-.5c.2-.2-.1-.5-.3-.3-.8.6-2.1 1.8-1.1 2.9.4.5 1.2.7 1.7.9 1 .3 2 .6 3 .7.4-.1.5-.5.2-.6zm2.8 3.8c-.1-.2-.4-.2-.4 0-.1 1.7-.1 3.2-.8 4.8-.1.3.3.5.4.2.7-1.4 1.2-3.3.8-5zm-14.4-.3c-.2-.5-.8-.3-.7.2 1.1 4.4 7.8 5.9 7.1 10.8 0 .3.4.4.5.1 1.6-5.1-5.7-7-6.9-11.1zm.5 8.1c-.1-.2-.4-.1-.4.1 0 1.8-1.2 3.7-3.2 3.6-.2 0-.3.3-.1.4 1.2.2 2.2-.2 3-1 .7-.9 1.2-2.1.7-3.1zm-4 .5c-2 .5-3.8.4-5.7-.7-.2-.1-.4.2-.2.3 1.6 1.5 4.2 2 6.1.9.3-.2.1-.6-.2-.5zm14.2-23.6c-2.9 1.9-6.1 2.6-9.4 1.3-.3-.1-.5.4-.2.5 3.3 1.5 7.3 1.1 9.9-1.5.2-.1 0-.4-.3-.3zm-.6-4.2c-1.4.6-2.8.8-4.2 0-.3-.2-.6.3-.3.5 1.4.9 3.4 1.1 4.8-.1.1-.2-.1-.5-.3-.4zm37 17.9c-2.5-.5-4.8-1.6-6.1-4-.1-.2-.4-.1-.4.2 1 2.5 3.5 4.7 6.4 4.3.2-.1.3-.5.1-.5zm.9-2.3c-.5.2-.9.4-1.4.4-.5 0-1-.3-1.3-.7-.2-.2-.6.1-.4.3.8 1 2.7 1.5 3.5.2 0-.1-.2-.3-.4-.2zm19.5 8.8c-.2-.3-.6 0-.5.3.6 1.4.9 2.8 1.2 4.4 0 .2.4.2.5 0 .3-1.7-.3-3.4-1.2-4.7zM52.5 62c-.5-.8-1.2-1.6-1.5-2.4-1.1-2.4-.3-3.7 1-5.4.2-.3-.2-.6-.5-.4-1.3 1.5-2.4 3-1.8 5 .3 1.1 1 2 1.6 2.9 1 1.6 1.6 3.2 2 5 .1.3.5.2.5-.1 0-1.6-.5-3.1-1.3-4.6zm1.7 20.8c-1 .3-2.5.9-3.3-.2-.5-.6-.5-1.6-.4-2.3.2-1.7 1.2-3.2 2.3-4.3.3-.3-.2-.8-.5-.5-1.8 1.6-3.3 4-2.8 6.5.5 2.6 3 2.8 4.9 1.4.2-.2.1-.7-.2-.6zm5.6 6.7c-1.7-1.2-3.3-2.4-2.5-4.7.1-.2-.3-.4-.4-.2-.5 1.2-.6 2.5 0 3.6 1 1.7 3.2 2 4 3.9.1.2.5.2.5-.1.1-1.1-.7-1.8-1.6-2.5zm5.3-17.8c-.3-1.1-1.1-2.1-1.4-3.2-.6-1.9-.2-3.8.5-5.7.1-.2-.3-.5-.5-.3-1.4 1.8-1.8 4-1 6.2.6 1.7 1.8 2.9 1.7 4.8-.1 1.3-.9 2.5-.9 3.9 0 .2.3.2.3 0 .4-1.9 1.8-3.7 1.3-5.7zm43.5-21.4c0-.2-.4-.2-.4.1.1 3.8-.2 8.5-4.6 9.7-.3.1-.2.5.1.4 4.7-.8 5.6-6.1 4.9-10.2zm-38.8-.4c-1.3-.4-2.8.2-3.2 1.5-.4 1.2.1 2.8 1.4 3.2.3.1.5-.3.3-.5-.6-.6-1.1-1.4-.9-2.3.2-.9 1.3-1.5 2.2-1.3.5.2.7-.5.2-.6zm-.4-16.4c-1.6 1.7-2.9 4.3-2.4 6.7.1.2.4.2.4 0 .3-2.4.7-4.4 2.4-6.2.2-.3-.2-.7-.4-.5z" fill="#884c1f" stroke-width="none" opacity="1" stroke="none"></path></g><g id="svga-group-glasses-single-move" transform="matrix(1,0,0,1,0,0)"><g id="svga-group-glasses-single" transform="matrix(1,0,0,1,0,0)"><path id="SvgjsPath7067" d="M79.9 76.8C88.8 76.8 96 84 96 92.9S88.8 109 79.9 109s-16.1-7.2-16.1-16.1S71 76.8 79.9 76.8z" fill="url(#SvgjsLinearGradient7068)" opacity="1"></path><path id="SvgjsPath7075" d="M120.1 76.8c8.9 0 16.1 7.2 16.1 16.1S129 109 120.1 109 104 101.7 104 92.9s7.2-16.1 16.1-16.1z" fill="url(#SvgjsLinearGradient7076)" opacity="1"></path><path id="SvgjsPath7083" d="M139.98 89.26c-2.15-.06-3.62-1.72-4.36-2.83-2.53-6.09-8.54-10.38-15.53-10.38-7.55 0-13.95 5-16.07 11.87-.23.02-.51 0-.86-.08-1.25-.29-2.11-1.06-3.17-1.06s-1.9.77-3.15 1.06c-.35.08-.63.1-.86.08-2.12-6.87-8.52-11.87-16.07-11.87-6.99 0-13 4.29-15.53 10.38-.75 1.11-2.22 2.78-4.36 2.83 0 0-.31 2.48-.08 4.65 0 0 2.55.42 3.62 2.8 1.75 7.42 8.41 12.97 16.35 12.97 8.98 0 16.32-7.08 16.77-15.95.76-2.24 1.87-3.2 2.6-3.6.44-.24.98-.24 1.42 0 .73.4 1.86 1.36 2.62 3.6.46 8.87 7.79 15.95 16.77 15.95 7.95 0 14.61-5.55 16.35-12.97 1.07-2.39 3.62-2.8 3.62-2.8.23-2.17-.08-4.65-.08-4.65zm-58.07 18.79c-10.01 1.27-18.46-7.18-17.18-17.19.87-6.82 6.37-12.32 13.19-13.19 10-1.27 18.45 7.18 17.18 17.18-.87 6.83-6.37 12.33-13.19 13.2zm40.17 0c-10.01 1.27-18.46-7.18-17.18-17.19.87-6.82 6.37-12.32 13.19-13.19 10-1.27 18.45 7.18 17.18 17.18-.86 6.83-6.37 12.33-13.19 13.2z" fill="#26120b" stroke-width="none" opacity="1"></path><path id="SvgjsPath7084" d="M139.97 89.28c-.88-.01-1.79-.34-2.52-.86-.75-.52-1.36-1.21-1.88-1.95v-.02a17.025 17.025 0 0 0-6.54-7.67 16.57 16.57 0 0 0-9.71-2.55c-3.39.16-6.72 1.4-9.39 3.5-2.68 2.08-4.68 5-5.69 8.24l-.05.15-.15.01c-.78.05-1.48-.23-2.13-.52-.65-.29-1.26-.63-1.9-.63-.64-.01-1.26.33-1.91.62-.65.29-1.35.56-2.13.5l-.13-.01-.04-.13c-.99-3.25-3.01-6.17-5.69-8.26a16.61 16.61 0 0 0-9.41-3.51c-3.4-.19-6.85.72-9.73 2.55-2.89 1.81-5.2 4.55-6.5 7.71v.01l-.01.01c-.51.75-1.12 1.45-1.87 1.98-.74.53-1.64.88-2.57.91l.1-.09c-.16 1.53-.22 3.09-.06 4.62l-.1-.1c.8.16 1.55.5 2.2.99.66.48 1.17 1.14 1.52 1.87v.02c.92 3.87 3.29 7.35 6.51 9.66 3.21 2.33 7.26 3.44 11.2 3.05 3.94-.36 7.71-2.18 10.43-5.04 2.75-2.84 4.41-6.68 4.62-10.63v-.03l.01-.03c.29-.85.67-1.68 1.23-2.41.28-.36.6-.7.97-.98.35-.27.81-.56 1.34-.55.53-.01.99.28 1.34.55.37.28.69.62.97.98.56.73.95 1.56 1.24 2.41l.01.03v.03c.21 3.94 1.88 7.78 4.63 10.61 2.71 2.86 6.48 4.71 10.42 5.07 3.94.4 8.01-.72 11.22-3.05 3.23-2.31 5.59-5.8 6.53-9.67v-.02c.35-.73.86-1.38 1.51-1.85.65-.48 1.39-.81 2.18-.97l-.04.07c.08-.77.11-1.54.1-2.32-.01-.39-.02-.77-.04-1.16l-.09-1.14zm.03-.04c.06.42.09.78.12 1.18.03.39.05.78.06 1.16.02.78.01 1.56-.06 2.33v.04l-.05.01c-.76.16-1.49.5-2.11.98-.63.46-1.11 1.1-1.43 1.8l.01-.02c-.89 3.93-3.28 7.49-6.54 9.87-3.25 2.4-7.39 3.58-11.43 3.2-4.04-.34-7.93-2.2-10.74-5.13a17.156 17.156 0 0 1-4.75-10.93l.01.07c-.28-.81-.64-1.6-1.16-2.27-.26-.33-.55-.64-.88-.89-.34-.26-.68-.47-1.05-.45-.37-.01-.71.19-1.05.45-.33.25-.62.56-.88.89-.52.67-.88 1.46-1.16 2.27l.01-.06c-.21 4.06-1.94 8.01-4.76 10.92-2.8 2.93-6.68 4.81-10.73 5.16-4.04.38-8.19-.8-11.44-3.2a17.182 17.182 0 0 1-6.56-9.88l.01.02c-.32-.7-.81-1.32-1.43-1.78-.61-.47-1.34-.8-2.09-.96l-.09-.02-.01-.08c-.15-1.56-.08-3.12.09-4.67l.01-.09h.09c.88-.02 1.74-.34 2.46-.86.73-.51 1.33-1.19 1.83-1.92l-.01.02c1.34-3.18 3.66-5.93 6.57-7.79 2.9-1.87 6.39-2.81 9.85-2.65 3.45.14 6.86 1.38 9.6 3.51 2.75 2.11 4.83 5.08 5.86 8.4l-.17-.15c.64.04 1.31-.2 1.93-.48.62-.28 1.29-.66 2.07-.66.79.01 1.45.38 2.08.65.62.28 1.29.51 1.92.47l-.19.16c1.02-3.33 3.12-6.3 5.87-8.42a16.9 16.9 0 0 1 9.62-3.52c3.46-.17 6.96.78 9.87 2.65 2.92 1.86 5.23 4.64 6.52 7.84l-.01-.01c.5.74 1.09 1.43 1.82 1.95a4.7 4.7 0 0 0 2.5.89z" fill="#070201" stroke-width="none" opacity="1"></path><path id="SvgjsPath7085" d="M81.91 108.07c-3.97.47-8.17-.49-11.41-2.96-3.24-2.42-5.5-6.19-5.95-10.24-.22-2.01-.11-4.07.43-6.02.53-1.95 1.46-3.79 2.72-5.37 1.26-1.57 2.76-2.96 4.51-3.97 1.74-1.02 3.68-1.7 5.68-1.98 4-.5 8.25.48 11.47 3.01 3.22 2.47 5.49 6.23 5.97 10.3.1.5.07 1.02.11 1.52.05.51.01 1.02-.03 1.52-.05 1.01-.19 2.03-.5 3.01-.54 1.96-1.49 3.8-2.76 5.38-2.48 3.2-6.26 5.29-10.24 5.8zm-.01-.05c1.98-.28 3.91-.94 5.62-1.96 1.72-1.01 3.2-2.4 4.4-3.98 2.45-3.16 3.38-7.28 2.91-11.18-.49-3.92-2.64-7.56-5.74-9.99-3.1-2.47-7.2-3.54-11.15-3.11-3.93.5-7.7 2.58-10.08 5.79-1.21 1.58-2.1 3.4-2.59 5.33-.5 1.92-.58 3.94-.34 5.9.53 3.94 2.68 7.56 5.76 10.04 3.09 2.54 7.24 3.62 11.21 3.16z" fill="#070201" stroke-width="none" opacity="1"></path><path id="SvgjsPath7086" d="M122.09 108.07c-3.97.47-8.17-.49-11.41-2.96-3.24-2.42-5.5-6.19-5.95-10.24-.22-2.01-.11-4.07.43-6.02.53-1.95 1.46-3.79 2.72-5.37 1.26-1.57 2.76-2.96 4.51-3.97 1.74-1.02 3.68-1.7 5.68-1.98 4-.5 8.25.48 11.47 3.01 3.22 2.47 5.49 6.23 5.97 10.3.1.5.07 1.02.11 1.52.05.51.01 1.02-.03 1.52-.05 1.01-.19 2.03-.5 3.01-.54 1.96-1.49 3.8-2.76 5.38-2.48 3.2-6.26 5.29-10.24 5.8zm-.01-.05c1.98-.28 3.91-.94 5.62-1.96 1.72-1.01 3.2-2.4 4.4-3.98 2.45-3.16 3.38-7.28 2.91-11.18-.49-3.92-2.64-7.56-5.74-9.99-3.1-2.47-7.2-3.54-11.15-3.11-3.93.5-7.7 2.58-10.08 5.79-1.21 1.58-2.1 3.4-2.59 5.33-.5 1.92-.58 3.94-.34 5.9.53 3.94 2.68 7.56 5.76 10.04 3.08 2.54 7.24 3.62 11.21 3.16z" fill="#070201" stroke-width="none" opacity="1"></path></g></g></g></g></g><rect id="svga-credit-rect" width="200" height="15" x="0" y="185" fill="#ecf0f1" opacity="0.5" style="display: none;"></rect><text id="svga-credit-text" font-family="Avenir Next, Roboto, Helvetica, Arial, sans-serif" font-size="10px" text-anchor="start" font-weight="400" size="10px" anchor="start" weight="400" fill="#333333" x="33.466087341308594" y="182.5249764919281" style="display: none;"><tspan id="SvgjsTspan3125" dy="13" x="33.466087341308594">Created on AvatarMaker.com</tspan></text></g></svg>