<svg xmlns="http://www.w3.org/2000/svg" version="1.1" width="600px" height="600px" viewBox="0 0 200 200" style="overflow:hidden!important;"><g id="svga-group-wrapper"><g id="svga-group-backs-single"><path id="SvgjsPath18962" d="M0 0h200v200H0V0z" fill="#ecf0f1" stroke-width="none" opacity="1"></path></g><g id="svga-group-humanwrap-move" transform="matrix(1,0,0,1,0,0)"><g id="svga-group-humanwrap"><g id="svga-group-hair-back-move" transform="matrix(1,0,0,1,0,0)"><g id="svga-group-hair-back"></g></g><g id="svga-group-humanbody-back"><path id="SvgjsPath18897" d="m170 180.3-27.3-6.9-18-9.9-1.5-28.2H76.8l-1.5 28.2-18 9.9-27.3 6.9-9.1 19.7-3 20h164.2l-3-20z" fill="#ba9977" stroke-width="none" opacity="1"></path><path id="SvgjsPath18898" d="m76.8 135.3-1.5 28.2-18 9.9-27.3 6.9-9.1 19.7-3 20h14.6v-20l2.7-17.7 23.8-6.4 24.7-8.3 3.5-32.3z" fill="#9b7144" stroke-width="none" opacity="1"></path></g><g id="svga-group-chinshadow-single"><path id="SvgjsPath18893" d="m123.5 141.7-.3-6.4H76.8l-.8 15.6 4 7.3 17.2 4.3 17.2-4.3z" fill="#8c5f30" stroke-width="none" opacity="1"></path></g><g id="svga-group-humanbody-front"><path id="SvgjsPath18899" d="m92.8 168.3 2 7.9 6.9 4.6s-8.5-3-8.7-3.6c-.2-.6-.2-8.9-.2-8.9z" fill="#9b7144" stroke-width="none" opacity="1"></path></g><g id="svga-group-clothes-single"><path id="SvgjsPath18783" d="m182.6 199.8-8.6-19.4-2.7-.8-22.8-6.6-15.1-6.2.2-3.4-2.4-4.9.2-3.4-2.7-7-4.9-1.7-6 5.9-15 2.9h-5.6l-15-2.9-6-5.9-4.9 1.7-2.7 7 .2 3.4-2.4 4.9.3 3.4-15.2 6.2-22.8 6.6-2.7.8-8.6 19.4-2.1 20.2h169.4z" fill="#c6b044" stroke-width="none" opacity="1"></path><path id="SvgjsPath18784" d="m106 171.1 16-2.7 8.5-5.8-8.2 7.1-16.3 1.4zm57.4 39.7 4.4-18.3 5.4-10.9-6.4 10-4.7 18.4.1 10.1h1.8l-.6-9.3zm-33-38.1-10.2 7.3s-14.5 2.2-15.3 2.2-14.5-.9-14.5-.9l-.9-4.2.9-5.6h11.3L90.4 169l-1.3-2.4 2.7-8.9 29.4-4 6.1-6-3.6-1.2-5.9 5.8-15.1 2.9h-5.5l-15.1-2.9-5.9-5.8-4.9 1.6-2.8 7 .2 3.4-2.3 4.9.2 3.4-15.1 6.2-22.8 6.6-2.8.8-8.5 19.4-2.1 20.2h10.9l-.2-20.8 7.4-12.2 4 14.5 2.4 18-1.3-18.3-3.5-15.1 10.7-2.7 25.6-6.4 18 6 15.1 1.1 16.2-2.5 10.5-7.8 2.1-7-2.8 5.9zm-57.2-21.8 4.2-1.5-3.7 2-1.3 6.4.4 2.9-1.1-3.4 1.5-6.4zm-4.5 17.8.2-5.6 2.9-2.1-2.2 2.5-.3 5.3.4 3-1-3.1zm3.1 4 1 3.1-1.7-2.9-.1-4.9 4.2-4.4-3.5 4.8.1 4.3zm4.4-16.7 4.2-3.4-3.7 4.1-.6 3.9.3 4.2-1-4.5.8-4.3zm1.5 22.1-1.6-2.9-.1-4.4 2.6-3.5-1.9 3.6v3.9l1 3.3zm3.6-.5.8 2.5-1.5-2.2-.3-4.7 2.5-3.9-1.7 4.3.2 4zm-.3-18.2-.2 5.1.1 2.9-.9-3.5.1-4.8 3.6-5.2-2.7 5.5zm3.9 19.7-.3-4.7 2.2-4.4-1.3 4.4.3 4.8 1.1 2.5-2-2.6zm.2-14.5.1 4.4-.9-4.6 3.2-8.1-2.4 8.3zm10.9-6.8.3 7.5.2 4.2s.3-4.2.3-4.5-.8-7.2-.8-7.2zm-.3 14.3.4 5.1v4.3s.8-3.8.8-4.2-1.2-5.2-1.2-5.2zm10.8-14.9 1.4 6s.7 6.6.7 6.2.3-6.4.3-6.4l-2.4-5.8zm-.3 15.1.6 4-.2 5.3.8-5.3-1.2-4zm12.5-16.6c.3 0 1.3 5.4 1.3 5.4l.1 6.5.5-6.8-1.9-5.1zm2.2-.2 1.8 4.8-.3 5.5.9-5.7-2.4-4.6zm-1.6 16 1.1 4.1-.5 4.1 1-4.4-1.6-3.8zm9-5.8 1.4 2.2.4 2.7-.5 1.9 1-2.2-.5-3.1-1.8-1.5zm-2.9-14.4 2.3 3.7 1 4.6-.7 3.6 1.2-3.9-1.1-5-2.7-3z" fill="#b79f2c" stroke-width="none" opacity="1"></path></g><g id="svga-group-head" transform="matrix(1,0,0,1,0,0)"><g id="svga-group-ears-left-move" transform="matrix(1,0,0,1,0,0)"><g id="svga-group-ears-left"><path id="SvgjsPath18793" d="M63.1 91.8s-6-.7-10.6-3.7c0 0-3.5 9.4-4 14.4 0 0 6.7 13 10 18.5 0 0 5.2-.7 6.3-1.4l1.4-8.4-3.1-19.4z" fill="#ba9977" stroke-width="none" opacity="1"></path><path id="SvgjsPath18794" d="M53.3 90c-.2-.4-.8-1.9-.8-1.9 5.2.4 10.7 1.4 10.7 1.4l3 21.6-1.4 8.4c-1.1.7-6.3 1.4-6.3 1.4-.6-1-1.3-2.3-2.1-3.6l2.6 1 3-1.6s.7-11.2.5-11.5c-.1-.3-9-14.8-9.2-15.2z" fill="#ab845c" stroke-width="none" opacity="1"></path><path id="SvgjsPath18795" d="m50.3 100.9 2.8-5.5 5.2 6.8 2.2 9.5-1.4 1.9-4.3-7.6 1-4.7-2.6-4z" fill="#9b7144" stroke-width="none" opacity="1"></path></g></g><g id="svga-group-ears-right-move" transform="matrix(1,0,0,1,0,0)"><g id="svga-group-ears-right"><path id="SvgjsPath18796" d="M136.9 91.8s6-.7 10.6-3.7c0 0 3.5 9.4 4 14.4 0 0-6.7 13-10 18.5 0 0-5.2-.7-6.3-1.4l-1.4-8.4 3.1-19.4z" fill="#ba9977" stroke-width="none" opacity="1"></path><path id="SvgjsPath18797" d="M146.7 90c.2-.4.8-1.9.8-1.9-5.2.4-10.7 1.4-10.7 1.4l-3 21.6 1.4 8.4c1.1.7 6.3 1.4 6.3 1.4.6-1 1.3-2.3 2.1-3.6l-2.6 1-3-1.6s-.7-11.2-.5-11.5c.1-.3 9-14.8 9.2-15.2z" fill="#ab845c" stroke-width="none" opacity="1"></path><path id="SvgjsPath18798" d="m149.7 100.9-2.8-5.5-5.2 6.8-2.2 9.5 1.4 1.9 4.3-7.6-1-4.7 2.6-4z" fill="#9b7144" stroke-width="none" opacity="1"></path></g></g><g id="svga-group-faceshape-wrap"><g id="svga-group-faceshape-single"><path id="SvgjsPath18875" d="M143.4 84.8c-.2-10.2-5.3-24.8-5.3-24.8-6.9-11.6-19.7-19.5-19.7-19.5-7.2-1.5-18.4-2.3-18.4-2.3s-11.1.8-18.4 2.3c0 0-12.8 7.9-19.7 19.5 0 0-5.1 14.5-5.3 24.8l1.1 24.4L68.6 127l14.2 25.6 17.2 4.3 17.2-4.3 14.2-25.6 10.9-17.8 1.1-24.4z" fill="#ba9977" stroke-width="none" opacity="1"></path><path id="SvgjsPath18876" d="M62.5 107.9s12.7 8.8 15.2 11.5 4.1 20.4 4.1 20.4l-7.4-19.3-11.9-12.6z" fill="#ab845c" stroke-width="none" opacity="1"></path><path id="SvgjsPath18877" d="M137.9 107.9s-12.7 8.8-15.2 11.5-4.1 20.4-4.1 20.4l7.4-19.3 11.9-12.6z" fill="#ab845c" stroke-width="none" opacity="1"></path><path id="SvgjsPath18878" d="M84.1 150.8s-9-22.6-9.8-23.8c-.7-1.2-12.8-18.8-12.8-18.8l-1-24.7 4-22.1 19-16.6 15.9-4.3 18.1.2.9-.2c-7.2-1.5-18.4-2.3-18.4-2.3s-11.1.8-18.4 2.3c0 0-12.8 7.9-19.7 19.5 0 0-5.1 14.5-5.3 24.8l1.1 24.4L68.6 127l14.2 25.6 17.2 4.3 17.2-4.3-17.4 3.2-15.7-5z" fill="#9b7144" stroke-width="none" opacity="1"></path></g></g><g id="svga-group-mouth-single-move" transform="matrix(1,0,0,1,0,0)"><g id="svga-group-mouth-single"><path id="SvgjsPath18995" d="m91.05 134.5 3.1 2.2 5.6-.2 6.6.6 2.7-2-2.9 1-6.5-.5-5.5.2z" fill="#9b7144" stroke-width="none" opacity="1" transform="translate(0 2)"></path><path id="SvgjsPath18996" d="m89.17 128.58-1.77 2.59 7.88-2.14 2.49 1.51 3.83.27 2.37-1.45 9.7 2.06-1.77-1.92-8.85-5.39-3.26.99-2.89-1.13z" fill="#af7f84" stroke-width="none" opacity="1" transform="translate(0 2)"></path><path id="SvgjsPath18997" d="m85.3 129.9 2.3 1.9 7.5-2.4 2.8 1.6 3.7.1 2.6-1.5 9.5 2.3 1.87-1.35-2.07.45-9.6-2.7-2.5 1.9-3.5-.1-2.7-2-7.8 2.7z" fill="#a0646a" stroke-width="none" opacity="1" transform="translate(0 2)"></path></g></g><g id="svga-group-eyes-left-move" transform="matrix(1,0,0,1,0,0)"><g id="svga-group-eyes-left"><g id="svga-group-eyesback-left"><path id="SvgjsPath18833" d="m91.1 97-4.5-5.3-10.7-.6-7.7 4.2 11.5 3.8z" fill="#ffffff" stroke-width="none" opacity="1"></path></g><g id="svga-group-eyesiriswrapper-left" transform="matrix(1,0,0,1,0,0)"><g id="svga-group-eyesiriscontrol-left" transform="matrix(1,0,0,1,0,0)"><g id="svga-group-eyesiris-left"><path id="SvgjsPath18914" d="m77 97.9-1.3-3.8 1.9-3.7 3.9-1.2 3.6 1.9 1.2 3.8-1.8 3.6-3.9 1.3z" fill="#681711" stroke-width="none" opacity="1"></path><path id="SvgjsPath18915" d="m81.5 89.5 3.4 1.8 1.2 3.7-1.8 3.4-3.7 1.2-3.4-1.8-1.2-3.7 1.8-3.4 3.7-1.2m0-.6-4.1 1.3-2 3.8 1.3 4.1 3.8 2 4.1-1.3 2-3.8-1.3-4.1-3.8-2z" fill="#490500" stroke-width="none" opacity="1"></path><path id="SvgjsPath18916" d="m82.2 91.6-2.4.1-1.6 1.7v2.3l1.7 1.6h2.4l1.6-1.7v-2.3z" fill="#000000" stroke-width="none" opacity="1"></path><path id="SvgjsPath18917" d="m77.9 91.2.9 1.1-1.2-.7.3-.4zm2.1-1v1.3l-.6-1.1.6-.2zm1.7-.2-.3 1.3-.3-1.3h.6zm1.7.9-.7.8.2-1.1.5.3zm1.5 1-1.3.8 1-1.2.3.4zm.6 1.9-1.4.1 1.2-.6.2.5zm.1 1.5-1.2-.4 1.3-.1-.1.5zm-.9 1.4-.8-.7 1.1.3-.3.4zm-.8 1.5-.7-1.3 1.1.9-.4.4zm-1.8.6-.1-1.4.6 1.2-.5.2zm-1.8.1.5-1.2.1 1.3-.6-.1zm-2-1.1.9-.9-.4 1.2-.5-.3zM77 96.2l1.1-.3-.8.8-.3-.5zm-.4-1.7 1.3.3-1.3.2v-.5zm.5-1.9.8.7-1.1-.2.3-.5z" fill="#320300" stroke-width="none" opacity="1"></path><path id="SvgjsPath18918" d="m78 92 2.2 2 .6-.4-1.3-2.7z" fill="#ffffff" stroke-width="none" opacity="1"></path><path id="SvgjsPath18919" d="m82.1 96.6.5 1 .9-.4-.5-1z" fill="#ffffff" stroke-width="none" opacity="1"></path></g></g></g><g id="svga-group-eyesfront-left"><path id="SvgjsPath18841" d="M67.1 89.3v11.9l7.9 8.4h11.2l7.9-8.4V89.3l-7.9-8.4H75l-7.9 8.4zm1.1 6 7.7-4.2 10.7.6 4.5 5.3-11.5 2.1-11.4-3.8z" fill="#ba9977" stroke-width="none" opacity="1"></path><path id="SvgjsPath18842" d="m67.7 95.5 8-4.8 11.4.1 6.6 6.7-3 2.9-8.1 3.2 6.5-3.8 1.9-2.7-4.3-5-11.1-.4z" fill="#9b7144" stroke-width="none" opacity="1"></path></g></g></g><g id="svga-group-eyes-right-move" transform="matrix(1,0,0,1,0,0)"><g id="svga-group-eyes-right"><g id="svga-group-eyesback-right"><path id="SvgjsPath18834" d="m108.9 97 4.5-5.3 10.7-.6 7.7 4.2-11.5 3.8z" fill="#ffffff" stroke-width="none" opacity="1"></path></g><g id="svga-group-eyesiriswrapper-right" transform="matrix(1,0,0,1,0,0)"><g id="svga-group-eyesiriscontrol-right" transform="matrix(1,0,0,1,0,0)"><g id="svga-group-eyesiris-right"><path id="SvgjsPath18920" d="m114.9 97.9-1.2-3.8 1.8-3.7 3.9-1.2 3.6 1.9 1.3 3.8-1.9 3.6-3.9 1.3z" fill="#681711" stroke-width="none" opacity="1"></path><path id="SvgjsPath18921" d="m119.4 89.5 3.4 1.8L124 95l-1.8 3.4-3.7 1.2-3.4-1.8-1.2-3.7 1.8-3.4 3.7-1.2m0-.6-4.1 1.3-2 3.8 1.3 4.1 3.8 2 4.1-1.3 2-3.8-1.3-4.1-3.8-2z" fill="#490500" stroke-width="none" opacity="1"></path><path id="SvgjsPath18922" d="m120.1 91.6-2.4.1-1.6 1.7v2.3l1.7 1.6h2.4l1.6-1.7v-2.3z" fill="#000000" stroke-width="none" opacity="1"></path><path id="SvgjsPath18923" d="m115.9 91.2.8 1.1-1.2-.7.4-.4zm2-1v1.3l-.5-1.1.5-.2zm1.7-.2-.3 1.3-.3-1.3h.6zm1.7.9-.7.8.3-1.1.4.3zm1.5 1-1.3.8 1-1.2.3.4zm.6 1.9-1.3.1 1.1-.6.2.5zm.1 1.5-1.2-.4 1.3-.1-.1.5zm-.9 1.4-.8-.7 1.1.3-.3.4zm-.8 1.5-.7-1.3 1.1.9-.4.4zm-1.8.6-.1-1.4.6 1.2-.5.2zm-1.8.1.5-1.2.1 1.3-.6-.1zm-2-1.1.9-.9-.4 1.2-.5-.3zm-1.2-1.6 1-.3-.8.8-.2-.5zm-.5-1.7 1.3.3-1.3.2v-.5zm.5-1.9.8.7-1-.2.2-.5z" fill="#320300" stroke-width="none" opacity="1"></path><path id="SvgjsPath18924" d="m115.9 92 2.2 2 .6-.4-1.3-2.7z" fill="#ffffff" stroke-width="none" opacity="1"></path><path id="SvgjsPath18925" d="m120 96.6.5 1 .9-.4-.5-1z" fill="#ffffff" stroke-width="none" opacity="1"></path></g></g></g><g id="svga-group-eyesfront-right"><path id="SvgjsPath18843" d="M125 80.8h-11.2l-7.9 8.4v11.9l7.9 8.4H125l7.9-8.4V89.3l-7.9-8.5zm-4.7 18.3L108.9 97l4.5-5.3 10.7-.6 7.7 4.2-11.5 3.8z" fill="#ba9977" stroke-width="none" opacity="1"></path><path id="SvgjsPath18846" d="m132.3 95.5-8-4.8-11.4.1-6.6 6.7 3 2.9 8.1 3.2-6.5-3.8-1.9-2.7 4.3-5 11.1-.4z" fill="#9b7144" stroke-width="none" opacity="1"></path></g></g></g><g id="svga-group-facehighlight-single"></g><g id="svga-group-eyebrows-left-move" transform="matrix(1,0,0,1,0,0)"><g id="svga-group-eyebrows-left-rotate" transform="matrix(1,1.7453292519943295e-9,-1.7453292519943295e-9,1,1.4554301230873534e-7,-1.36484743507026e-7)"><g id="svga-group-eyebrows-left"><path id="SvgjsPath18769" d="m93.58 85.39-1.3 2.72-18.78-7.17-10.68 3.59 11.09-5.86z" fill="#2a232b" stroke-width="none" opacity="1"></path></g></g></g><g id="svga-group-eyebrows-right-move" transform="matrix(1,0,0,1,0,0)"><g id="svga-group-eyebrows-right-rotate" transform="matrix(1,1.7453292519943295e-9,-1.7453292519943295e-9,1,1.4554301230873534e-7,-2.1258109939026326e-7)"><g id="svga-group-eyebrows-right"><path id="SvgjsPath18770" d="m106.42 85.39 1.3 2.72 18.78-7.17 10.68 3.59-11.09-5.86z" fill="#2a232b" stroke-width="none" opacity="1"></path></g></g></g><g id="svga-group-beardwrap"><g id="svga-group-beard-single-move" transform="matrix(1,0,0,1,0,0)"><g id="svga-group-beard-single"></g></g></g><g id="svga-group-mustache-single-move" transform="matrix(1,0,0,1,0,1)"><g id="svga-group-mustache-single"><path id="SvgjsPath19031" d="m102.3 118.9 9.8 1.7 9.1 6.7 4.2 7.1-5.9-2.9-1.7-3.2.9 2.9-4.4-1.2-.9-1.5.2 1.3-5.5-1.2-.9-1.8.2 1.6-1.5-2.5.4 2.4-3-.6-1.6-3.1.3 2.9-.8-1.5-.2 1.7-1.1-3.1v3l-3.2.1.6-2.8-1.2 2.9-4.4 1v-1.6l-.9 1.8-6.8 1.6 1.6-3.1-2.8 3.4-3.9 1.2 1-2.9-2.3 3.2-2.3 1.2 4-7.8 10.1-6 8.9-1.1z" fill="#2a232b" stroke-width="none" opacity="1"></path><path id="SvgjsPath19032" d="m92.2 128.2 1.9-8s-1.2 2.4-1.2 2.7-.7 5.3-.7 5.3zm-4.1 1.2 4-9.4-2.7 3.9-1.3 5.5zm-3.6-3.9-2.2 5.2 3.2-5.5 3.5-4.5c-.2.1-4.5 4.8-4.5 4.8zm-3.7 3c-.1.3-1.2 2.8-1.2 2.8l1.9-3.1 2-4s-2.7 4-2.7 4.3zm-2.3.1-1.7 3.6 3.5-6.4-1.8 2.8zm46.9 5.8-4.2-7.1-9.2-6.7-4.3-.8-1.2.4.1 2.1s-1.7-2.2-2.1-2.2c-.4-.1-3.8-.5-4-.5s-.5 2.3-.5 2.5-1.1-1.8-1.1-1.8-2-.2-3.9-.5l3.2 1.1.2 6 .5-6.1 1.8 4.8-.1-5 3.8 6.7-2.4-6.7 3.4 6.5-1.9-6.8 2 1.2 3.9 6.7-2.4-6.1 3.3 1.1 2.7 6.3-1.4-5.6 3.4 5.8-2.7-7.7 3.8 2.9 2 6-1.2-5.6 3.9 2.7 4.6 6.4z" fill="#221b23" stroke-width="none" opacity="1"></path></g></g><g id="svga-group-nose-single-move" transform="matrix(1,0,0,1,0,0)"><g id="svga-group-nose-single"><path id="SvgjsPath18967" d="m101.76 120.47-1.7 1.73-1.96-1.75-7.07-1.54 2.07-10.6 1.69-.57h10.4l1.75.67 2.3 10.65-5.49 1.01z" fill="#ba9977" stroke-width="none" opacity="1" transform="translate(0 1)"></path><path id="SvgjsPath18968" d="m107.26 107.86-.82-.1-1.25-.02 1.4.98 1.59 9.81-4.1 1.13-1.44.82 7.39-1.02z" fill="#9b7144" stroke-width="none" opacity="1" transform="translate(0 1)"></path><path id="SvgjsPath18969" d="m103.87 116.99-3.57 3.73h-.61l-3.57-3.73-3.49.52 1.33 1.23 2.05-.52 3.47 4.56h1.03l3.46-4.56 2.06.52 1.33-1.23z" fill="#9b7144" stroke-width="none" opacity="1" transform="translate(0 1)"></path><path id="SvgjsPath18970" d="m95.91 119.66-4.11-1.13 1.59-9.81 1.4-.98-.78.01 2.14-16.73-3.02 16.79-.4.05-2.77 11.6 7.39 1.02z" fill="#9b7144" stroke-width="none" opacity="1" transform="translate(0 1)"></path><path id="SvgjsPath18971" d="m103.13 90.66 1.75 12.21.82.67-2-11.76z" fill="#9b7144" stroke-width="none" opacity="1" transform="translate(0 1)"></path><path id="SvgjsPath18972" d="M104.83 116.16s1.99.43 1.99.21-1-7.11-1-7.11l-1-.71v7.61z" fill="#c2a486" stroke-width="none" opacity="1" transform="translate(0 1)"></path><path id="SvgjsPath18973" d="m99.93 116.94 3.06-.5-1.71-20.11-.57-1.85z" fill="#c2a486" stroke-width="none" opacity="1" transform="translate(0 1)"></path></g></g><g id="svga-group-hair-front"><path id="SvgjsPath19043" d="m99.5 63.6-9.3-2.3-5-1.4-5.1-1.7-7.3-1.8-6.5 8.8-3 18.8-3 9.3-4.2-5.7-.4-10.7 1.2-15.1 7.3-12.1-1.1-6.2 3.9-9.7.4-6.5 3 7.7-1.2-7.3 3.6-7.2v4.6l1.8 3.6-.4-4 4.5 5.3 6.8 2-5.8-3.9-1.6-4.4 4.6 3 4 .4-2.8-3.6 5.9 3 21.1 2.6 4.9 3.5 10.3 4.8 1.8 3.2 4.6 4.3.8 4.2 8.5 6.8 2.4 19.2-.2 13.7-5.2 6.3-2.3-9.1-2-23.6L125 55l-14.8 6.1z" fill="#2a232b" stroke-width="none" opacity="1"></path><path id="SvgjsPath19044" d="m99.5 63.6-18.2-9L70.4 35l-1.2-7.3 3.6-7.3V25l1.8 3.6 10.5 9.5 11.4 7.7 1 14.1 2 3.7zm-26.7-7.2-8.6-6.7-1.1-6.2 3.9-9.7 5.3 15.7 14.5 10.7-14-3.8zm5.3-32.7 1.6 4.4 5.8 3.8 20.4 5.9 4.9 10.9-4.2 11.9-7.2 2.8 10.7-2.5s9.7-17.1 9.7-17.9-6.7-10-6.7-10l-28.2-4.2-4.9-2-1.9-3.1zm55.2 25.4L125 55l-10.1 4 10.5-9.2 2.4-9.2 4.6 4.2.9 4.3zm1.2 13.3 3.4-2.2 3.9-4.3-3.9 12.8-2.6 4.4-.8-10.7zm-68.2 2.8-3 18.8-6.5-22.2 6-9.7 3.5 13.1z" fill="#221b23" stroke-width="none" opacity="1"></path><path id="SvgjsPath19045" d="m79.3 31 25.5 7.1 6.1 10.8-4.3 11.9-6.7-17.1-15.1-7.5-5.5-5.2zm35.2 26.2 11-7.3 2.4-9.2-1.8-3.2-10.3-4.8 7.2 8.7-.6 5.2-7.9 10.6z" fill="#322c33" stroke-width="none" opacity="1"></path></g><g id="svga-group-glasses-single-move" transform="matrix(1,0,0,1,0,0)"><g id="svga-group-glasses-single"><path id="SvgjsPath19006" d="M72.3 101.7 85 91.9l.1.2-12.6 9.8-.2-.2zm6.3-1-.2-.2 9.8-7.6.2.2-9.8 7.6zm-7.8 0-.2-.2 9.9-7.6.1.2-9.8 7.6zm43 1 12.6-9.8.1.2-12.6 9.8-.1-.2zm6.3-1-.2-.2 9.8-7.6.2.2-9.8 7.6zm-7.8 0-.2-.2 9.8-7.6.2.2-9.8 7.6z" fill="#ffffff" stroke-width="none" opacity="0.5"></path><path id="SvgjsPath19007" d="M91.3 102.5H68l-1.1-1.2v-8.6l1.1-1.1h24.3l1.2 1.1v7.6l-2.2 2.2zm18 0h23.2l1.1-1.1v-8.7l-1.1-1.1h-24.3l-1.1 1.1v7.6l2.2 2.2z" fill="#ffffff" stroke-width="none" opacity="0.37"></path><path id="SvgjsPath19008" d="M94 94.9c.4 0 .8 1 .8 2.3s-.4 2.3-.8 2.3-.8-1-.8-2.3.4-2.3.8-2.3zm12.5 0c.4 0 .8 1 .8 2.3s-.4 2.3-.8 2.3-.8-1-.8-2.3.4-2.3.8-2.3z" fill="#939393" stroke-width="none" opacity="1"></path><path id="SvgjsPath19009" d="m93.5 94.1 6.8-.6 6.8.6v1.3l-6.8-.6-6.8.6z" fill="#070201" stroke-width="none" opacity="1"></path><path id="SvgjsPath19010" d="M92.3 91.2H65.2v1.9h1.3v8.3l1.5 1.5h23.3l2.6-2.6v-7.6l-1.6-1.5zm.8 9.1-1.8 1.8H68l-.7-.7v-8.7l.7-.7h24.3l.7.7.1 7.6zm42.2-9.1h-27.2l-1.5 1.5v7.6l2.6 2.6h23.3l1.5-1.5v-8.3h1.3v-1.9zm-2.1 10.1-.7.7h-23.3l-1.8-1.8v-7.6l.7-.7h24.3l.7.7.1 8.7z" fill="#26120b" stroke-width="none" opacity="1"></path></g></g></g></g></g><rect id="svga-credit-rect" width="200" height="15" x="0" y="185" fill="#ecf0f1" opacity="0.5" style="display: none;"></rect><text id="svga-credit-text" font-family="Avenir Next, Roboto, Helvetica, Arial, sans-serif" font-size="10px" text-anchor="start" font-weight="400" size="10px" anchor="start" weight="400" fill="#333333" x="33.466087341308594" y="182.5249764919281" style="display: none;"><tspan id="SvgjsTspan18763" dy="13" x="33.466087341308594">Created on AvatarMaker.com</tspan></text></g><defs id="SvgjsDefs18710"></defs></svg>