<svg xmlns="http://www.w3.org/2000/svg" version="1.1" width="600px" height="600px" viewBox="0 0 200 200" style="overflow:hidden!important;"><g id="svga-group-wrapper"><g id="svga-group-backs-single"><path id="SvgjsPath15102" d="M0 0h200v200H0V0z" fill="#ecf0f1" stroke-width="none" opacity="1"></path><path id="SvgjsPath15103" d="M0 0h28.6v28.6H0V0zm57.1 0h28.6v28.6H57.1V0zm57.2 0h28.6v28.6h-28.6V0zm57.1 0H200v28.6h-28.6V0zM28.6 28.6h28.6v28.6H28.6V28.6zm57.1 0h28.6v28.6H85.7V28.6zm57.2 0h28.6v28.6h-28.6V28.6zM0 57.1h28.6v28.6H0V57.1zm57.1 0h28.6v28.6H57.1V57.1zm57.2 0h28.6v28.6h-28.6V57.1zm57.1 0H200v28.6h-28.6V57.1zM28.6 85.7h28.6v28.6H28.6V85.7zm57.1 0h28.6v28.6H85.7V85.7zm57.2 0h28.6v28.6h-28.6V85.7zM0 114.3h28.6v28.6H0v-28.6zm57.1 0h28.6v28.6H57.1v-28.6zm57.2 0h28.6v28.6h-28.6v-28.6zm57.1 0H200v28.6h-28.6v-28.6zM28.6 142.9h28.6v28.6H28.6v-28.6zm57.1 0h28.6v28.6H85.7v-28.6zm57.2 0h28.6v28.6h-28.6v-28.6zM0 171.4h28.6V200H0v-28.6zm57.1 0h28.6V200H57.1v-28.6zm57.2 0h28.6V200h-28.6v-28.6zm57.1 0H200V200h-28.6v-28.6z" fill="#c6dce2" stroke-width="none" opacity="1"></path></g><g id="svga-group-humanwrap-move" transform="matrix(1,0,0,1,0,0)"><g id="svga-group-humanwrap"><g id="svga-group-hair-back-move" transform="matrix(1,0,0,1,0,0)"><g id="svga-group-hair-back"><path id="SvgjsPath14100" d="m85.2 45-21 15.4-8 74.7 4.8 29.8 16.2 3.7 49.5.5.5-17.6 1.3 17.3 12-3.2 5.3-4-2.9-76.6-4.2-18.9s-14.6-21-15.4-20.7-38.1-.4-38.1-.4z" fill="#4c342a" stroke-width="none" opacity="1"></path></g></g><g id="svga-group-humanbody-back"><path id="SvgjsPath13938" d="m168.2 200-4.6-14.2-34.9-13.4-10.8-9.7-1.4-50.5h-33l-1.4 50.5-10.8 9.7-34.9 13.4-4.6 14.2-3 20h142.4z" fill="#ffdcb3" stroke-width="none" opacity="1"></path><path id="SvgjsPath13939" d="m83.5 112.2-1.4 50.5-10.8 9.7-34.9 13.4-4.6 14.2-3 20H39v-20l1.7-13.3 32.1-12.9 14.1-9.5 2-52.1z" fill="#e0ad71" stroke-width="none" opacity="1"></path></g><g id="svga-group-chinshadow-single"><path id="SvgjsPath13934" d="M112.6 154.4s2.1-2.3 4.9-5.5l-1-36.8h-33l-1.2 42.6 7.7 4.2 7.1-1.8 7.1 1.8 8.4-4.5z" fill="#d19854" stroke-width="none" opacity="1"></path></g><g id="svga-group-humanbody-front"></g><g id="svga-group-clothes-single"><path id="SvgjsPath14505" d="m168.9 200-3.2-16-35-11.4-6.8-4.8-.1-1.5-6-8.8v3.5l-.7 12.2-5.6 7.9-6.5 1.9-1.6 5.7-1.5 2.9-5.5-9.3-7.7-1.2-4.3-7.3-2.3-13.1.1-3.2-6 8.8-.1 1.5-6.9 4.8L34.3 184 31 200l-2.4 20h142.7z" fill="#3e8cb3" stroke-width="none" opacity="1" stroke="none"></path><path id="SvgjsPath14506" d="m43 200.7 2.6-10.8 24.2-9.6 5.1-3.2.3-2 8.3-5.7h.1l-1.4-8.7v-3.2l-6 8.8-.1 1.5-6.9 4.8L34.3 184 31 200l-2.4 20h14.2z" fill="#287ba4" stroke-width="none" opacity="1" stroke="none"></path><path id="SvgjsPath14507" d="m123.9 167.8 1.9 19.2.9 8.7-8.5-7.7-3.8-5.3-3.1-1.6 2.9 3.4-4.7 2.6-5.8 1.5 5.1-.6-6.3 11.8V220h1.2l-.6-19.8 5.7-12 .7-.1 5.1-2.8 3.1 4.5 9.7 8.1-1.2-12.4-2.3-17.7zm-24.1 29.7 2.1-5.9-2.5 5-4.4-8.7-9.1-3.4 2.8-3.3-3.1 1.6-3.8 5.3-8.5 7.7.9-8.7 1.9-19.2-2.5 17.7-1.2 12.4 9.7-8.1 3.3-4.9.4-.5 8.5 4.3 4.4 8.6-.9.7.8 21.9h1.1l-1-21 1.1-1.5zm7.6-12.8-1.1-.8-.7 1.4 1 1 .8-1.6zm-6.8 13.3 1 1 .7-1.7-1.1-.8-.6 1.5zm-.5 18.6 1 1 .7-1.7-1.1-.8-.6 1.5zm-53.7-28.3 4.9 17.2.9 14.5h1l-.8-14.6-6-17.1zm107.9 15.5-.9 16.2h1.4l.7-16 5.1-15.2-6.3 15z" fill="#166a94" stroke-width="none" opacity="1" stroke="none"></path><path id="SvgjsPath14508" d="m119.6 162.5-.8-1.4v13l-3.9 8 3.5 4.6s1.7-11.1 1.7-11.8c0-.7-.5-12.4-.5-12.4zm-38.7.1.4-2.3-1.3 2.5.9 13.4 1.6 9.5 2.7-4.3-2.9-6.1-1.4-12.7z" fill="#579ec2" stroke-width="none" opacity="1" stroke="none"></path></g><g id="svga-group-head" transform="matrix(1,0,0,1,0,0)"><g id="svga-group-ears-left-move" transform="matrix(1,0,0,1,0,0)"><g id="svga-group-ears-left"><path id="SvgjsPath13882" d="m67.3 102.2-3-7.2-9.2-8-3.6 12.9 4.7 12.7-.4 5.6 5 2.4 6-11.1z" fill="#ffdcb3" stroke-width="none" opacity="1"></path><path id="SvgjsPath13883" d="m53.5 100 1.9-8.4 3.7 10.6-.8 1 .4 5.9s-3.3-2.1-3.3-2.7.3-6.2.3-6.2l.9-.3-.9-4.5-1.6 6.1.4 3-1-4.5z" fill="#e0ad71" stroke-width="none" opacity="1"></path><path id="SvgjsPath13884" d="m61.4 111.8-.7-12L55.1 87l9.2 8 3 7.2-.5 7.3-6 11.1-5-2.4 4.8.3z" fill="#f0c490" stroke-width="none" opacity="1"></path></g></g><g id="svga-group-ears-right-move" transform="matrix(1,0,0,1,0,0)"><g id="svga-group-ears-right"><path id="SvgjsPath13885" d="m132.7 102.2 3-7.2 9.2-8 3.6 12.9-4.7 12.7.4 5.6-5 2.4-6-11.1z" fill="#ffdcb3" stroke-width="none" opacity="1"></path><path id="SvgjsPath13886" d="m146.5 100-1.9-8.4-3.7 10.6.8 1-.4 5.9s3.3-2.1 3.3-2.7-.3-6.2-.3-6.2l-.9-.3.9-4.5 1.6 6.1-.4 3 1-4.5z" fill="#e0ad71" stroke-width="none" opacity="1"></path><path id="SvgjsPath13887" d="m138.6 111.8.7-12 5.6-12.8-9.2 8-3 7.2.5 7.3 6 11.1 5-2.4-4.8.3z" fill="#f0c490" stroke-width="none" opacity="1"></path></g></g><g id="svga-group-faceshape-wrap"><g id="svga-group-faceshape-single"><path id="SvgjsPath13918" d="M136.8 61c-6.7-11.2-19-18.9-19-18.9-7-1.5-17.8-2.2-17.8-2.2s-10.8.8-17.8 2.2c0 0-12.4 7.6-19 18.9 0 0-5 14-5.2 23.9l1.1 23.6c1.6 6.4 5.3 14.8 5.3 14.8 2.1 4.3 20.1 24.2 20.1 24.2l8.3 4.5 7.1-1.8 7.1 1.8 8.3-4.5s17.9-19.9 20.1-24.2c0 0 3.7-8.4 5.3-14.8L142 85c-.3-9.9-5.2-24-5.2-24z" fill="#ffdcb3" stroke-width="none" opacity="1"></path><path id="SvgjsPath13919" d="m100.2 149.4-7.1 1.3-8.4-5.7-17.8-22-4.7-14.9-1-24 5-22 16.7-17 17.2-3.1 17.7.1c-7-1.5-17.8-2.2-17.8-2.2s-10.8.8-17.8 2.2c0 0-12.4 7.6-19 18.9 0 0-5 14-5.2 23.9l1.1 23.6c1.6 6.4 5.3 14.8 5.3 14.8 2.1 4.3 20.1 24.2 20.1 24.2l8.3 4.5 7.1-1.8 7.1 1.8 8.3-4.5-8.9 3.5-6.2-1.6z" fill="#e0ad71" stroke-width="none" opacity="1"></path><path id="SvgjsPath13920" d="m98.4 145.9.5-2.3 2.5-.2 1.1.2-2.7.9z" fill="#f7d0a1" stroke-width="none" opacity="1"></path></g></g><g id="svga-group-mouth-single-move" transform="matrix(1,0,0,1,0,0)"><g id="svga-group-mouth-single"><path id="SvgjsPath13866" d="m87.48 130.83 4.42-1.76s6.82-1.63 8.62-1.88c0 0 6.77 1.68 7.62 1.93l6.26 1.67s-5.99 3.77-8.22 5.05l-11.37-.05c.01 0-5.32-3.23-7.33-4.96z" fill="#e78472" stroke-width="none" opacity="1" transform="translate(0 3)"></path><path id="SvgjsPath13867" d="m84.1 130.34 10.16 1.8 6.29-1.53s6.02 1.62 6.29 1.53c.27-.09 10.88-1.8 10.88-1.8l-11.24 1.17-6.2-1.89-6.29 1.98-9.89-1.26z" fill="#d86955" stroke-width="none" opacity="1" transform="translate(0 3)"></path><path id="SvgjsPath13868" d="m91.65 132.52 3.13 2.11 10.87-.05-10.78-.6z" fill="#ffbdb1" stroke-width="none" opacity="1" transform="translate(0 3)"></path><path id="SvgjsPath13869" d="m99.37 127.71 1.17-.2 6.63 1.71-6.7-1.44z" fill="#ffbdb1" stroke-width="none" opacity="1" transform="translate(0 3)"></path></g></g><g id="svga-group-eyes-left-move" transform="matrix(1,0,0,1,0,0)"><g id="svga-group-eyes-left"><g id="svga-group-eyesback-left"><path id="SvgjsPath14006" d="m90.6 103.9-3.9-7s-12.7-.2-17.6.2c0 0 7.4 5.5 9.3 6.7 0 0 8.1.3 12.2.1z" fill="#ffffff" stroke-width="none" opacity="1"></path></g><g id="svga-group-eyesiriswrapper-left" transform="matrix(1,0,0,1,0,0)"><g id="svga-group-eyesiriscontrol-left" transform="matrix(1,0,0,1,0,0)"><g id="svga-group-eyesiris-left"><path id="SvgjsPath13954" d="m77.71 102.12-.73-3.56 2-3.04 3.56-.73 3.04 2 .73 3.56-2 3.04-3.56.73z" fill="#7b5c33" stroke-width="none" opacity="1"></path><path id="SvgjsPath13955" d="m80.63 101.89-1.42-1.42v-2.03l1.42-1.42h2.03l1.43 1.42v2.03l-1.43 1.42z" fill="#000000" stroke-width="none" opacity="1"></path><path id="SvgjsPath13956" d="m85.79 96.65-3.2-2.11-3.75.77-2.11 3.2.77 3.75 3.2 2.11 3.75-.77 2.11-3.2-.77-3.75zm-4.21 5.4.2 1.61-.52.11v-1.72h.32zm.16 0h.35l.42 1.46-.57.12-.2-1.58zm.51 0h.38l.73 1.29-.7.14-.41-1.43zm.34-.31H80.7l-1.34-1.34v-1.89l1.34-1.34h1.89l1.34 1.34v1.89l-1.34 1.34zm-3.61.93 1-1.2.23.23c-.24.47-.54 1.08-.68 1.34l-.55-.37zm.89-1.31-1.02 1.23-.48-.32 1.2-1.22.3.31zm.47.46.21.21-.25 1.51-.63-.42c.1-.18.29-.55.67-1.3zm-2.61-.8-.16-.77 1.48-.21v.37l-1.32.61zm1.32-1.6-1.67-.1-.11-.52 1.77.2v.42zm0 .16v.31l-1.51.21-.13-.61 1.64.09zm.1-1.3-1.47-.34.64-.97 1.28.87-.45.44zm-.24-2.21c.16.16.52.48 1.3 1.15l-.51.51-1.3-.89.51-.77zm2.46.79c-.05-.34-.18-1.12-.24-1.53l.67-.14v1.67h-.43zm-.16 0h-.33l-.77-1.33.86-.18c.08.54.19 1.2.24 1.51zm3.03 1.87 1.42-.33.13.63-1.55.1v-.4zm0-.16v-.19l-.24-.25 1.39-1.08.25 1.2-1.4.32zm-.36-.55-.33-.33 1.16-1.18.61.4-1.44 1.11zm-.44-.44-.45-.45.66-1.32.92.61-1.13 1.16zm-.56-.57-.16-.16h-.24l.21-1.69.84.55-.65 1.3zm.64 4.25 1.13 1.19-.36.54-1.1-1.4.33-.33zm.11-.12.22-.22 1.34.7-.45.68-1.11-1.16zm.33-.33.28-.28v-.1c.31.08.94.26 1.46.42l-.43.65-1.31-.69zm.28-1.52 1.59-.1.12.57-1.7-.06v-.41zm-1.7-4.22-.22 1.78h-.38v-1.7l.55-.11.05.03zm-2.59.5.75 1.29h-.13l-.25.25c-.49-.42-1.13-.98-1.33-1.17l.13-.2.83-.17zm-2.37 2.51 1.47.34v.43l-1.81-.21-.01-.04.35-.52zm.18 3.1 1.32-.61.37.37-1.22 1.24-.31-.2-.16-.8zm2.69 2.46.26-1.58h.4v1.75l-.31.06-.35-.23zm3.07-.33-.74-1.32.3-.3 1.12 1.43-.03.05-.65.14zm2.27-2.6c-.53-.15-1.22-.36-1.55-.44v-.41l1.74.06.08.38-.27.41z" fill="#5c3d14" stroke-width="none" opacity="1"></path><path id="SvgjsPath13957" d="m81.2 97.05-.87-.25-.65.62.21.88.87.26.65-.63z" fill="#ffffff" stroke-width="none" opacity="1"></path><path id="SvgjsPath13958" d="m83.15 100.84-.53-.3-.53.3v.62l.53.3.53-.3z" fill="#ffffff" stroke-width="none" opacity="1"></path></g></g></g><g id="svga-group-eyesfront-left"><path id="SvgjsPath14014" d="M68 94.5v11.1l7.7 7.9h10.9l7.7-7.9V94.5l-7.7-7.9H75.7L68 94.5zm1.1 2.6c4.9-.4 17.6-.2 17.6-.2l3.9 7c-4.1.3-12.2-.1-12.2-.1-1.9-1.3-9.3-6.7-9.3-6.7z" fill="#ffdcb3" stroke-width="none" opacity="1"></path><path id="SvgjsPath14015" d="m93.4 106.5-1 .3-2-2.1-12.2-.5-4.2-3.5 4.5 2.8 11.7.2z" fill="#f0c490" stroke-width="none" opacity="1"></path><path id="SvgjsPath14016" d="m68.1 97.2-5.2-2.6 4.9 1.3h2.3L66 93.6l6.5 2.4 3.2.1-5.6-2.6 7.5 2.6 10 .2 5.8 10.2-3.2-2.8-3.4-6.1-16.9-.2 8.6 6.1z" fill="#000000" stroke-width="none" opacity="1"></path></g></g></g><g id="svga-group-eyes-right-move" transform="matrix(1,0,0,1,0,0)"><g id="svga-group-eyes-right"><g id="svga-group-eyesback-right"><path id="SvgjsPath14007" d="m109.4 103.9 3.9-7s12.7-.2 17.6.2c0 0-7.4 5.5-9.3 6.7 0 0-8.1.3-12.2.1z" fill="#ffffff" stroke-width="none" opacity="1"></path></g><g id="svga-group-eyesiriswrapper-right" transform="matrix(1,0,0,1,0,0)"><g id="svga-group-eyesiriscontrol-right" transform="matrix(1,0,0,1,0,0)"><g id="svga-group-eyesiris-right"><path id="SvgjsPath13959" d="m114.42 102.12-.73-3.56 2-3.04 3.56-.73 3.04 2 .73 3.56-2 3.04-3.56.73z" fill="#7b5c33" stroke-width="none" opacity="1"></path><path id="SvgjsPath13960" d="m117.34 101.89-1.43-1.42v-2.03l1.43-1.42h2.03l1.42 1.42v2.03l-1.42 1.42z" fill="#000000" stroke-width="none" opacity="1"></path><path id="SvgjsPath13961" d="m122.5 96.65-3.2-2.11-3.75.77-2.11 3.2.77 3.75 3.2 2.11 3.75-.77 2.11-3.2-.77-3.75zm-4.21 5.4.2 1.61-.52.11v-1.72h.32zm.16 0h.35l.42 1.46-.57.12-.2-1.58zm.51 0h.38l.73 1.29-.7.14-.41-1.43zm.34-.31h-1.89l-1.34-1.34v-1.89l1.34-1.34h1.89l1.34 1.34v1.89l-1.34 1.34zm-3.61.93 1-1.2.23.23c-.24.47-.54 1.08-.68 1.34l-.55-.37zm.89-1.31-1.02 1.23-.48-.32 1.2-1.22.3.31zm.47.46.21.21-.25 1.51-.63-.42c.1-.18.29-.55.67-1.3zm-2.61-.8-.16-.77 1.48-.21v.37l-1.32.61zm1.32-1.6-1.67-.1-.11-.52 1.77.2v.42zm0 .16v.31l-1.51.21-.13-.61 1.64.09zm.1-1.3-1.47-.34.64-.97 1.28.87-.45.44zm-.25-2.21c.16.16.52.48 1.3 1.15l-.51.51-1.3-.89.51-.77zm2.46.79c-.05-.34-.18-1.12-.24-1.53l.67-.14v1.67h-.43zm-.15 0h-.33l-.77-1.33.86-.18c.08.54.19 1.2.24 1.51zm3.03 1.87 1.42-.33.13.63-1.55.1v-.4zm0-.16v-.19l-.25-.25 1.39-1.08.25 1.2-1.39.32zm-.36-.55-.33-.33 1.16-1.18.61.4-1.44 1.11zm-.44-.44-.45-.45.66-1.32.92.61-1.13 1.16zm-.56-.57-.16-.16h-.24l.21-1.69.84.55-.65 1.3zm.64 4.25 1.13 1.19-.36.54-1.1-1.4.33-.33zm.11-.12.22-.22 1.34.7-.45.68-1.11-1.16zm.33-.33.28-.28v-.1c.31.08.94.26 1.46.42l-.43.65-1.31-.69zm.28-1.52 1.59-.1.12.57-1.7-.06v-.41zm-1.7-4.22-.22 1.78h-.38v-1.7l.55-.11.05.03zm-2.59.5.75 1.29h-.13l-.25.25c-.49-.42-1.13-.98-1.33-1.17l.13-.2.83-.17zm-2.37 2.51 1.47.34v.43l-1.81-.21-.01-.04.35-.52zm.18 3.1 1.32-.61.37.37-1.22 1.24-.31-.2-.16-.8zm2.68 2.46.26-1.58h.4v1.75l-.31.06-.35-.23zm3.08-.33-.74-1.32.3-.3 1.12 1.43-.03.05-.65.14zm2.27-2.6c-.53-.15-1.22-.36-1.55-.44v-.41l1.74.06.08.38-.27.41z" fill="#5c3d14" stroke-width="none" opacity="1"></path><path id="SvgjsPath13962" d="m117.91 97.05-.87-.25-.65.62.21.88.87.26.65-.63z" fill="#ffffff" stroke-width="none" opacity="1"></path><path id="SvgjsPath13963" d="m119.86 100.84-.53-.3-.54.3v.62l.54.3.53-.3z" fill="#ffffff" stroke-width="none" opacity="1"></path></g></g></g><g id="svga-group-eyesfront-right"><path id="SvgjsPath14017" d="M124.3 86.6h-10.9l-7.7 7.9v11.1l7.7 7.9h10.9l7.7-7.9V94.5l-7.7-7.9zm-2.7 17.2s-8.1.4-12.2.1l3.9-7s12.7-.2 17.6.2c0 0-7.4 5.4-9.3 6.7z" fill="#ffdcb3" stroke-width="none" opacity="1"></path><path id="SvgjsPath14020" d="m106.6 106.5 1 .3 2-2.1 12.2-.5 4.2-3.5-4.5 2.8-11.7.2z" fill="#f0c490" stroke-width="none" opacity="1"></path><path id="SvgjsPath14021" d="m131.9 97.2 5.2-2.6-4.9 1.3h-2.3l4.1-2.3-6.5 2.4-3.2.1 5.6-2.6-7.5 2.6-10 .2-5.8 10.2 3.2-2.8 3.4-6.1 16.9-.2-8.6 6.1z" fill="#000000" stroke-width="none" opacity="1"></path></g></g></g><g id="svga-group-facehighlight-single"></g><g id="svga-group-eyebrows-left-move" transform="matrix(1,0,0,1,0,0)"><g id="svga-group-eyebrows-left-rotate" transform="matrix(1,1.7453292519943295e-9,-1.7453292519943295e-9,1,1.5158184396568686e-7,-1.3953906830010965e-7)"><g id="svga-group-eyebrows-left"><path id="SvgjsPath14057" d="m92.2 87.2-1.7 3.5-14.6-4.1-8.2 2 5.9-5 3-.6z" fill="#2a232b" stroke-width="none" opacity="1"></path><path id="SvgjsPath14058" d="m85.7 85.5 1.4.4.5 2.6-1.9-3zM76.6 83l3 3.6-4.3-3.4 1.3-.2zm6.4 1.7 1 3.1-2.6-3.5 1.6.4zm-12 1.1h1.9l-2.6.6.7-.6zm13.9-.6.2 1.1-1.2-1.3 1 .2zm-11.3-1.6 2.6 1.4-3.2-.8.6-.6zm15.7 2.8.5 3.1-2.3-3.5 1.8.4z" fill="#3a353a" stroke-width="none" opacity="1"></path></g></g></g><g id="svga-group-eyebrows-right-move" transform="matrix(1,0,0,1,0,0)"><g id="svga-group-eyebrows-right-rotate" transform="matrix(1,1.7453292519943295e-9,-1.7453292519943295e-9,1,1.5158184396568686e-7,-2.0952678880803433e-7)"><g id="svga-group-eyebrows-right"><path id="SvgjsPath14059" d="m107.8 87.2 1.7 3.5 14.6-4.1 8.2 2-5.9-5-3-.6z" fill="#2a232b" stroke-width="none" opacity="1"></path><path id="SvgjsPath14060" d="m114.3 85.5-1.4.4-.5 2.6 1.9-3zm9.1-2.5-3 3.6 4.3-3.4-1.3-.2zm-6.4 1.7-1 3.1 2.6-3.5-1.6.4zm12 1.1h-1.9l2.6.6-.7-.6zm-13.9-.6-.2 1.1 1.1-1.4-.9.3zm11.3-1.6-2.6 1.4 3.2-.8-.6-.6zm-15.7 2.8-.5 3.1 2.3-3.5-1.8.4z" fill="#3a353a" stroke-width="none" opacity="1"></path></g></g></g><g id="svga-group-nose-single-move" transform="matrix(1,0,0,1,0,0)"><g id="svga-group-nose-single"><path id="SvgjsPath14048" d="m103.35 108.14-.8-.31 5.16 8.97-1.6 2.28-1.38-.95.22-1.02-1.09.47-1.6 3.15-2.1.08-2.5-.08-1.6-3.15-1.08-.47.21 1.02-1.38.95-1.59-2.28 5.15-8.97.33-10.76-1.13 11.07-5.22 8.81 2.54 3.31 2.17-1.58 1.24 2.76h5.33l1.23-2.76 2.18 1.58 2.54-3.31z" fill="#e0ad71" stroke-width="none" opacity="1" transform="translate(0 2)"></path><path id="SvgjsPath14049" d="m97.27 117.21 1.3.61 3.06.08 1.53-.69-.58-2.35-.98-3.1-2.03 4.07z" fill="#ffe2c0" stroke-width="none" opacity="1" transform="translate(0 2)"></path></g></g><g id="svga-group-hair-front"><path id="SvgjsPath14096" d="m147.9 115.1-3.5-46.3-10.3-19.7-14.1-11-10.3-2.1-9.9 2.8-9.8-2.9L76.7 38 61.2 55.2l-7.6 25.2-1.8 49.7 2.9 30.6 2.1 2.7-2.8-26.1 4.4 26.9 8.5 2.9-4.5-25.2 6.6 25.3 8 1.3-7.1-37.5-3-45.2 10.2-29.5 9.1-3.4 14.9 5.1 13.6-5.3 9 5.4 8.9 27.4.4 41.2-2.6 42.3 3.2-1.6 5.1-15.9-2.7 16.2 5.3-2.6 1.4-22.6 1.3 22 5.1-5z" fill="#543c32" stroke-width="none" opacity="1"></path><path id="SvgjsPath14097" d="m81.3 49.2-6.9 6.4L65.6 85l3.2 29-2-28.1 10.1-29.5 9-3.5 14.9 5.1-7.1-4.2-12.4-4.6zm43.8 5.6-12.6-6.4-7 6.1-4.7 3.5 13.6-5.3 9 5.3 9 27.4.3 22.6 1.6-25.8-9.2-27.4zm-25.9-2.5-18.9-7.8L68.2 55l-5.5 31.5 4.4 57.9 3.7 19.1-5.1-20.2-5.3-58.6 6.4-31.3 13.8-10.8 18.6 9.7zm-.6-2.3 9.4-7.6 17.5 5 12.9 20.9 1.8 22.1-.5 46.7-1.2 12v-13.8l-.7-49.2-2.1-18.4-11.5-19.1L108 44l-9.4 6zM54.7 86.1l2.3 46 5.7 26.9-7.3-28.3-.7-44.6zm89.6 6.2 2.1 47.4-.4 18.4 2.1-19.3-3.8-46.5z" fill="#634e45" stroke-width="none" opacity="1"></path><path id="SvgjsPath14098" d="m99 53.4 9-8 16.3 4.1 11 19.1 2.5 17.5-3 50.1.7-51.5-2.5-16.1-11-17.9-13.6-3.2-9.4 5.9zm-3.7-.9-14-6.2-11.5 9.2-7.1 31 5.1 43-3.2-43.4L72.2 56l10.3-7.1 12.8 3.6z" fill="#4c342a" stroke-width="none" opacity="1"></path><path id="SvgjsPath14099" d="m98.1 44.9-17-5.1-12.2 9.4 12.9-7.6 16.3 3.3zm1.8-.7 10.1-5.5 13.6 4.8-13.8-2.3-9.9 3zm-.9-3.4-8.7-3-4.6.7L99 40.8zM59 71.3l-2.5 11 2.8 48L62 141l-.9-12.4-2.5-47.1.4-10.2zm81.9 9.2 1.6 31.7-.7 25.3 2.3-26.2-3.2-30.8z" fill="#5c453b" stroke-width="none" opacity="1"></path></g><g id="svga-group-glasses-single-move" transform="matrix(1,0,0,1,0,0)"><g id="svga-group-glasses-single"></g></g></g></g></g><rect id="svga-credit-rect" width="200" height="15" x="0" y="185" fill="#ecf0f1" opacity="0.5" style="display: none;"></rect><text id="svga-credit-text" font-family="Avenir Next, Roboto, Helvetica, Arial, sans-serif" font-size="10px" text-anchor="start" font-weight="400" size="10px" anchor="start" weight="400" fill="#333333" x="33.43669891357422" y="182.60824704170227" style="display: none;"><tspan id="SvgjsTspan13860" dy="13" x="33.43669891357422">Created on AvatarMaker.com</tspan></text></g><defs id="SvgjsDefs13812"></defs></svg>